0
SECTION
2
HEADER
9
$ACADVER
1
AC1009
9
$TEXTSTYLE
7
STANDARD
9
$CECOLOR
62
256
9
$AUNITS
70
0
9
$LUNITS
70
3
9
$EXTMIN
10
2.1062992
20
4.2913386
9
$EXTMAX
10
8.7401575
20
7.9713862
9
$FILLMODE
70
1
0
ENDSEC
0
SECTION
2
TABLES
0
TABLE
2
LAYER
70
11
0
LAYER
2
Top
70
64
62
1
6
CONTINUOUS
0
LAYER
2
Bottom
70
64
62
2
6
CONTINUOUS
0
LAYER
2
Board
70
64
62
3
6
CONTINUOUS
0
LAYER
2
Top_Mask
70
64
62
4
6
CONTINUOUS
0
LAYER
2
Bot_Mask
70
64
62
5
6
CONTINUOUS
0
LAYER
2
Top_Silk
70
64
62
6
6
CONTINUOUS
0
LAYER
2
Bot_Silk
70
64
62
7
6
CONTINUOUS
0
LAYER
2
Top_Paste
70
64
62
8
6
CONTINUOUS
0
LAYER
2
Bot_Paste
70
64
62
9
6
CONTINUOUS
0
LAYER
2
Top_Assy
70
64
62
10
6
CONTINUOUS
0
LAYER
2
Bot_Assy
70
64
62
11
6
CONTINUOUS
0
LAYER
2
Drill_Layer
70
64
62
100
6
CONTINUOUS
0
ENDTAB
0
ENDSEC
0
SECTION
2
BLOCKS
0
BLOCK
2
UNIT_DISC
8
0
70
0
10
0.0000000
20
0.0000000
0
POLYLINE
8
0
6
CONTINUOUS
66
1
70
1
40
0.5000000
41
0.5000000
0
VERTEX
8
0
10
0.2500000
20
0.0000000
42
1.0000000
0
VERTEX
8
0
10
-0.2500000
20
0.0000000
42
1.0000000
0
SEQEND
0
ENDBLK
0
BLOCK
2
UNIT_CIRCLE
8
0
70
0
10
0.0000000
20
0.0000000
0
CIRCLE
8
0
6
CONTINUOUS
10
0.0000000
20
0.0000000
40
0.5000000
0
ENDBLK
0
ENDSEC
0
SECTION
2
ENTITIES
0
INSERT
8
Top
2
UNIT_DISC
10
2.3228346
20
5.8858268
41
0.0393701
42
0.0393701
43
0.0393701
50
0.0000000
0
INSERT
8
Top
2
UNIT_DISC
10
2.3228346
20
5.8464567
41
0.0393701
42
0.0393701
43
0.0393701
50
0.0000000
0
POLYLINE
8
Top
6
CONTINUOUS
66
1
70
0
40
0.0393701
41
0.0393701
0
VERTEX
8
Top
10
2.3228346
20
5.8858268
42
1.0000000
0
VERTEX
8
Top
10
2.3228346
20
5.8464567
42
1.0000000
0
SEQEND
0
INSERT
8
Top
2
UNIT_DISC
10
2.3228346
20
5.8464567
41
0.0393701
42
0.0393701
43
0.0393701
50
0.0000000
0
INSERT
8
Top
2
UNIT_DISC
10
2.3228346
20
5.8858268
41
0.0393701
42
0.0393701
43
0.0393701
50
0.0000000
0
POLYLINE
8
Top
6
CONTINUOUS
66
1
70
0
40
0.0393701
41
0.0393701
0
VERTEX
8
Top
10
2.3228346
20
5.8464567
42
1.0000000
0
VERTEX
8
Top
10
2.3228346
20
5.8858268
42
1.0000000
0
SEQEND
0
INSERT
8
Top
2
UNIT_DISC
10
3.9370079
20
5.8661417
41
0.0393701
42
0.0393701
43
0.0393701
50
0.0000000
0
INSERT
8
Top
2
UNIT_DISC
10
3.9370079
20
5.8267717
41
0.0393701
42
0.0393701
43
0.0393701
50
0.0000000
0
POLYLINE
8
Top
6
CONTINUOUS
66
1
70
0
40
0.0393701
41
0.0393701
0
VERTEX
8
Top
10
3.9370079
20
5.8661417
42
1.0000000
0
VERTEX
8
Top
10
3.9370079
20
5.8267717
42
1.0000000
0
SEQEND
0
INSERT
8
Top
2
UNIT_DISC
10
3.9370079
20
5.8267717
41
0.0393701
42
0.0393701
43
0.0393701
50
0.0000000
0
INSERT
8
Top
2
UNIT_DISC
10
3.9370079
20
5.8661417
41
0.0393701
42
0.0393701
43
0.0393701
50
0.0000000
0
POLYLINE
8
Top
6
CONTINUOUS
66
1
70
0
40
0.0393701
41
0.0393701
0
VERTEX
8
Top
10
3.9370079
20
5.8267717
42
1.0000000
0
VERTEX
8
Top
10
3.9370079
20
5.8661417
42
1.0000000
0
SEQEND
0
INSERT
8
Top
2
UNIT_DISC
10
5.5118110
20
5.8661417
41
0.0393701
42
0.0393701
43
0.0393701
50
0.0000000
0
INSERT
8
Top
2
UNIT_DISC
10
5.5118110
20
5.8267717
41
0.0393701
42
0.0393701
43
0.0393701
50
0.0000000
0
POLYLINE
8
Top
6
CONTINUOUS
66
1
70
0
40
0.0393701
41
0.0393701
0
VERTEX
8
Top
10
5.5118110
20
5.8661417
42
1.0000000
0
VERTEX
8
Top
10
5.5118110
20
5.8267717
42
1.0000000
0
SEQEND
0
INSERT
8
Top
2
UNIT_DISC
10
5.5118110
20
5.8267717
41
0.0393701
42
0.0393701
43
0.0393701
50
0.0000000
0
INSERT
8
Top
2
UNIT_DISC
10
5.5118110
20
5.8661417
41
0.0393701
42
0.0393701
43
0.0393701
50
0.0000000
0
POLYLINE
8
Top
6
CONTINUOUS
66
1
70
0
40
0.0393701
41
0.0393701
0
VERTEX
8
Top
10
5.5118110
20
5.8267717
42
1.0000000
0
VERTEX
8
Top
10
5.5118110
20
5.8661417
42
1.0000000
0
SEQEND
0
INSERT
8
Top
2
UNIT_DISC
10
7.0472441
20
5.9055118
41
0.0393701
42
0.0393701
43
0.0393701
50
0.0000000
0
INSERT
8
Top
2
UNIT_DISC
10
7.0472441
20
5.8661417
41
0.0393701
42
0.0393701
43
0.0393701
50
0.0000000
0
POLYLINE
8
Top
6
CONTINUOUS
66
1
70
0
40
0.0393701
41
0.0393701
0
VERTEX
8
Top
10
7.0472441
20
5.9055118
42
1.0000000
0
VERTEX
8
Top
10
7.0472441
20
5.8661417
42
1.0000000
0
SEQEND
0
INSERT
8
Top
2
UNIT_DISC
10
7.0472441
20
5.8661417
41
0.0393701
42
0.0393701
43
0.0393701
50
0.0000000
0
INSERT
8
Top
2
UNIT_DISC
10
7.0472441
20
5.9055118
41
0.0393701
42
0.0393701
43
0.0393701
50
0.0000000
0
POLYLINE
8
Top
6
CONTINUOUS
66
1
70
0
40
0.0393701
41
0.0393701
0
VERTEX
8
Top
10
7.0472441
20
5.8661417
42
1.0000000
0
VERTEX
8
Top
10
7.0472441
20
5.9055118
42
1.0000000
0
SEQEND
0
INSERT
8
Top
2
UNIT_DISC
10
3.2874016
20
5.5511811
41
0.0393701
42
0.0393701
43
0.0393701
50
0.0000000
0
INSERT
8
Top
2
UNIT_DISC
10
3.2874016
20
5.5118110
41
0.0393701
42
0.0393701
43
0.0393701
50
0.0000000
0
POLYLINE
8
Top
6
CONTINUOUS
66
1
70
0
40
0.0393701
41
0.0393701
0
VERTEX
8
Top
10
3.2874016
20
5.5511811
42
1.0000000
0
VERTEX
8
Top
10
3.2874016
20
5.5118110
42
1.0000000
0
SEQEND
0
INSERT
8
Top
2
UNIT_DISC
10
3.2874016
20
5.5118110
41
0.0393701
42
0.0393701
43
0.0393701
50
0.0000000
0
INSERT
8
Top
2
UNIT_DISC
10
3.2874016
20
5.5511811
41
0.0393701
42
0.0393701
43
0.0393701
50
0.0000000
0
POLYLINE
8
Top
6
CONTINUOUS
66
1
70
0
40
0.0393701
41
0.0393701
0
VERTEX
8
Top
10
3.2874016
20
5.5118110
42
1.0000000
0
VERTEX
8
Top
10
3.2874016
20
5.5511811
42
1.0000000
0
SEQEND
0
INSERT
8
Top
2
UNIT_DISC
10
4.9212598
20
5.5708661
41
0.0393701
42
0.0393701
43
0.0393701
50
0.0000000
0
INSERT
8
Top
2
UNIT_DISC
10
4.9212598
20
5.5314961
41
0.0393701
42
0.0393701
43
0.0393701
50
0.0000000
0
POLYLINE
8
Top
6
CONTINUOUS
66
1
70
0
40
0.0393701
41
0.0393701
0
VERTEX
8
Top
10
4.9212598
20
5.5708661
42
1.0000000
0
VERTEX
8
Top
10
4.9212598
20
5.5314961
42
1.0000000
0
SEQEND
0
INSERT
8
Top
2
UNIT_DISC
10
4.9212598
20
5.5314961
41
0.0393701
42
0.0393701
43
0.0393701
50
0.0000000
0
INSERT
8
Top
2
UNIT_DISC
10
4.9212598
20
5.5708661
41
0.0393701
42
0.0393701
43
0.0393701
50
0.0000000
0
POLYLINE
8
Top
6
CONTINUOUS
66
1
70
0
40
0.0393701
41
0.0393701
0
VERTEX
8
Top
10
4.9212598
20
5.5314961
42
1.0000000
0
VERTEX
8
Top
10
4.9212598
20
5.5708661
42
1.0000000
0
SEQEND
0
INSERT
8
Top
2
UNIT_DISC
10
6.5157480
20
5.5708661
41
0.0393701
42
0.0393701
43
0.0393701
50
0.0000000
0
INSERT
8
Top
2
UNIT_DISC
10
6.5157480
20
5.5314961
41
0.0393701
42
0.0393701
43
0.0393701
50
0.0000000
0
POLYLINE
8
Top
6
CONTINUOUS
66
1
70
0
40
0.0393701
41
0.0393701
0
VERTEX
8
Top
10
6.5157480
20
5.5708661
42
1.0000000
0
VERTEX
8
Top
10
6.5157480
20
5.5314961
42
1.0000000
0
SEQEND
0
INSERT
8
Top
2
UNIT_DISC
10
6.5157480
20
5.5314961
41
0.0393701
42
0.0393701
43
0.0393701
50
0.0000000
0
INSERT
8
Top
2
UNIT_DISC
10
6.5157480
20
5.5708661
41
0.0393701
42
0.0393701
43
0.0393701
50
0.0000000
0
POLYLINE
8
Top
6
CONTINUOUS
66
1
70
0
40
0.0393701
41
0.0393701
0
VERTEX
8
Top
10
6.5157480
20
5.5314961
42
1.0000000
0
VERTEX
8
Top
10
6.5157480
20
5.5708661
42
1.0000000
0
SEQEND
0
INSERT
8
Top
2
UNIT_DISC
10
8.0708661
20
5.5708661
41
0.0393701
42
0.0393701
43
0.0393701
50
0.0000000
0
INSERT
8
Top
2
UNIT_DISC
10
8.0708661
20
5.5314961
41
0.0393701
42
0.0393701
43
0.0393701
50
0.0000000
0
POLYLINE
8
Top
6
CONTINUOUS
66
1
70
0
40
0.0393701
41
0.0393701
0
VERTEX
8
Top
10
8.0708661
20
5.5708661
42
1.0000000
0
VERTEX
8
Top
10
8.0708661
20
5.5314961
42
1.0000000
0
SEQEND
0
INSERT
8
Top
2
UNIT_DISC
10
8.0708661
20
5.5314961
41
0.0393701
42
0.0393701
43
0.0393701
50
0.0000000
0
INSERT
8
Top
2
UNIT_DISC
10
8.0708661
20
5.5708661
41
0.0393701
42
0.0393701
43
0.0393701
50
0.0000000
0
POLYLINE
8
Top
6
CONTINUOUS
66
1
70
0
40
0.0393701
41
0.0393701
0
VERTEX
8
Top
10
8.0708661
20
5.5314961
42
1.0000000
0
VERTEX
8
Top
10
8.0708661
20
5.5708661
42
1.0000000
0
SEQEND
0
TEXT
8
Bottom
10
4.1338583
20
7.7362205
40
0.1574803
1
› –¿Õ  ŒÃœ‹ﬁ“≈–¿
50
0.0
7
STANDARD
71
0
72
0
0
INSERT
8
Bottom
2
UNIT_DISC
10
3.4055118
20
5.5118110
41
0.0393701
42
0.0393701
43
0.0393701
50
0.0000000
0
INSERT
8
Bottom
2
UNIT_DISC
10
3.4055118
20
5.5511811
41
0.0393701
42
0.0393701
43
0.0393701
50
0.0000000
0
POLYLINE
8
Bottom
6
CONTINUOUS
66
1
70
0
40
0.0393701
41
0.0393701
0
VERTEX
8
Bottom
10
3.4055118
20
5.5118110
42
1.0000000
0
VERTEX
8
Bottom
10
3.4055118
20
5.5511811
42
1.0000000
0
SEQEND
0
INSERT
8
Bottom
2
UNIT_DISC
10
3.4055118
20
5.5511811
41
0.0393701
42
0.0393701
43
0.0393701
50
0.0000000
0
INSERT
8
Bottom
2
UNIT_DISC
10
3.4055118
20
5.5118110
41
0.0393701
42
0.0393701
43
0.0393701
50
0.0000000
0
POLYLINE
8
Bottom
6
CONTINUOUS
66
1
70
0
40
0.0393701
41
0.0393701
0
VERTEX
8
Bottom
10
3.4055118
20
5.5511811
42
1.0000000
0
VERTEX
8
Bottom
10
3.4055118
20
5.5118110
42
1.0000000
0
SEQEND
0
INSERT
8
Bottom
2
UNIT_DISC
10
4.0551181
20
5.8267717
41
0.0393701
42
0.0393701
43
0.0393701
50
0.0000000
0
INSERT
8
Bottom
2
UNIT_DISC
10
4.0551181
20
5.8661417
41
0.0393701
42
0.0393701
43
0.0393701
50
0.0000000
0
POLYLINE
8
Bottom
6
CONTINUOUS
66
1
70
0
40
0.0393701
41
0.0393701
0
VERTEX
8
Bottom
10
4.0551181
20
5.8267717
42
1.0000000
0
VERTEX
8
Bottom
10
4.0551181
20
5.8661417
42
1.0000000
0
SEQEND
0
INSERT
8
Bottom
2
UNIT_DISC
10
4.0551181
20
5.8661417
41
0.0393701
42
0.0393701
43
0.0393701
50
0.0000000
0
INSERT
8
Bottom
2
UNIT_DISC
10
4.0551181
20
5.8267717
41
0.0393701
42
0.0393701
43
0.0393701
50
0.0000000
0
POLYLINE
8
Bottom
6
CONTINUOUS
66
1
70
0
40
0.0393701
41
0.0393701
0
VERTEX
8
Bottom
10
4.0551181
20
5.8661417
42
1.0000000
0
VERTEX
8
Bottom
10
4.0551181
20
5.8267717
42
1.0000000
0
SEQEND
0
INSERT
8
Bottom
2
UNIT_DISC
10
2.4409449
20
5.8464567
41
0.0393701
42
0.0393701
43
0.0393701
50
0.0000000
0
INSERT
8
Bottom
2
UNIT_DISC
10
2.4409449
20
5.8858268
41
0.0393701
42
0.0393701
43
0.0393701
50
0.0000000
0
POLYLINE
8
Bottom
6
CONTINUOUS
66
1
70
0
40
0.0393701
41
0.0393701
0
VERTEX
8
Bottom
10
2.4409449
20
5.8464567
42
1.0000000
0
VERTEX
8
Bottom
10
2.4409449
20
5.8858268
42
1.0000000
0
SEQEND
0
INSERT
8
Bottom
2
UNIT_DISC
10
2.4409449
20
5.8858268
41
0.0393701
42
0.0393701
43
0.0393701
50
0.0000000
0
INSERT
8
Bottom
2
UNIT_DISC
10
2.4409449
20
5.8464567
41
0.0393701
42
0.0393701
43
0.0393701
50
0.0000000
0
POLYLINE
8
Bottom
6
CONTINUOUS
66
1
70
0
40
0.0393701
41
0.0393701
0
VERTEX
8
Bottom
10
2.4409449
20
5.8858268
42
1.0000000
0
VERTEX
8
Bottom
10
2.4409449
20
5.8464567
42
1.0000000
0
SEQEND
0
TEXT
8
Bottom
10
2.3897638
20
7.1023622
40
0.1574803
1
˝Ú‡Ô 1
50
0.0
7
STANDARD
71
0
72
0
0
INSERT
8
Bottom
2
UNIT_DISC
10
2.3228346
20
6.9685039
41
0.0098425
42
0.0098425
43
0.0098425
50
0.0000000
0
INSERT
8
Bottom
2
UNIT_DISC
10
2.3228346
20
6.2598425
41
0.0098425
42
0.0098425
43
0.0098425
50
0.0000000
0
POLYLINE
8
Bottom
6
CONTINUOUS
66
1
70
0
40
0.0098425
41
0.0098425
0
VERTEX
8
Bottom
10
2.3228346
20
6.9685039
42
0.0000000
0
VERTEX
8
Bottom
10
2.3228346
20
6.2598425
42
0.0000000
0
SEQEND
0
TEXT
8
Bottom
10
2.3622047
20
6.7716535
40
0.0472441
1
–¿—’Œƒ «≈–Õ¿
50
0.0
7
STANDARD
71
0
72
0
0
TEXT
8
Bottom
10
2.3622047
20
6.6141732
40
0.0472441
1
¬À¿∆ÕŒ—“‹
50
0.0
7
STANDARD
71
0
72
0
0
TEXT
8
Bottom
10
2.3622047
20
6.2992126
40
0.0472441
1
“≈Ãœ≈–¿“”–¿
50
0.0
7
STANDARD
71
0
72
0
0
TEXT
8
Bottom
10
2.3622047
20
6.4566929
40
0.0472441
1
Õ¿“”–¿
50
0.0
7
STANDARD
71
0
72
0
0
INSERT
8
Bottom
2
UNIT_DISC
10
2.8740157
20
6.2598425
41
0.0098425
42
0.0098425
43
0.0098425
50
0.0000000
0
INSERT
8
Bottom
2
UNIT_DISC
10
2.8740157
20
6.9685039
41
0.0098425
42
0.0098425
43
0.0098425
50
0.0000000
0
POLYLINE
8
Bottom
6
CONTINUOUS
66
1
70
0
40
0.0098425
41
0.0098425
0
VERTEX
8
Bottom
10
2.8740157
20
6.2598425
42
0.0000000
0
VERTEX
8
Bottom
10
2.8740157
20
6.9685039
42
0.0000000
0
SEQEND
0
INSERT
8
Bottom
2
UNIT_DISC
10
2.8740157
20
6.9685039
41
0.0098425
42
0.0098425
43
0.0098425
50
0.0000000
0
INSERT
8
Bottom
2
UNIT_DISC
10
2.3228346
20
6.9685039
41
0.0098425
42
0.0098425
43
0.0098425
50
0.0000000
0
POLYLINE
8
Bottom
6
CONTINUOUS
66
1
70
0
40
0.0098425
41
0.0098425
0
VERTEX
8
Bottom
10
2.8740157
20
6.9685039
42
0.0000000
0
VERTEX
8
Bottom
10
2.3228346
20
6.9685039
42
0.0000000
0
SEQEND
0
INSERT
8
Bottom
2
UNIT_DISC
10
2.3228346
20
6.2598425
41
0.0098425
42
0.0098425
43
0.0098425
50
0.0000000
0
INSERT
8
Bottom
2
UNIT_DISC
10
2.8740157
20
6.2598425
41
0.0098425
42
0.0098425
43
0.0098425
50
0.0000000
0
POLYLINE
8
Bottom
6
CONTINUOUS
66
1
70
0
40
0.0098425
41
0.0098425
0
VERTEX
8
Bottom
10
2.3228346
20
6.2598425
42
0.0000000
0
VERTEX
8
Bottom
10
2.8740157
20
6.2598425
42
0.0000000
0
SEQEND
0
INSERT
8
Bottom
2
UNIT_DISC
10
2.9133858
20
6.6929134
41
0.0098425
42
0.0098425
43
0.0098425
50
0.0000000
0
INSERT
8
Bottom
2
UNIT_DISC
10
2.9133858
20
6.6141732
41
0.0098425
42
0.0098425
43
0.0098425
50
0.0000000
0
POLYLINE
8
Bottom
6
CONTINUOUS
66
1
70
0
40
0.0098425
41
0.0098425
0
VERTEX
8
Bottom
10
2.9133858
20
6.6929134
42
0.0000000
0
VERTEX
8
Bottom
10
2.9133858
20
6.6141732
42
0.0000000
0
SEQEND
0
INSERT
8
Bottom
2
UNIT_DISC
10
2.9133858
20
6.6141732
41
0.0098425
42
0.0098425
43
0.0098425
50
0.0000000
0
INSERT
8
Bottom
2
UNIT_DISC
10
3.1102362
20
6.6141732
41
0.0098425
42
0.0098425
43
0.0098425
50
0.0000000
0
POLYLINE
8
Bottom
6
CONTINUOUS
66
1
70
0
40
0.0098425
41
0.0098425
0
VERTEX
8
Bottom
10
2.9133858
20
6.6141732
42
0.0000000
0
VERTEX
8
Bottom
10
3.1102362
20
6.6141732
42
0.0000000
0
SEQEND
0
INSERT
8
Bottom
2
UNIT_DISC
10
3.1102362
20
6.6141732
41
0.0098425
42
0.0098425
43
0.0098425
50
0.0000000
0
INSERT
8
Bottom
2
UNIT_DISC
10
3.1102362
20
6.6929134
41
0.0098425
42
0.0098425
43
0.0098425
50
0.0000000
0
POLYLINE
8
Bottom
6
CONTINUOUS
66
1
70
0
40
0.0098425
41
0.0098425
0
VERTEX
8
Bottom
10
3.1102362
20
6.6141732
42
0.0000000
0
VERTEX
8
Bottom
10
3.1102362
20
6.6929134
42
0.0000000
0
SEQEND
0
INSERT
8
Bottom
2
UNIT_DISC
10
3.1102362
20
6.6929134
41
0.0098425
42
0.0098425
43
0.0098425
50
0.0000000
0
INSERT
8
Bottom
2
UNIT_DISC
10
2.9133858
20
6.6929134
41
0.0098425
42
0.0098425
43
0.0098425
50
0.0000000
0
POLYLINE
8
Bottom
6
CONTINUOUS
66
1
70
0
40
0.0098425
41
0.0098425
0
VERTEX
8
Bottom
10
3.1102362
20
6.6929134
42
0.0000000
0
VERTEX
8
Bottom
10
2.9133858
20
6.6929134
42
0.0000000
0
SEQEND
0
INSERT
8
Bottom
2
UNIT_DISC
10
2.9133858
20
6.5354331
41
0.0098425
42
0.0098425
43
0.0098425
50
0.0000000
0
INSERT
8
Bottom
2
UNIT_DISC
10
2.9133858
20
6.4566929
41
0.0098425
42
0.0098425
43
0.0098425
50
0.0000000
0
POLYLINE
8
Bottom
6
CONTINUOUS
66
1
70
0
40
0.0098425
41
0.0098425
0
VERTEX
8
Bottom
10
2.9133858
20
6.5354331
42
0.0000000
0
VERTEX
8
Bottom
10
2.9133858
20
6.4566929
42
0.0000000
0
SEQEND
0
INSERT
8
Bottom
2
UNIT_DISC
10
2.9133858
20
6.4566929
41
0.0098425
42
0.0098425
43
0.0098425
50
0.0000000
0
INSERT
8
Bottom
2
UNIT_DISC
10
3.1102362
20
6.4566929
41
0.0098425
42
0.0098425
43
0.0098425
50
0.0000000
0
POLYLINE
8
Bottom
6
CONTINUOUS
66
1
70
0
40
0.0098425
41
0.0098425
0
VERTEX
8
Bottom
10
2.9133858
20
6.4566929
42
0.0000000
0
VERTEX
8
Bottom
10
3.1102362
20
6.4566929
42
0.0000000
0
SEQEND
0
INSERT
8
Bottom
2
UNIT_DISC
10
3.1102362
20
6.4566929
41
0.0098425
42
0.0098425
43
0.0098425
50
0.0000000
0
INSERT
8
Bottom
2
UNIT_DISC
10
3.1102362
20
6.5354331
41
0.0098425
42
0.0098425
43
0.0098425
50
0.0000000
0
POLYLINE
8
Bottom
6
CONTINUOUS
66
1
70
0
40
0.0098425
41
0.0098425
0
VERTEX
8
Bottom
10
3.1102362
20
6.4566929
42
0.0000000
0
VERTEX
8
Bottom
10
3.1102362
20
6.5354331
42
0.0000000
0
SEQEND
0
INSERT
8
Bottom
2
UNIT_DISC
10
3.1102362
20
6.5354331
41
0.0098425
42
0.0098425
43
0.0098425
50
0.0000000
0
INSERT
8
Bottom
2
UNIT_DISC
10
2.9133858
20
6.5354331
41
0.0098425
42
0.0098425
43
0.0098425
50
0.0000000
0
POLYLINE
8
Bottom
6
CONTINUOUS
66
1
70
0
40
0.0098425
41
0.0098425
0
VERTEX
8
Bottom
10
3.1102362
20
6.5354331
42
0.0000000
0
VERTEX
8
Bottom
10
2.9133858
20
6.5354331
42
0.0000000
0
SEQEND
0
INSERT
8
Bottom
2
UNIT_DISC
10
2.9133858
20
6.3779528
41
0.0098425
42
0.0098425
43
0.0098425
50
0.0000000
0
INSERT
8
Bottom
2
UNIT_DISC
10
2.9133858
20
6.2992126
41
0.0098425
42
0.0098425
43
0.0098425
50
0.0000000
0
POLYLINE
8
Bottom
6
CONTINUOUS
66
1
70
0
40
0.0098425
41
0.0098425
0
VERTEX
8
Bottom
10
2.9133858
20
6.3779528
42
0.0000000
0
VERTEX
8
Bottom
10
2.9133858
20
6.2992126
42
0.0000000
0
SEQEND
0
INSERT
8
Bottom
2
UNIT_DISC
10
2.9133858
20
6.2992126
41
0.0098425
42
0.0098425
43
0.0098425
50
0.0000000
0
INSERT
8
Bottom
2
UNIT_DISC
10
3.1102362
20
6.2992126
41
0.0098425
42
0.0098425
43
0.0098425
50
0.0000000
0
POLYLINE
8
Bottom
6
CONTINUOUS
66
1
70
0
40
0.0098425
41
0.0098425
0
VERTEX
8
Bottom
10
2.9133858
20
6.2992126
42
0.0000000
0
VERTEX
8
Bottom
10
3.1102362
20
6.2992126
42
0.0000000
0
SEQEND
0
INSERT
8
Bottom
2
UNIT_DISC
10
3.1102362
20
6.2992126
41
0.0098425
42
0.0098425
43
0.0098425
50
0.0000000
0
INSERT
8
Bottom
2
UNIT_DISC
10
3.1102362
20
6.3779528
41
0.0098425
42
0.0098425
43
0.0098425
50
0.0000000
0
POLYLINE
8
Bottom
6
CONTINUOUS
66
1
70
0
40
0.0098425
41
0.0098425
0
VERTEX
8
Bottom
10
3.1102362
20
6.2992126
42
0.0000000
0
VERTEX
8
Bottom
10
3.1102362
20
6.3779528
42
0.0000000
0
SEQEND
0
INSERT
8
Bottom
2
UNIT_DISC
10
3.1102362
20
6.3779528
41
0.0098425
42
0.0098425
43
0.0098425
50
0.0000000
0
INSERT
8
Bottom
2
UNIT_DISC
10
2.9133858
20
6.3779528
41
0.0098425
42
0.0098425
43
0.0098425
50
0.0000000
0
POLYLINE
8
Bottom
6
CONTINUOUS
66
1
70
0
40
0.0098425
41
0.0098425
0
VERTEX
8
Bottom
10
3.1102362
20
6.3779528
42
0.0000000
0
VERTEX
8
Bottom
10
2.9133858
20
6.3779528
42
0.0000000
0
SEQEND
0
INSERT
8
Bottom
2
UNIT_DISC
10
2.9133858
20
6.8503937
41
0.0098425
42
0.0098425
43
0.0098425
50
0.0000000
0
INSERT
8
Bottom
2
UNIT_DISC
10
2.9133858
20
6.7716535
41
0.0098425
42
0.0098425
43
0.0098425
50
0.0000000
0
POLYLINE
8
Bottom
6
CONTINUOUS
66
1
70
0
40
0.0098425
41
0.0098425
0
VERTEX
8
Bottom
10
2.9133858
20
6.8503937
42
0.0000000
0
VERTEX
8
Bottom
10
2.9133858
20
6.7716535
42
0.0000000
0
SEQEND
0
INSERT
8
Bottom
2
UNIT_DISC
10
2.9133858
20
6.7716535
41
0.0098425
42
0.0098425
43
0.0098425
50
0.0000000
0
INSERT
8
Bottom
2
UNIT_DISC
10
3.0708661
20
6.7716535
41
0.0098425
42
0.0098425
43
0.0098425
50
0.0000000
0
POLYLINE
8
Bottom
6
CONTINUOUS
66
1
70
0
40
0.0098425
41
0.0098425
0
VERTEX
8
Bottom
10
2.9133858
20
6.7716535
42
0.0000000
0
VERTEX
8
Bottom
10
3.0708661
20
6.7716535
42
0.0000000
0
SEQEND
0
INSERT
8
Bottom
2
UNIT_DISC
10
3.0708661
20
6.7716535
41
0.0098425
42
0.0098425
43
0.0098425
50
0.0000000
0
INSERT
8
Bottom
2
UNIT_DISC
10
3.1102362
20
6.7716535
41
0.0098425
42
0.0098425
43
0.0098425
50
0.0000000
0
POLYLINE
8
Bottom
6
CONTINUOUS
66
1
70
0
40
0.0098425
41
0.0098425
0
VERTEX
8
Bottom
10
3.0708661
20
6.7716535
42
0.0000000
0
VERTEX
8
Bottom
10
3.1102362
20
6.7716535
42
0.0000000
0
SEQEND
0
INSERT
8
Bottom
2
UNIT_DISC
10
3.1102362
20
6.7716535
41
0.0098425
42
0.0098425
43
0.0098425
50
0.0000000
0
INSERT
8
Bottom
2
UNIT_DISC
10
3.1102362
20
6.8503937
41
0.0098425
42
0.0098425
43
0.0098425
50
0.0000000
0
POLYLINE
8
Bottom
6
CONTINUOUS
66
1
70
0
40
0.0098425
41
0.0098425
0
VERTEX
8
Bottom
10
3.1102362
20
6.7716535
42
0.0000000
0
VERTEX
8
Bottom
10
3.1102362
20
6.8503937
42
0.0000000
0
SEQEND
0
INSERT
8
Bottom
2
UNIT_DISC
10
3.1102362
20
6.8503937
41
0.0098425
42
0.0098425
43
0.0098425
50
0.0000000
0
INSERT
8
Bottom
2
UNIT_DISC
10
2.9133858
20
6.8503937
41
0.0098425
42
0.0098425
43
0.0098425
50
0.0000000
0
POLYLINE
8
Bottom
6
CONTINUOUS
66
1
70
0
40
0.0098425
41
0.0098425
0
VERTEX
8
Bottom
10
3.1102362
20
6.8503937
42
0.0000000
0
VERTEX
8
Bottom
10
2.9133858
20
6.8503937
42
0.0000000
0
SEQEND
0
TEXT
8
Bottom
10
3.1496063
20
6.7716535
40
0.0629921
1
“/◊
50
0.0
7
STANDARD
71
0
72
0
0
TEXT
8
Bottom
10
3.1496063
20
6.6141732
40
0.0629921
1
%
50
0.0
7
STANDARD
71
0
72
0
0
TEXT
8
Bottom
10
3.1496063
20
6.4566929
40
0.0629921
1
„/Î
50
0.0
7
STANDARD
71
0
72
0
0
TEXT
8
Bottom
10
3.2086614
20
6.2952756
40
0.0629921
1
—
50
0.0
7
STANDARD
71
0
72
0
0
INSERT
8
Bottom
2
UNIT_DISC
10
3.1771654
20
6.3818898
41
0.0098425
42
0.0098425
43
0.0098425
50
0.0000000
0
INSERT
8
Bottom
2
UNIT_DISC
10
3.1771654
20
6.3582677
41
0.0098425
42
0.0098425
43
0.0098425
50
0.0000000
0
POLYLINE
8
Bottom
6
CONTINUOUS
66
1
70
0
40
0.0098425
41
0.0098425
0
VERTEX
8
Bottom
10
3.1771654
20
6.3818898
42
1.0000000
0
VERTEX
8
Bottom
10
3.1771654
20
6.3582677
42
1.0000000
0
SEQEND
0
INSERT
8
Bottom
2
UNIT_DISC
10
3.1771654
20
6.3582677
41
0.0098425
42
0.0098425
43
0.0098425
50
0.0000000
0
INSERT
8
Bottom
2
UNIT_DISC
10
3.1771654
20
6.3818898
41
0.0098425
42
0.0098425
43
0.0098425
50
0.0000000
0
POLYLINE
8
Bottom
6
CONTINUOUS
66
1
70
0
40
0.0098425
41
0.0098425
0
VERTEX
8
Bottom
10
3.1771654
20
6.3582677
42
1.0000000
0
VERTEX
8
Bottom
10
3.1771654
20
6.3818898
42
1.0000000
0
SEQEND
0
TEXT
8
Bottom
10
2.4409449
20
6.8503937
40
0.0629921
1
ƒ¿“◊» 
50
0.0
7
STANDARD
71
0
72
0
0
INSERT
8
Bottom
2
UNIT_DISC
10
2.3228346
20
5.6299213
41
0.0157480
42
0.0157480
43
0.0157480
50
0.0000000
0
INSERT
8
Bottom
2
UNIT_DISC
10
2.3228346
20
5.3149606
41
0.0157480
42
0.0157480
43
0.0157480
50
0.0000000
0
POLYLINE
8
Bottom
6
CONTINUOUS
66
1
70
0
40
0.0157480
41
0.0157480
0
VERTEX
8
Bottom
10
2.3228346
20
5.6299213
42
0.0000000
0
VERTEX
8
Bottom
10
2.3228346
20
5.3149606
42
0.0000000
0
SEQEND
0
INSERT
8
Bottom
2
UNIT_DISC
10
2.3228346
20
5.3149606
41
0.0157480
42
0.0157480
43
0.0157480
50
0.0000000
0
INSERT
8
Bottom
2
UNIT_DISC
10
3.5433071
20
5.3149606
41
0.0157480
42
0.0157480
43
0.0157480
50
0.0000000
0
POLYLINE
8
Bottom
6
CONTINUOUS
66
1
70
0
40
0.0157480
41
0.0157480
0
VERTEX
8
Bottom
10
2.3228346
20
5.3149606
42
0.0000000
0
VERTEX
8
Bottom
10
3.5433071
20
5.3149606
42
0.0000000
0
SEQEND
0
INSERT
8
Bottom
2
UNIT_DISC
10
3.5433071
20
5.3149606
41
0.0157480
42
0.0157480
43
0.0157480
50
0.0000000
0
INSERT
8
Bottom
2
UNIT_DISC
10
3.5433071
20
5.6299213
41
0.0157480
42
0.0157480
43
0.0157480
50
0.0000000
0
POLYLINE
8
Bottom
6
CONTINUOUS
66
1
70
0
40
0.0157480
41
0.0157480
0
VERTEX
8
Bottom
10
3.5433071
20
5.3149606
42
0.0000000
0
VERTEX
8
Bottom
10
3.5433071
20
5.6299213
42
0.0000000
0
SEQEND
0
INSERT
8
Bottom
2
UNIT_DISC
10
3.5433071
20
5.6299213
41
0.0157480
42
0.0157480
43
0.0157480
50
0.0000000
0
INSERT
8
Bottom
2
UNIT_DISC
10
2.3228346
20
5.6299213
41
0.0157480
42
0.0157480
43
0.0157480
50
0.0000000
0
POLYLINE
8
Bottom
6
CONTINUOUS
66
1
70
0
40
0.0157480
41
0.0157480
0
VERTEX
8
Bottom
10
3.5433071
20
5.6299213
42
0.0000000
0
VERTEX
8
Bottom
10
2.3228346
20
5.6299213
42
0.0000000
0
SEQEND
0
TEXT
8
Bottom
10
2.5196850
20
5.3937008
40
0.0944882
1
¡ÿ”
50
0.0
7
STANDARD
71
0
72
0
0
TEXT
8
Bottom
10
2.3228346
20
5.1574803
40
0.0629921
1
«¿ƒ¿ÕÕ¿ﬂ ¬À¿∆ÕŒ—“‹ «≈–Õ¿
50
0.0
7
STANDARD
71
0
72
0
0
INSERT
8
Bottom
2
UNIT_DISC
10
3.0708661
20
5.1181102
41
0.0098425
42
0.0098425
43
0.0098425
50
0.0000000
0
INSERT
8
Bottom
2
UNIT_DISC
10
3.0708661
20
5.0393701
41
0.0098425
42
0.0098425
43
0.0098425
50
0.0000000
0
POLYLINE
8
Bottom
6
CONTINUOUS
66
1
70
0
40
0.0098425
41
0.0098425
0
VERTEX
8
Bottom
10
3.0708661
20
5.1181102
42
0.0000000
0
VERTEX
8
Bottom
10
3.0708661
20
5.0393701
42
0.0000000
0
SEQEND
0
INSERT
8
Bottom
2
UNIT_DISC
10
3.0708661
20
5.0393701
41
0.0098425
42
0.0098425
43
0.0098425
50
0.0000000
0
INSERT
8
Bottom
2
UNIT_DISC
10
3.2677165
20
5.0393701
41
0.0098425
42
0.0098425
43
0.0098425
50
0.0000000
0
POLYLINE
8
Bottom
6
CONTINUOUS
66
1
70
0
40
0.0098425
41
0.0098425
0
VERTEX
8
Bottom
10
3.0708661
20
5.0393701
42
0.0000000
0
VERTEX
8
Bottom
10
3.2677165
20
5.0393701
42
0.0000000
0
SEQEND
0
INSERT
8
Bottom
2
UNIT_DISC
10
3.2677165
20
5.0393701
41
0.0098425
42
0.0098425
43
0.0098425
50
0.0000000
0
INSERT
8
Bottom
2
UNIT_DISC
10
3.2677165
20
5.1181102
41
0.0098425
42
0.0098425
43
0.0098425
50
0.0000000
0
POLYLINE
8
Bottom
6
CONTINUOUS
66
1
70
0
40
0.0098425
41
0.0098425
0
VERTEX
8
Bottom
10
3.2677165
20
5.0393701
42
0.0000000
0
VERTEX
8
Bottom
10
3.2677165
20
5.1181102
42
0.0000000
0
SEQEND
0
INSERT
8
Bottom
2
UNIT_DISC
10
3.2677165
20
5.1181102
41
0.0098425
42
0.0098425
43
0.0098425
50
0.0000000
0
INSERT
8
Bottom
2
UNIT_DISC
10
3.0708661
20
5.1181102
41
0.0098425
42
0.0098425
43
0.0098425
50
0.0000000
0
POLYLINE
8
Bottom
6
CONTINUOUS
66
1
70
0
40
0.0098425
41
0.0098425
0
VERTEX
8
Bottom
10
3.2677165
20
5.1181102
42
0.0000000
0
VERTEX
8
Bottom
10
3.0708661
20
5.1181102
42
0.0000000
0
SEQEND
0
TEXT
8
Bottom
10
3.3070866
20
5.0393701
40
0.0629921
1
%
50
0.0
7
STANDARD
71
0
72
0
0
INSERT
8
Bottom
2
UNIT_DISC
10
4.8818898
20
5.1181102
41
0.0098425
42
0.0098425
43
0.0098425
50
0.0000000
0
INSERT
8
Bottom
2
UNIT_DISC
10
4.8818898
20
5.0393701
41
0.0098425
42
0.0098425
43
0.0098425
50
0.0000000
0
POLYLINE
8
Bottom
6
CONTINUOUS
66
1
70
0
40
0.0098425
41
0.0098425
0
VERTEX
8
Bottom
10
4.8818898
20
5.1181102
42
0.0000000
0
VERTEX
8
Bottom
10
4.8818898
20
5.0393701
42
0.0000000
0
SEQEND
0
INSERT
8
Bottom
2
UNIT_DISC
10
4.8818898
20
5.0393701
41
0.0098425
42
0.0098425
43
0.0098425
50
0.0000000
0
INSERT
8
Bottom
2
UNIT_DISC
10
5.0787402
20
5.0393701
41
0.0098425
42
0.0098425
43
0.0098425
50
0.0000000
0
POLYLINE
8
Bottom
6
CONTINUOUS
66
1
70
0
40
0.0098425
41
0.0098425
0
VERTEX
8
Bottom
10
4.8818898
20
5.0393701
42
0.0000000
0
VERTEX
8
Bottom
10
5.0787402
20
5.0393701
42
0.0000000
0
SEQEND
0
INSERT
8
Bottom
2
UNIT_DISC
10
3.9370079
20
6.9685039
41
0.0098425
42
0.0098425
43
0.0098425
50
0.0000000
0
INSERT
8
Bottom
2
UNIT_DISC
10
3.9370079
20
6.2598425
41
0.0098425
42
0.0098425
43
0.0098425
50
0.0000000
0
POLYLINE
8
Bottom
6
CONTINUOUS
66
1
70
0
40
0.0098425
41
0.0098425
0
VERTEX
8
Bottom
10
3.9370079
20
6.9685039
42
0.0000000
0
VERTEX
8
Bottom
10
3.9370079
20
6.2598425
42
0.0000000
0
SEQEND
0
TEXT
8
Bottom
10
3.9763780
20
6.7716535
40
0.0472441
1
–¿—’Œƒ «≈–Õ¿
50
0.0
7
STANDARD
71
0
72
0
0
TEXT
8
Bottom
10
3.9763780
20
6.6141732
40
0.0472441
1
¬À¿∆ÕŒ—“‹
50
0.0
7
STANDARD
71
0
72
0
0
TEXT
8
Bottom
10
3.9763780
20
6.2992126
40
0.0472441
1
“≈Ãœ≈–¿“”–¿
50
0.0
7
STANDARD
71
0
72
0
0
TEXT
8
Bottom
10
3.9763780
20
6.4566929
40
0.0472441
1
Õ¿“”–¿
50
0.0
7
STANDARD
71
0
72
0
0
INSERT
8
Bottom
2
UNIT_DISC
10
4.4881890
20
6.2598425
41
0.0098425
42
0.0098425
43
0.0098425
50
0.0000000
0
INSERT
8
Bottom
2
UNIT_DISC
10
4.4881890
20
6.9685039
41
0.0098425
42
0.0098425
43
0.0098425
50
0.0000000
0
POLYLINE
8
Bottom
6
CONTINUOUS
66
1
70
0
40
0.0098425
41
0.0098425
0
VERTEX
8
Bottom
10
4.4881890
20
6.2598425
42
0.0000000
0
VERTEX
8
Bottom
10
4.4881890
20
6.9685039
42
0.0000000
0
SEQEND
0
INSERT
8
Bottom
2
UNIT_DISC
10
4.4881890
20
6.9685039
41
0.0098425
42
0.0098425
43
0.0098425
50
0.0000000
0
INSERT
8
Bottom
2
UNIT_DISC
10
3.9370079
20
6.9685039
41
0.0098425
42
0.0098425
43
0.0098425
50
0.0000000
0
POLYLINE
8
Bottom
6
CONTINUOUS
66
1
70
0
40
0.0098425
41
0.0098425
0
VERTEX
8
Bottom
10
4.4881890
20
6.9685039
42
0.0000000
0
VERTEX
8
Bottom
10
3.9370079
20
6.9685039
42
0.0000000
0
SEQEND
0
INSERT
8
Bottom
2
UNIT_DISC
10
3.9370079
20
6.2598425
41
0.0098425
42
0.0098425
43
0.0098425
50
0.0000000
0
INSERT
8
Bottom
2
UNIT_DISC
10
4.4881890
20
6.2598425
41
0.0098425
42
0.0098425
43
0.0098425
50
0.0000000
0
POLYLINE
8
Bottom
6
CONTINUOUS
66
1
70
0
40
0.0098425
41
0.0098425
0
VERTEX
8
Bottom
10
3.9370079
20
6.2598425
42
0.0000000
0
VERTEX
8
Bottom
10
4.4881890
20
6.2598425
42
0.0000000
0
SEQEND
0
INSERT
8
Bottom
2
UNIT_DISC
10
4.5275591
20
6.6929134
41
0.0098425
42
0.0098425
43
0.0098425
50
0.0000000
0
INSERT
8
Bottom
2
UNIT_DISC
10
4.5275591
20
6.6141732
41
0.0098425
42
0.0098425
43
0.0098425
50
0.0000000
0
POLYLINE
8
Bottom
6
CONTINUOUS
66
1
70
0
40
0.0098425
41
0.0098425
0
VERTEX
8
Bottom
10
4.5275591
20
6.6929134
42
0.0000000
0
VERTEX
8
Bottom
10
4.5275591
20
6.6141732
42
0.0000000
0
SEQEND
0
INSERT
8
Bottom
2
UNIT_DISC
10
4.5275591
20
6.6141732
41
0.0098425
42
0.0098425
43
0.0098425
50
0.0000000
0
INSERT
8
Bottom
2
UNIT_DISC
10
4.7244094
20
6.6141732
41
0.0098425
42
0.0098425
43
0.0098425
50
0.0000000
0
POLYLINE
8
Bottom
6
CONTINUOUS
66
1
70
0
40
0.0098425
41
0.0098425
0
VERTEX
8
Bottom
10
4.5275591
20
6.6141732
42
0.0000000
0
VERTEX
8
Bottom
10
4.7244094
20
6.6141732
42
0.0000000
0
SEQEND
0
INSERT
8
Bottom
2
UNIT_DISC
10
4.7244094
20
6.6141732
41
0.0098425
42
0.0098425
43
0.0098425
50
0.0000000
0
INSERT
8
Bottom
2
UNIT_DISC
10
4.7244094
20
6.6929134
41
0.0098425
42
0.0098425
43
0.0098425
50
0.0000000
0
POLYLINE
8
Bottom
6
CONTINUOUS
66
1
70
0
40
0.0098425
41
0.0098425
0
VERTEX
8
Bottom
10
4.7244094
20
6.6141732
42
0.0000000
0
VERTEX
8
Bottom
10
4.7244094
20
6.6929134
42
0.0000000
0
SEQEND
0
INSERT
8
Bottom
2
UNIT_DISC
10
4.7244094
20
6.6929134
41
0.0098425
42
0.0098425
43
0.0098425
50
0.0000000
0
INSERT
8
Bottom
2
UNIT_DISC
10
4.5275591
20
6.6929134
41
0.0098425
42
0.0098425
43
0.0098425
50
0.0000000
0
POLYLINE
8
Bottom
6
CONTINUOUS
66
1
70
0
40
0.0098425
41
0.0098425
0
VERTEX
8
Bottom
10
4.7244094
20
6.6929134
42
0.0000000
0
VERTEX
8
Bottom
10
4.5275591
20
6.6929134
42
0.0000000
0
SEQEND
0
INSERT
8
Bottom
2
UNIT_DISC
10
4.5275591
20
6.5354331
41
0.0098425
42
0.0098425
43
0.0098425
50
0.0000000
0
INSERT
8
Bottom
2
UNIT_DISC
10
4.5275591
20
6.4566929
41
0.0098425
42
0.0098425
43
0.0098425
50
0.0000000
0
POLYLINE
8
Bottom
6
CONTINUOUS
66
1
70
0
40
0.0098425
41
0.0098425
0
VERTEX
8
Bottom
10
4.5275591
20
6.5354331
42
0.0000000
0
VERTEX
8
Bottom
10
4.5275591
20
6.4566929
42
0.0000000
0
SEQEND
0
INSERT
8
Bottom
2
UNIT_DISC
10
4.5275591
20
6.4566929
41
0.0098425
42
0.0098425
43
0.0098425
50
0.0000000
0
INSERT
8
Bottom
2
UNIT_DISC
10
4.7244094
20
6.4566929
41
0.0098425
42
0.0098425
43
0.0098425
50
0.0000000
0
POLYLINE
8
Bottom
6
CONTINUOUS
66
1
70
0
40
0.0098425
41
0.0098425
0
VERTEX
8
Bottom
10
4.5275591
20
6.4566929
42
0.0000000
0
VERTEX
8
Bottom
10
4.7244094
20
6.4566929
42
0.0000000
0
SEQEND
0
INSERT
8
Bottom
2
UNIT_DISC
10
4.7244094
20
6.4566929
41
0.0098425
42
0.0098425
43
0.0098425
50
0.0000000
0
INSERT
8
Bottom
2
UNIT_DISC
10
4.7244094
20
6.5354331
41
0.0098425
42
0.0098425
43
0.0098425
50
0.0000000
0
POLYLINE
8
Bottom
6
CONTINUOUS
66
1
70
0
40
0.0098425
41
0.0098425
0
VERTEX
8
Bottom
10
4.7244094
20
6.4566929
42
0.0000000
0
VERTEX
8
Bottom
10
4.7244094
20
6.5354331
42
0.0000000
0
SEQEND
0
INSERT
8
Bottom
2
UNIT_DISC
10
4.7244094
20
6.5354331
41
0.0098425
42
0.0098425
43
0.0098425
50
0.0000000
0
INSERT
8
Bottom
2
UNIT_DISC
10
4.5275591
20
6.5354331
41
0.0098425
42
0.0098425
43
0.0098425
50
0.0000000
0
POLYLINE
8
Bottom
6
CONTINUOUS
66
1
70
0
40
0.0098425
41
0.0098425
0
VERTEX
8
Bottom
10
4.7244094
20
6.5354331
42
0.0000000
0
VERTEX
8
Bottom
10
4.5275591
20
6.5354331
42
0.0000000
0
SEQEND
0
INSERT
8
Bottom
2
UNIT_DISC
10
4.5275591
20
6.3779528
41
0.0098425
42
0.0098425
43
0.0098425
50
0.0000000
0
INSERT
8
Bottom
2
UNIT_DISC
10
4.5275591
20
6.2992126
41
0.0098425
42
0.0098425
43
0.0098425
50
0.0000000
0
POLYLINE
8
Bottom
6
CONTINUOUS
66
1
70
0
40
0.0098425
41
0.0098425
0
VERTEX
8
Bottom
10
4.5275591
20
6.3779528
42
0.0000000
0
VERTEX
8
Bottom
10
4.5275591
20
6.2992126
42
0.0000000
0
SEQEND
0
INSERT
8
Bottom
2
UNIT_DISC
10
4.5275591
20
6.2992126
41
0.0098425
42
0.0098425
43
0.0098425
50
0.0000000
0
INSERT
8
Bottom
2
UNIT_DISC
10
4.7244094
20
6.2992126
41
0.0098425
42
0.0098425
43
0.0098425
50
0.0000000
0
POLYLINE
8
Bottom
6
CONTINUOUS
66
1
70
0
40
0.0098425
41
0.0098425
0
VERTEX
8
Bottom
10
4.5275591
20
6.2992126
42
0.0000000
0
VERTEX
8
Bottom
10
4.7244094
20
6.2992126
42
0.0000000
0
SEQEND
0
INSERT
8
Bottom
2
UNIT_DISC
10
4.7244094
20
6.2992126
41
0.0098425
42
0.0098425
43
0.0098425
50
0.0000000
0
INSERT
8
Bottom
2
UNIT_DISC
10
4.7244094
20
6.3779528
41
0.0098425
42
0.0098425
43
0.0098425
50
0.0000000
0
POLYLINE
8
Bottom
6
CONTINUOUS
66
1
70
0
40
0.0098425
41
0.0098425
0
VERTEX
8
Bottom
10
4.7244094
20
6.2992126
42
0.0000000
0
VERTEX
8
Bottom
10
4.7244094
20
6.3779528
42
0.0000000
0
SEQEND
0
INSERT
8
Bottom
2
UNIT_DISC
10
4.7244094
20
6.3779528
41
0.0098425
42
0.0098425
43
0.0098425
50
0.0000000
0
INSERT
8
Bottom
2
UNIT_DISC
10
4.5275591
20
6.3779528
41
0.0098425
42
0.0098425
43
0.0098425
50
0.0000000
0
POLYLINE
8
Bottom
6
CONTINUOUS
66
1
70
0
40
0.0098425
41
0.0098425
0
VERTEX
8
Bottom
10
4.7244094
20
6.3779528
42
0.0000000
0
VERTEX
8
Bottom
10
4.5275591
20
6.3779528
42
0.0000000
0
SEQEND
0
INSERT
8
Bottom
2
UNIT_DISC
10
4.5275591
20
6.8503937
41
0.0098425
42
0.0098425
43
0.0098425
50
0.0000000
0
INSERT
8
Bottom
2
UNIT_DISC
10
4.5275591
20
6.7716535
41
0.0098425
42
0.0098425
43
0.0098425
50
0.0000000
0
POLYLINE
8
Bottom
6
CONTINUOUS
66
1
70
0
40
0.0098425
41
0.0098425
0
VERTEX
8
Bottom
10
4.5275591
20
6.8503937
42
0.0000000
0
VERTEX
8
Bottom
10
4.5275591
20
6.7716535
42
0.0000000
0
SEQEND
0
INSERT
8
Bottom
2
UNIT_DISC
10
4.5275591
20
6.7716535
41
0.0098425
42
0.0098425
43
0.0098425
50
0.0000000
0
INSERT
8
Bottom
2
UNIT_DISC
10
4.6850394
20
6.7716535
41
0.0098425
42
0.0098425
43
0.0098425
50
0.0000000
0
POLYLINE
8
Bottom
6
CONTINUOUS
66
1
70
0
40
0.0098425
41
0.0098425
0
VERTEX
8
Bottom
10
4.5275591
20
6.7716535
42
0.0000000
0
VERTEX
8
Bottom
10
4.6850394
20
6.7716535
42
0.0000000
0
SEQEND
0
INSERT
8
Bottom
2
UNIT_DISC
10
4.6850394
20
6.7716535
41
0.0098425
42
0.0098425
43
0.0098425
50
0.0000000
0
INSERT
8
Bottom
2
UNIT_DISC
10
4.7244094
20
6.7716535
41
0.0098425
42
0.0098425
43
0.0098425
50
0.0000000
0
POLYLINE
8
Bottom
6
CONTINUOUS
66
1
70
0
40
0.0098425
41
0.0098425
0
VERTEX
8
Bottom
10
4.6850394
20
6.7716535
42
0.0000000
0
VERTEX
8
Bottom
10
4.7244094
20
6.7716535
42
0.0000000
0
SEQEND
0
INSERT
8
Bottom
2
UNIT_DISC
10
4.7244094
20
6.7716535
41
0.0098425
42
0.0098425
43
0.0098425
50
0.0000000
0
INSERT
8
Bottom
2
UNIT_DISC
10
4.7244094
20
6.8503937
41
0.0098425
42
0.0098425
43
0.0098425
50
0.0000000
0
POLYLINE
8
Bottom
6
CONTINUOUS
66
1
70
0
40
0.0098425
41
0.0098425
0
VERTEX
8
Bottom
10
4.7244094
20
6.7716535
42
0.0000000
0
VERTEX
8
Bottom
10
4.7244094
20
6.8503937
42
0.0000000
0
SEQEND
0
INSERT
8
Bottom
2
UNIT_DISC
10
4.7244094
20
6.8503937
41
0.0098425
42
0.0098425
43
0.0098425
50
0.0000000
0
INSERT
8
Bottom
2
UNIT_DISC
10
4.5275591
20
6.8503937
41
0.0098425
42
0.0098425
43
0.0098425
50
0.0000000
0
POLYLINE
8
Bottom
6
CONTINUOUS
66
1
70
0
40
0.0098425
41
0.0098425
0
VERTEX
8
Bottom
10
4.7244094
20
6.8503937
42
0.0000000
0
VERTEX
8
Bottom
10
4.5275591
20
6.8503937
42
0.0000000
0
SEQEND
0
TEXT
8
Bottom
10
4.7637795
20
6.7716535
40
0.0629921
1
“/◊
50
0.0
7
STANDARD
71
0
72
0
0
TEXT
8
Bottom
10
4.7637795
20
6.6141732
40
0.0629921
1
%
50
0.0
7
STANDARD
71
0
72
0
0
TEXT
8
Bottom
10
4.7637795
20
6.4566929
40
0.0629921
1
„/Î
50
0.0
7
STANDARD
71
0
72
0
0
TEXT
8
Bottom
10
4.8228346
20
6.2952756
40
0.0629921
1
—
50
0.0
7
STANDARD
71
0
72
0
0
INSERT
8
Bottom
2
UNIT_DISC
10
4.7913386
20
6.3818898
41
0.0098425
42
0.0098425
43
0.0098425
50
0.0000000
0
INSERT
8
Bottom
2
UNIT_DISC
10
4.7913386
20
6.3582677
41
0.0098425
42
0.0098425
43
0.0098425
50
0.0000000
0
POLYLINE
8
Bottom
6
CONTINUOUS
66
1
70
0
40
0.0098425
41
0.0098425
0
VERTEX
8
Bottom
10
4.7913386
20
6.3818898
42
1.0000000
0
VERTEX
8
Bottom
10
4.7913386
20
6.3582677
42
1.0000000
0
SEQEND
0
INSERT
8
Bottom
2
UNIT_DISC
10
4.7913386
20
6.3582677
41
0.0098425
42
0.0098425
43
0.0098425
50
0.0000000
0
INSERT
8
Bottom
2
UNIT_DISC
10
4.7913386
20
6.3818898
41
0.0098425
42
0.0098425
43
0.0098425
50
0.0000000
0
POLYLINE
8
Bottom
6
CONTINUOUS
66
1
70
0
40
0.0098425
41
0.0098425
0
VERTEX
8
Bottom
10
4.7913386
20
6.3582677
42
1.0000000
0
VERTEX
8
Bottom
10
4.7913386
20
6.3818898
42
1.0000000
0
SEQEND
0
TEXT
8
Bottom
10
4.0551181
20
6.8503937
40
0.0629921
1
ƒ¿“◊» 
50
0.0
7
STANDARD
71
0
72
0
0
INSERT
8
Bottom
2
UNIT_DISC
10
3.9370079
20
5.6299213
41
0.0157480
42
0.0157480
43
0.0157480
50
0.0000000
0
INSERT
8
Bottom
2
UNIT_DISC
10
3.9370079
20
5.3149606
41
0.0157480
42
0.0157480
43
0.0157480
50
0.0000000
0
POLYLINE
8
Bottom
6
CONTINUOUS
66
1
70
0
40
0.0157480
41
0.0157480
0
VERTEX
8
Bottom
10
3.9370079
20
5.6299213
42
0.0000000
0
VERTEX
8
Bottom
10
3.9370079
20
5.3149606
42
0.0000000
0
SEQEND
0
INSERT
8
Bottom
2
UNIT_DISC
10
3.9370079
20
5.3149606
41
0.0157480
42
0.0157480
43
0.0157480
50
0.0000000
0
INSERT
8
Bottom
2
UNIT_DISC
10
5.1574803
20
5.3149606
41
0.0157480
42
0.0157480
43
0.0157480
50
0.0000000
0
POLYLINE
8
Bottom
6
CONTINUOUS
66
1
70
0
40
0.0157480
41
0.0157480
0
VERTEX
8
Bottom
10
3.9370079
20
5.3149606
42
0.0000000
0
VERTEX
8
Bottom
10
5.1574803
20
5.3149606
42
0.0000000
0
SEQEND
0
INSERT
8
Bottom
2
UNIT_DISC
10
5.1574803
20
5.6299213
41
0.0157480
42
0.0157480
43
0.0157480
50
0.0000000
0
INSERT
8
Bottom
2
UNIT_DISC
10
3.9370079
20
5.6299213
41
0.0157480
42
0.0157480
43
0.0157480
50
0.0000000
0
POLYLINE
8
Bottom
6
CONTINUOUS
66
1
70
0
40
0.0157480
41
0.0157480
0
VERTEX
8
Bottom
10
5.1574803
20
5.6299213
42
0.0000000
0
VERTEX
8
Bottom
10
3.9370079
20
5.6299213
42
0.0000000
0
SEQEND
0
TEXT
8
Bottom
10
4.1338583
20
5.3937008
40
0.0944882
1
¡ÿ”
50
0.0
7
STANDARD
71
0
72
0
0
TEXT
8
Bottom
10
3.9370079
20
5.1574803
40
0.0629921
1
«¿ƒ¿ÕÕ¿ﬂ ¬À¿∆ÕŒ—“‹ «≈–Õ¿
50
0.0
7
STANDARD
71
0
72
0
0
INSERT
8
Bottom
2
UNIT_DISC
10
5.0787402
20
5.1181102
41
0.0098425
42
0.0098425
43
0.0098425
50
0.0000000
0
INSERT
8
Bottom
2
UNIT_DISC
10
4.8818898
20
5.1181102
41
0.0098425
42
0.0098425
43
0.0098425
50
0.0000000
0
POLYLINE
8
Bottom
6
CONTINUOUS
66
1
70
0
40
0.0098425
41
0.0098425
0
VERTEX
8
Bottom
10
5.0787402
20
5.1181102
42
0.0000000
0
VERTEX
8
Bottom
10
4.8818898
20
5.1181102
42
0.0000000
0
SEQEND
0
TEXT
8
Bottom
10
3.9251969
20
7.1220472
40
0.1574803
1
˝Ú‡Ô 2
50
0.0
7
STANDARD
71
0
72
0
0
INSERT
8
Bottom
2
UNIT_DISC
10
6.6338583
20
5.5314961
41
0.0393701
42
0.0393701
43
0.0393701
50
0.0000000
0
INSERT
8
Bottom
2
UNIT_DISC
10
6.6338583
20
5.5708661
41
0.0393701
42
0.0393701
43
0.0393701
50
0.0000000
0
POLYLINE
8
Bottom
6
CONTINUOUS
66
1
70
0
40
0.0393701
41
0.0393701
0
VERTEX
8
Bottom
10
6.6338583
20
5.5314961
42
1.0000000
0
VERTEX
8
Bottom
10
6.6338583
20
5.5708661
42
1.0000000
0
SEQEND
0
INSERT
8
Bottom
2
UNIT_DISC
10
6.6338583
20
5.5708661
41
0.0393701
42
0.0393701
43
0.0393701
50
0.0000000
0
INSERT
8
Bottom
2
UNIT_DISC
10
6.6338583
20
5.5314961
41
0.0393701
42
0.0393701
43
0.0393701
50
0.0000000
0
POLYLINE
8
Bottom
6
CONTINUOUS
66
1
70
0
40
0.0393701
41
0.0393701
0
VERTEX
8
Bottom
10
6.6338583
20
5.5708661
42
1.0000000
0
VERTEX
8
Bottom
10
6.6338583
20
5.5314961
42
1.0000000
0
SEQEND
0
INSERT
8
Bottom
2
UNIT_DISC
10
5.0393701
20
5.5314961
41
0.0393701
42
0.0393701
43
0.0393701
50
0.0000000
0
INSERT
8
Bottom
2
UNIT_DISC
10
5.0393701
20
5.5708661
41
0.0393701
42
0.0393701
43
0.0393701
50
0.0000000
0
POLYLINE
8
Bottom
6
CONTINUOUS
66
1
70
0
40
0.0393701
41
0.0393701
0
VERTEX
8
Bottom
10
5.0393701
20
5.5314961
42
1.0000000
0
VERTEX
8
Bottom
10
5.0393701
20
5.5708661
42
1.0000000
0
SEQEND
0
INSERT
8
Bottom
2
UNIT_DISC
10
6.1023622
20
6.5354331
41
0.0098425
42
0.0098425
43
0.0098425
50
0.0000000
0
INSERT
8
Bottom
2
UNIT_DISC
10
6.1023622
20
6.4566929
41
0.0098425
42
0.0098425
43
0.0098425
50
0.0000000
0
POLYLINE
8
Bottom
6
CONTINUOUS
66
1
70
0
40
0.0098425
41
0.0098425
0
VERTEX
8
Bottom
10
6.1023622
20
6.5354331
42
0.0000000
0
VERTEX
8
Bottom
10
6.1023622
20
6.4566929
42
0.0000000
0
SEQEND
0
INSERT
8
Bottom
2
UNIT_DISC
10
6.2992126
20
6.6929134
41
0.0098425
42
0.0098425
43
0.0098425
50
0.0000000
0
INSERT
8
Bottom
2
UNIT_DISC
10
6.1023622
20
6.6929134
41
0.0098425
42
0.0098425
43
0.0098425
50
0.0000000
0
POLYLINE
8
Bottom
6
CONTINUOUS
66
1
70
0
40
0.0098425
41
0.0098425
0
VERTEX
8
Bottom
10
6.2992126
20
6.6929134
42
0.0000000
0
VERTEX
8
Bottom
10
6.1023622
20
6.6929134
42
0.0000000
0
SEQEND
0
INSERT
8
Bottom
2
UNIT_DISC
10
6.2992126
20
6.6141732
41
0.0098425
42
0.0098425
43
0.0098425
50
0.0000000
0
INSERT
8
Bottom
2
UNIT_DISC
10
6.2992126
20
6.6929134
41
0.0098425
42
0.0098425
43
0.0098425
50
0.0000000
0
POLYLINE
8
Bottom
6
CONTINUOUS
66
1
70
0
40
0.0098425
41
0.0098425
0
VERTEX
8
Bottom
10
6.2992126
20
6.6141732
42
0.0000000
0
VERTEX
8
Bottom
10
6.2992126
20
6.6929134
42
0.0000000
0
SEQEND
0
INSERT
8
Bottom
2
UNIT_DISC
10
6.1023622
20
6.6141732
41
0.0098425
42
0.0098425
43
0.0098425
50
0.0000000
0
INSERT
8
Bottom
2
UNIT_DISC
10
6.2992126
20
6.6141732
41
0.0098425
42
0.0098425
43
0.0098425
50
0.0000000
0
POLYLINE
8
Bottom
6
CONTINUOUS
66
1
70
0
40
0.0098425
41
0.0098425
0
VERTEX
8
Bottom
10
6.1023622
20
6.6141732
42
0.0000000
0
VERTEX
8
Bottom
10
6.2992126
20
6.6141732
42
0.0000000
0
SEQEND
0
INSERT
8
Bottom
2
UNIT_DISC
10
6.1023622
20
6.6929134
41
0.0098425
42
0.0098425
43
0.0098425
50
0.0000000
0
INSERT
8
Bottom
2
UNIT_DISC
10
6.1023622
20
6.6141732
41
0.0098425
42
0.0098425
43
0.0098425
50
0.0000000
0
POLYLINE
8
Bottom
6
CONTINUOUS
66
1
70
0
40
0.0098425
41
0.0098425
0
VERTEX
8
Bottom
10
6.1023622
20
6.6929134
42
0.0000000
0
VERTEX
8
Bottom
10
6.1023622
20
6.6141732
42
0.0000000
0
SEQEND
0
INSERT
8
Bottom
2
UNIT_DISC
10
5.5118110
20
6.2598425
41
0.0098425
42
0.0098425
43
0.0098425
50
0.0000000
0
INSERT
8
Bottom
2
UNIT_DISC
10
6.0629921
20
6.2598425
41
0.0098425
42
0.0098425
43
0.0098425
50
0.0000000
0
POLYLINE
8
Bottom
6
CONTINUOUS
66
1
70
0
40
0.0098425
41
0.0098425
0
VERTEX
8
Bottom
10
5.5118110
20
6.2598425
42
0.0000000
0
VERTEX
8
Bottom
10
6.0629921
20
6.2598425
42
0.0000000
0
SEQEND
0
INSERT
8
Bottom
2
UNIT_DISC
10
6.0629921
20
6.9685039
41
0.0098425
42
0.0098425
43
0.0098425
50
0.0000000
0
INSERT
8
Bottom
2
UNIT_DISC
10
5.5118110
20
6.9685039
41
0.0098425
42
0.0098425
43
0.0098425
50
0.0000000
0
POLYLINE
8
Bottom
6
CONTINUOUS
66
1
70
0
40
0.0098425
41
0.0098425
0
VERTEX
8
Bottom
10
6.0629921
20
6.9685039
42
0.0000000
0
VERTEX
8
Bottom
10
5.5118110
20
6.9685039
42
0.0000000
0
SEQEND
0
INSERT
8
Bottom
2
UNIT_DISC
10
6.0629921
20
6.2598425
41
0.0098425
42
0.0098425
43
0.0098425
50
0.0000000
0
INSERT
8
Bottom
2
UNIT_DISC
10
6.0629921
20
6.9685039
41
0.0098425
42
0.0098425
43
0.0098425
50
0.0000000
0
POLYLINE
8
Bottom
6
CONTINUOUS
66
1
70
0
40
0.0098425
41
0.0098425
0
VERTEX
8
Bottom
10
6.0629921
20
6.2598425
42
0.0000000
0
VERTEX
8
Bottom
10
6.0629921
20
6.9685039
42
0.0000000
0
SEQEND
0
TEXT
8
Bottom
10
5.5511811
20
6.4566929
40
0.0472441
1
Õ¿“”–¿
50
0.0
7
STANDARD
71
0
72
0
0
TEXT
8
Bottom
10
5.5511811
20
6.2992126
40
0.0472441
1
“≈Ãœ≈–¿“”–¿
50
0.0
7
STANDARD
71
0
72
0
0
TEXT
8
Bottom
10
5.5511811
20
6.6141732
40
0.0472441
1
¬À¿∆ÕŒ—“‹
50
0.0
7
STANDARD
71
0
72
0
0
TEXT
8
Bottom
10
5.5511811
20
6.7716535
40
0.0472441
1
–¿—’Œƒ «≈–Õ¿
50
0.0
7
STANDARD
71
0
72
0
0
INSERT
8
Bottom
2
UNIT_DISC
10
5.5118110
20
6.9685039
41
0.0098425
42
0.0098425
43
0.0098425
50
0.0000000
0
INSERT
8
Bottom
2
UNIT_DISC
10
5.5118110
20
6.2598425
41
0.0098425
42
0.0098425
43
0.0098425
50
0.0000000
0
POLYLINE
8
Bottom
6
CONTINUOUS
66
1
70
0
40
0.0098425
41
0.0098425
0
VERTEX
8
Bottom
10
5.5118110
20
6.9685039
42
0.0000000
0
VERTEX
8
Bottom
10
5.5118110
20
6.2598425
42
0.0000000
0
SEQEND
0
INSERT
8
Bottom
2
UNIT_DISC
10
5.1574803
20
5.3149606
41
0.0157480
42
0.0157480
43
0.0157480
50
0.0000000
0
INSERT
8
Bottom
2
UNIT_DISC
10
5.1574803
20
5.6299213
41
0.0157480
42
0.0157480
43
0.0157480
50
0.0000000
0
POLYLINE
8
Bottom
6
CONTINUOUS
66
1
70
0
40
0.0157480
41
0.0157480
0
VERTEX
8
Bottom
10
5.1574803
20
5.3149606
42
0.0000000
0
VERTEX
8
Bottom
10
5.1574803
20
5.6299213
42
0.0000000
0
SEQEND
0
TEXT
8
Bottom
10
5.1181102
20
5.0393701
40
0.0629921
1
%
50
0.0
7
STANDARD
71
0
72
0
0
INSERT
8
Bottom
2
UNIT_DISC
10
5.0787402
20
5.0393701
41
0.0098425
42
0.0098425
43
0.0098425
50
0.0000000
0
INSERT
8
Bottom
2
UNIT_DISC
10
5.0787402
20
5.1181102
41
0.0098425
42
0.0098425
43
0.0098425
50
0.0000000
0
POLYLINE
8
Bottom
6
CONTINUOUS
66
1
70
0
40
0.0098425
41
0.0098425
0
VERTEX
8
Bottom
10
5.0787402
20
5.0393701
42
0.0000000
0
VERTEX
8
Bottom
10
5.0787402
20
5.1181102
42
0.0000000
0
SEQEND
0
INSERT
8
Bottom
2
UNIT_DISC
10
6.1023622
20
6.4566929
41
0.0098425
42
0.0098425
43
0.0098425
50
0.0000000
0
INSERT
8
Bottom
2
UNIT_DISC
10
6.2992126
20
6.4566929
41
0.0098425
42
0.0098425
43
0.0098425
50
0.0000000
0
POLYLINE
8
Bottom
6
CONTINUOUS
66
1
70
0
40
0.0098425
41
0.0098425
0
VERTEX
8
Bottom
10
6.1023622
20
6.4566929
42
0.0000000
0
VERTEX
8
Bottom
10
6.2992126
20
6.4566929
42
0.0000000
0
SEQEND
0
INSERT
8
Bottom
2
UNIT_DISC
10
6.2992126
20
6.4566929
41
0.0098425
42
0.0098425
43
0.0098425
50
0.0000000
0
INSERT
8
Bottom
2
UNIT_DISC
10
6.2992126
20
6.5354331
41
0.0098425
42
0.0098425
43
0.0098425
50
0.0000000
0
POLYLINE
8
Bottom
6
CONTINUOUS
66
1
70
0
40
0.0098425
41
0.0098425
0
VERTEX
8
Bottom
10
6.2992126
20
6.4566929
42
0.0000000
0
VERTEX
8
Bottom
10
6.2992126
20
6.5354331
42
0.0000000
0
SEQEND
0
INSERT
8
Bottom
2
UNIT_DISC
10
6.2992126
20
6.5354331
41
0.0098425
42
0.0098425
43
0.0098425
50
0.0000000
0
INSERT
8
Bottom
2
UNIT_DISC
10
6.1023622
20
6.5354331
41
0.0098425
42
0.0098425
43
0.0098425
50
0.0000000
0
POLYLINE
8
Bottom
6
CONTINUOUS
66
1
70
0
40
0.0098425
41
0.0098425
0
VERTEX
8
Bottom
10
6.2992126
20
6.5354331
42
0.0000000
0
VERTEX
8
Bottom
10
6.1023622
20
6.5354331
42
0.0000000
0
SEQEND
0
INSERT
8
Bottom
2
UNIT_DISC
10
6.1023622
20
6.3779528
41
0.0098425
42
0.0098425
43
0.0098425
50
0.0000000
0
INSERT
8
Bottom
2
UNIT_DISC
10
6.1023622
20
6.2992126
41
0.0098425
42
0.0098425
43
0.0098425
50
0.0000000
0
POLYLINE
8
Bottom
6
CONTINUOUS
66
1
70
0
40
0.0098425
41
0.0098425
0
VERTEX
8
Bottom
10
6.1023622
20
6.3779528
42
0.0000000
0
VERTEX
8
Bottom
10
6.1023622
20
6.2992126
42
0.0000000
0
SEQEND
0
INSERT
8
Bottom
2
UNIT_DISC
10
6.1023622
20
6.2992126
41
0.0098425
42
0.0098425
43
0.0098425
50
0.0000000
0
INSERT
8
Bottom
2
UNIT_DISC
10
6.2992126
20
6.2992126
41
0.0098425
42
0.0098425
43
0.0098425
50
0.0000000
0
POLYLINE
8
Bottom
6
CONTINUOUS
66
1
70
0
40
0.0098425
41
0.0098425
0
VERTEX
8
Bottom
10
6.1023622
20
6.2992126
42
0.0000000
0
VERTEX
8
Bottom
10
6.2992126
20
6.2992126
42
0.0000000
0
SEQEND
0
INSERT
8
Bottom
2
UNIT_DISC
10
6.2992126
20
6.2992126
41
0.0098425
42
0.0098425
43
0.0098425
50
0.0000000
0
INSERT
8
Bottom
2
UNIT_DISC
10
6.2992126
20
6.3779528
41
0.0098425
42
0.0098425
43
0.0098425
50
0.0000000
0
POLYLINE
8
Bottom
6
CONTINUOUS
66
1
70
0
40
0.0098425
41
0.0098425
0
VERTEX
8
Bottom
10
6.2992126
20
6.2992126
42
0.0000000
0
VERTEX
8
Bottom
10
6.2992126
20
6.3779528
42
0.0000000
0
SEQEND
0
INSERT
8
Bottom
2
UNIT_DISC
10
6.2992126
20
6.3779528
41
0.0098425
42
0.0098425
43
0.0098425
50
0.0000000
0
INSERT
8
Bottom
2
UNIT_DISC
10
6.1023622
20
6.3779528
41
0.0098425
42
0.0098425
43
0.0098425
50
0.0000000
0
POLYLINE
8
Bottom
6
CONTINUOUS
66
1
70
0
40
0.0098425
41
0.0098425
0
VERTEX
8
Bottom
10
6.2992126
20
6.3779528
42
0.0000000
0
VERTEX
8
Bottom
10
6.1023622
20
6.3779528
42
0.0000000
0
SEQEND
0
INSERT
8
Bottom
2
UNIT_DISC
10
6.1023622
20
6.8503937
41
0.0098425
42
0.0098425
43
0.0098425
50
0.0000000
0
INSERT
8
Bottom
2
UNIT_DISC
10
6.1023622
20
6.7716535
41
0.0098425
42
0.0098425
43
0.0098425
50
0.0000000
0
POLYLINE
8
Bottom
6
CONTINUOUS
66
1
70
0
40
0.0098425
41
0.0098425
0
VERTEX
8
Bottom
10
6.1023622
20
6.8503937
42
0.0000000
0
VERTEX
8
Bottom
10
6.1023622
20
6.7716535
42
0.0000000
0
SEQEND
0
INSERT
8
Bottom
2
UNIT_DISC
10
6.1023622
20
6.7716535
41
0.0098425
42
0.0098425
43
0.0098425
50
0.0000000
0
INSERT
8
Bottom
2
UNIT_DISC
10
6.2598425
20
6.7716535
41
0.0098425
42
0.0098425
43
0.0098425
50
0.0000000
0
POLYLINE
8
Bottom
6
CONTINUOUS
66
1
70
0
40
0.0098425
41
0.0098425
0
VERTEX
8
Bottom
10
6.1023622
20
6.7716535
42
0.0000000
0
VERTEX
8
Bottom
10
6.2598425
20
6.7716535
42
0.0000000
0
SEQEND
0
INSERT
8
Bottom
2
UNIT_DISC
10
6.2598425
20
6.7716535
41
0.0098425
42
0.0098425
43
0.0098425
50
0.0000000
0
INSERT
8
Bottom
2
UNIT_DISC
10
6.2992126
20
6.7716535
41
0.0098425
42
0.0098425
43
0.0098425
50
0.0000000
0
POLYLINE
8
Bottom
6
CONTINUOUS
66
1
70
0
40
0.0098425
41
0.0098425
0
VERTEX
8
Bottom
10
6.2598425
20
6.7716535
42
0.0000000
0
VERTEX
8
Bottom
10
6.2992126
20
6.7716535
42
0.0000000
0
SEQEND
0
INSERT
8
Bottom
2
UNIT_DISC
10
6.2992126
20
6.7716535
41
0.0098425
42
0.0098425
43
0.0098425
50
0.0000000
0
INSERT
8
Bottom
2
UNIT_DISC
10
6.2992126
20
6.8503937
41
0.0098425
42
0.0098425
43
0.0098425
50
0.0000000
0
POLYLINE
8
Bottom
6
CONTINUOUS
66
1
70
0
40
0.0098425
41
0.0098425
0
VERTEX
8
Bottom
10
6.2992126
20
6.7716535
42
0.0000000
0
VERTEX
8
Bottom
10
6.2992126
20
6.8503937
42
0.0000000
0
SEQEND
0
INSERT
8
Bottom
2
UNIT_DISC
10
6.2992126
20
6.8503937
41
0.0098425
42
0.0098425
43
0.0098425
50
0.0000000
0
INSERT
8
Bottom
2
UNIT_DISC
10
6.1023622
20
6.8503937
41
0.0098425
42
0.0098425
43
0.0098425
50
0.0000000
0
POLYLINE
8
Bottom
6
CONTINUOUS
66
1
70
0
40
0.0098425
41
0.0098425
0
VERTEX
8
Bottom
10
6.2992126
20
6.8503937
42
0.0000000
0
VERTEX
8
Bottom
10
6.1023622
20
6.8503937
42
0.0000000
0
SEQEND
0
TEXT
8
Bottom
10
6.3385827
20
6.7716535
40
0.0629921
1
“/◊
50
0.0
7
STANDARD
71
0
72
0
0
TEXT
8
Bottom
10
6.3385827
20
6.6141732
40
0.0629921
1
%
50
0.0
7
STANDARD
71
0
72
0
0
TEXT
8
Bottom
10
6.3385827
20
6.4566929
40
0.0629921
1
„/Î
50
0.0
7
STANDARD
71
0
72
0
0
TEXT
8
Bottom
10
6.3976378
20
6.2952756
40
0.0629921
1
—
50
0.0
7
STANDARD
71
0
72
0
0
INSERT
8
Bottom
2
UNIT_DISC
10
6.3661417
20
6.3818898
41
0.0098425
42
0.0098425
43
0.0098425
50
0.0000000
0
INSERT
8
Bottom
2
UNIT_DISC
10
6.3661417
20
6.3582677
41
0.0098425
42
0.0098425
43
0.0098425
50
0.0000000
0
POLYLINE
8
Bottom
6
CONTINUOUS
66
1
70
0
40
0.0098425
41
0.0098425
0
VERTEX
8
Bottom
10
6.3661417
20
6.3818898
42
1.0000000
0
VERTEX
8
Bottom
10
6.3661417
20
6.3582677
42
1.0000000
0
SEQEND
0
INSERT
8
Bottom
2
UNIT_DISC
10
6.3661417
20
6.3582677
41
0.0098425
42
0.0098425
43
0.0098425
50
0.0000000
0
INSERT
8
Bottom
2
UNIT_DISC
10
6.3661417
20
6.3818898
41
0.0098425
42
0.0098425
43
0.0098425
50
0.0000000
0
POLYLINE
8
Bottom
6
CONTINUOUS
66
1
70
0
40
0.0098425
41
0.0098425
0
VERTEX
8
Bottom
10
6.3661417
20
6.3582677
42
1.0000000
0
VERTEX
8
Bottom
10
6.3661417
20
6.3818898
42
1.0000000
0
SEQEND
0
TEXT
8
Bottom
10
5.6299213
20
6.8503937
40
0.0629921
1
ƒ¿“◊» 
50
0.0
7
STANDARD
71
0
72
0
0
INSERT
8
Bottom
2
UNIT_DISC
10
5.5118110
20
5.6299213
41
0.0157480
42
0.0157480
43
0.0157480
50
0.0000000
0
INSERT
8
Bottom
2
UNIT_DISC
10
5.5118110
20
5.3149606
41
0.0157480
42
0.0157480
43
0.0157480
50
0.0000000
0
POLYLINE
8
Bottom
6
CONTINUOUS
66
1
70
0
40
0.0157480
41
0.0157480
0
VERTEX
8
Bottom
10
5.5118110
20
5.6299213
42
0.0000000
0
VERTEX
8
Bottom
10
5.5118110
20
5.3149606
42
0.0000000
0
SEQEND
0
INSERT
8
Bottom
2
UNIT_DISC
10
5.5118110
20
5.3149606
41
0.0157480
42
0.0157480
43
0.0157480
50
0.0000000
0
INSERT
8
Bottom
2
UNIT_DISC
10
6.7322835
20
5.3149606
41
0.0157480
42
0.0157480
43
0.0157480
50
0.0000000
0
POLYLINE
8
Bottom
6
CONTINUOUS
66
1
70
0
40
0.0157480
41
0.0157480
0
VERTEX
8
Bottom
10
5.5118110
20
5.3149606
42
0.0000000
0
VERTEX
8
Bottom
10
6.7322835
20
5.3149606
42
0.0000000
0
SEQEND
0
INSERT
8
Bottom
2
UNIT_DISC
10
6.7322835
20
5.3149606
41
0.0157480
42
0.0157480
43
0.0157480
50
0.0000000
0
INSERT
8
Bottom
2
UNIT_DISC
10
6.7322835
20
5.6299213
41
0.0157480
42
0.0157480
43
0.0157480
50
0.0000000
0
POLYLINE
8
Bottom
6
CONTINUOUS
66
1
70
0
40
0.0157480
41
0.0157480
0
VERTEX
8
Bottom
10
6.7322835
20
5.3149606
42
0.0000000
0
VERTEX
8
Bottom
10
6.7322835
20
5.6299213
42
0.0000000
0
SEQEND
0
INSERT
8
Bottom
2
UNIT_DISC
10
6.7322835
20
5.6299213
41
0.0157480
42
0.0157480
43
0.0157480
50
0.0000000
0
INSERT
8
Bottom
2
UNIT_DISC
10
5.5118110
20
5.6299213
41
0.0157480
42
0.0157480
43
0.0157480
50
0.0000000
0
POLYLINE
8
Bottom
6
CONTINUOUS
66
1
70
0
40
0.0157480
41
0.0157480
0
VERTEX
8
Bottom
10
6.7322835
20
5.6299213
42
0.0000000
0
VERTEX
8
Bottom
10
5.5118110
20
5.6299213
42
0.0000000
0
SEQEND
0
TEXT
8
Bottom
10
5.7086614
20
5.3937008
40
0.0944882
1
¡ÿ”
50
0.0
7
STANDARD
71
0
72
0
0
TEXT
8
Bottom
10
5.5118110
20
5.1574803
40
0.0629921
1
«¿ƒ¿ÕÕ¿ﬂ ¬À¿∆ÕŒ—“‹ «≈–Õ¿
50
0.0
7
STANDARD
71
0
72
0
0
INSERT
8
Bottom
2
UNIT_DISC
10
6.5354331
20
5.1181102
41
0.0098425
42
0.0098425
43
0.0098425
50
0.0000000
0
INSERT
8
Bottom
2
UNIT_DISC
10
6.3385827
20
5.1181102
41
0.0098425
42
0.0098425
43
0.0098425
50
0.0000000
0
POLYLINE
8
Bottom
6
CONTINUOUS
66
1
70
0
40
0.0098425
41
0.0098425
0
VERTEX
8
Bottom
10
6.5354331
20
5.1181102
42
0.0000000
0
VERTEX
8
Bottom
10
6.3385827
20
5.1181102
42
0.0000000
0
SEQEND
0
INSERT
8
Bottom
2
UNIT_DISC
10
6.3385827
20
5.1181102
41
0.0098425
42
0.0098425
43
0.0098425
50
0.0000000
0
INSERT
8
Bottom
2
UNIT_DISC
10
6.3385827
20
5.0393701
41
0.0098425
42
0.0098425
43
0.0098425
50
0.0000000
0
POLYLINE
8
Bottom
6
CONTINUOUS
66
1
70
0
40
0.0098425
41
0.0098425
0
VERTEX
8
Bottom
10
6.3385827
20
5.1181102
42
0.0000000
0
VERTEX
8
Bottom
10
6.3385827
20
5.0393701
42
0.0000000
0
SEQEND
0
INSERT
8
Bottom
2
UNIT_DISC
10
6.3385827
20
5.0393701
41
0.0098425
42
0.0098425
43
0.0098425
50
0.0000000
0
INSERT
8
Bottom
2
UNIT_DISC
10
6.5354331
20
5.0393701
41
0.0098425
42
0.0098425
43
0.0098425
50
0.0000000
0
POLYLINE
8
Bottom
6
CONTINUOUS
66
1
70
0
40
0.0098425
41
0.0098425
0
VERTEX
8
Bottom
10
6.3385827
20
5.0393701
42
0.0000000
0
VERTEX
8
Bottom
10
6.5354331
20
5.0393701
42
0.0000000
0
SEQEND
0
INSERT
8
Bottom
2
UNIT_DISC
10
6.5354331
20
5.0393701
41
0.0098425
42
0.0098425
43
0.0098425
50
0.0000000
0
INSERT
8
Bottom
2
UNIT_DISC
10
6.5354331
20
5.1181102
41
0.0098425
42
0.0098425
43
0.0098425
50
0.0000000
0
POLYLINE
8
Bottom
6
CONTINUOUS
66
1
70
0
40
0.0098425
41
0.0098425
0
VERTEX
8
Bottom
10
6.5354331
20
5.0393701
42
0.0000000
0
VERTEX
8
Bottom
10
6.5354331
20
5.1181102
42
0.0000000
0
SEQEND
0
TEXT
8
Bottom
10
6.5748031
20
5.0393701
40
0.0629921
1
%
50
0.0
7
STANDARD
71
0
72
0
0
INSERT
8
Bottom
2
UNIT_DISC
10
7.0472441
20
6.9685039
41
0.0098425
42
0.0098425
43
0.0098425
50
0.0000000
0
INSERT
8
Bottom
2
UNIT_DISC
10
7.0472441
20
6.2598425
41
0.0098425
42
0.0098425
43
0.0098425
50
0.0000000
0
POLYLINE
8
Bottom
6
CONTINUOUS
66
1
70
0
40
0.0098425
41
0.0098425
0
VERTEX
8
Bottom
10
7.0472441
20
6.9685039
42
0.0000000
0
VERTEX
8
Bottom
10
7.0472441
20
6.2598425
42
0.0000000
0
SEQEND
0
TEXT
8
Bottom
10
7.0866142
20
6.7716535
40
0.0472441
1
–¿—’Œƒ «≈–Õ¿
50
0.0
7
STANDARD
71
0
72
0
0
TEXT
8
Bottom
10
7.0866142
20
6.6141732
40
0.0472441
1
¬À¿∆ÕŒ—“‹
50
0.0
7
STANDARD
71
0
72
0
0
TEXT
8
Bottom
10
7.0866142
20
6.2992126
40
0.0472441
1
“≈Ãœ≈–¿“”–¿
50
0.0
7
STANDARD
71
0
72
0
0
TEXT
8
Bottom
10
7.0866142
20
6.4566929
40
0.0472441
1
Õ¿“”–¿
50
0.0
7
STANDARD
71
0
72
0
0
INSERT
8
Bottom
2
UNIT_DISC
10
7.5984252
20
6.9685039
41
0.0098425
42
0.0098425
43
0.0098425
50
0.0000000
0
INSERT
8
Bottom
2
UNIT_DISC
10
7.0472441
20
6.9685039
41
0.0098425
42
0.0098425
43
0.0098425
50
0.0000000
0
POLYLINE
8
Bottom
6
CONTINUOUS
66
1
70
0
40
0.0098425
41
0.0098425
0
VERTEX
8
Bottom
10
7.5984252
20
6.9685039
42
0.0000000
0
VERTEX
8
Bottom
10
7.0472441
20
6.9685039
42
0.0000000
0
SEQEND
0
INSERT
8
Bottom
2
UNIT_DISC
10
7.0472441
20
6.2598425
41
0.0098425
42
0.0098425
43
0.0098425
50
0.0000000
0
INSERT
8
Bottom
2
UNIT_DISC
10
7.5984252
20
6.2598425
41
0.0098425
42
0.0098425
43
0.0098425
50
0.0000000
0
POLYLINE
8
Bottom
6
CONTINUOUS
66
1
70
0
40
0.0098425
41
0.0098425
0
VERTEX
8
Bottom
10
7.0472441
20
6.2598425
42
0.0000000
0
VERTEX
8
Bottom
10
7.5984252
20
6.2598425
42
0.0000000
0
SEQEND
0
TEXT
8
Bottom
10
7.1653543
20
6.8503937
40
0.0629921
1
ƒ¿“◊» 
50
0.0
7
STANDARD
71
0
72
0
0
INSERT
8
Bottom
2
UNIT_DISC
10
7.0472441
20
5.6299213
41
0.0157480
42
0.0157480
43
0.0157480
50
0.0000000
0
INSERT
8
Bottom
2
UNIT_DISC
10
7.0472441
20
5.3149606
41
0.0157480
42
0.0157480
43
0.0157480
50
0.0000000
0
POLYLINE
8
Bottom
6
CONTINUOUS
66
1
70
0
40
0.0157480
41
0.0157480
0
VERTEX
8
Bottom
10
7.0472441
20
5.6299213
42
0.0000000
0
VERTEX
8
Bottom
10
7.0472441
20
5.3149606
42
0.0000000
0
SEQEND
0
INSERT
8
Bottom
2
UNIT_DISC
10
7.0472441
20
5.3149606
41
0.0157480
42
0.0157480
43
0.0157480
50
0.0000000
0
INSERT
8
Bottom
2
UNIT_DISC
10
8.2677165
20
5.3149606
41
0.0157480
42
0.0157480
43
0.0157480
50
0.0000000
0
POLYLINE
8
Bottom
6
CONTINUOUS
66
1
70
0
40
0.0157480
41
0.0157480
0
VERTEX
8
Bottom
10
7.0472441
20
5.3149606
42
0.0000000
0
VERTEX
8
Bottom
10
8.2677165
20
5.3149606
42
0.0000000
0
SEQEND
0
INSERT
8
Bottom
2
UNIT_DISC
10
8.2677165
20
5.6299213
41
0.0157480
42
0.0157480
43
0.0157480
50
0.0000000
0
INSERT
8
Bottom
2
UNIT_DISC
10
7.0472441
20
5.6299213
41
0.0157480
42
0.0157480
43
0.0157480
50
0.0000000
0
POLYLINE
8
Bottom
6
CONTINUOUS
66
1
70
0
40
0.0157480
41
0.0157480
0
VERTEX
8
Bottom
10
8.2677165
20
5.6299213
42
0.0000000
0
VERTEX
8
Bottom
10
7.0472441
20
5.6299213
42
0.0000000
0
SEQEND
0
INSERT
8
Bottom
2
UNIT_DISC
10
5.0393701
20
5.5708661
41
0.0393701
42
0.0393701
43
0.0393701
50
0.0000000
0
INSERT
8
Bottom
2
UNIT_DISC
10
5.0393701
20
5.5314961
41
0.0393701
42
0.0393701
43
0.0393701
50
0.0000000
0
POLYLINE
8
Bottom
6
CONTINUOUS
66
1
70
0
40
0.0393701
41
0.0393701
0
VERTEX
8
Bottom
10
5.0393701
20
5.5708661
42
1.0000000
0
VERTEX
8
Bottom
10
5.0393701
20
5.5314961
42
1.0000000
0
SEQEND
0
INSERT
8
Bottom
2
UNIT_DISC
10
7.1653543
20
5.8661417
41
0.0393701
42
0.0393701
43
0.0393701
50
0.0000000
0
INSERT
8
Bottom
2
UNIT_DISC
10
7.1653543
20
5.9055118
41
0.0393701
42
0.0393701
43
0.0393701
50
0.0000000
0
POLYLINE
8
Bottom
6
CONTINUOUS
66
1
70
0
40
0.0393701
41
0.0393701
0
VERTEX
8
Bottom
10
7.1653543
20
5.8661417
42
1.0000000
0
VERTEX
8
Bottom
10
7.1653543
20
5.9055118
42
1.0000000
0
SEQEND
0
INSERT
8
Bottom
2
UNIT_DISC
10
7.1653543
20
5.9055118
41
0.0393701
42
0.0393701
43
0.0393701
50
0.0000000
0
INSERT
8
Bottom
2
UNIT_DISC
10
7.1653543
20
5.8661417
41
0.0393701
42
0.0393701
43
0.0393701
50
0.0000000
0
POLYLINE
8
Bottom
6
CONTINUOUS
66
1
70
0
40
0.0393701
41
0.0393701
0
VERTEX
8
Bottom
10
7.1653543
20
5.9055118
42
1.0000000
0
VERTEX
8
Bottom
10
7.1653543
20
5.8661417
42
1.0000000
0
SEQEND
0
INSERT
8
Bottom
2
UNIT_DISC
10
5.6299213
20
5.8267717
41
0.0393701
42
0.0393701
43
0.0393701
50
0.0000000
0
INSERT
8
Bottom
2
UNIT_DISC
10
5.6299213
20
5.8661417
41
0.0393701
42
0.0393701
43
0.0393701
50
0.0000000
0
POLYLINE
8
Bottom
6
CONTINUOUS
66
1
70
0
40
0.0393701
41
0.0393701
0
VERTEX
8
Bottom
10
5.6299213
20
5.8267717
42
1.0000000
0
VERTEX
8
Bottom
10
5.6299213
20
5.8661417
42
1.0000000
0
SEQEND
0
INSERT
8
Bottom
2
UNIT_DISC
10
5.6299213
20
5.8661417
41
0.0393701
42
0.0393701
43
0.0393701
50
0.0000000
0
INSERT
8
Bottom
2
UNIT_DISC
10
5.6299213
20
5.8267717
41
0.0393701
42
0.0393701
43
0.0393701
50
0.0000000
0
POLYLINE
8
Bottom
6
CONTINUOUS
66
1
70
0
40
0.0393701
41
0.0393701
0
VERTEX
8
Bottom
10
5.6299213
20
5.8661417
42
1.0000000
0
VERTEX
8
Bottom
10
5.6299213
20
5.8267717
42
1.0000000
0
SEQEND
0
TEXT
8
Bottom
10
7.0157480
20
7.1220472
40
0.1574803
1
˝Ú‡Ô 4
50
0.0
7
STANDARD
71
0
72
0
0
TEXT
8
Bottom
10
5.5196850
20
7.1220472
40
0.1574803
1
˝Ú‡Ô 3
50
0.0
7
STANDARD
71
0
72
0
0
TEXT
8
Bottom
10
7.0472441
20
5.1574803
40
0.0629921
1
«¿ƒ¿ÕÕ¿ﬂ ¬À¿∆ÕŒ—“‹ «≈–Õ¿
50
0.0
7
STANDARD
71
0
72
0
0
TEXT
8
Bottom
10
7.2440945
20
5.3937008
40
0.0944882
1
¡ÿ”
50
0.0
7
STANDARD
71
0
72
0
0
INSERT
8
Bottom
2
UNIT_DISC
10
7.8346457
20
6.6929134
41
0.0098425
42
0.0098425
43
0.0098425
50
0.0000000
0
INSERT
8
Bottom
2
UNIT_DISC
10
7.6377953
20
6.6929134
41
0.0098425
42
0.0098425
43
0.0098425
50
0.0000000
0
POLYLINE
8
Bottom
6
CONTINUOUS
66
1
70
0
40
0.0098425
41
0.0098425
0
VERTEX
8
Bottom
10
7.8346457
20
6.6929134
42
0.0000000
0
VERTEX
8
Bottom
10
7.6377953
20
6.6929134
42
0.0000000
0
SEQEND
0
INSERT
8
Bottom
2
UNIT_DISC
10
7.6377953
20
6.5354331
41
0.0098425
42
0.0098425
43
0.0098425
50
0.0000000
0
INSERT
8
Bottom
2
UNIT_DISC
10
7.6377953
20
6.4566929
41
0.0098425
42
0.0098425
43
0.0098425
50
0.0000000
0
POLYLINE
8
Bottom
6
CONTINUOUS
66
1
70
0
40
0.0098425
41
0.0098425
0
VERTEX
8
Bottom
10
7.6377953
20
6.5354331
42
0.0000000
0
VERTEX
8
Bottom
10
7.6377953
20
6.4566929
42
0.0000000
0
SEQEND
0
INSERT
8
Bottom
2
UNIT_DISC
10
7.6377953
20
6.4566929
41
0.0098425
42
0.0098425
43
0.0098425
50
0.0000000
0
INSERT
8
Bottom
2
UNIT_DISC
10
7.8346457
20
6.4566929
41
0.0098425
42
0.0098425
43
0.0098425
50
0.0000000
0
POLYLINE
8
Bottom
6
CONTINUOUS
66
1
70
0
40
0.0098425
41
0.0098425
0
VERTEX
8
Bottom
10
7.6377953
20
6.4566929
42
0.0000000
0
VERTEX
8
Bottom
10
7.8346457
20
6.4566929
42
0.0000000
0
SEQEND
0
INSERT
8
Bottom
2
UNIT_DISC
10
7.8346457
20
6.4566929
41
0.0098425
42
0.0098425
43
0.0098425
50
0.0000000
0
INSERT
8
Bottom
2
UNIT_DISC
10
7.8346457
20
6.5354331
41
0.0098425
42
0.0098425
43
0.0098425
50
0.0000000
0
POLYLINE
8
Bottom
6
CONTINUOUS
66
1
70
0
40
0.0098425
41
0.0098425
0
VERTEX
8
Bottom
10
7.8346457
20
6.4566929
42
0.0000000
0
VERTEX
8
Bottom
10
7.8346457
20
6.5354331
42
0.0000000
0
SEQEND
0
INSERT
8
Bottom
2
UNIT_DISC
10
7.8346457
20
6.5354331
41
0.0098425
42
0.0098425
43
0.0098425
50
0.0000000
0
INSERT
8
Bottom
2
UNIT_DISC
10
7.6377953
20
6.5354331
41
0.0098425
42
0.0098425
43
0.0098425
50
0.0000000
0
POLYLINE
8
Bottom
6
CONTINUOUS
66
1
70
0
40
0.0098425
41
0.0098425
0
VERTEX
8
Bottom
10
7.8346457
20
6.5354331
42
0.0000000
0
VERTEX
8
Bottom
10
7.6377953
20
6.5354331
42
0.0000000
0
SEQEND
0
INSERT
8
Bottom
2
UNIT_DISC
10
7.6377953
20
6.3779528
41
0.0098425
42
0.0098425
43
0.0098425
50
0.0000000
0
INSERT
8
Bottom
2
UNIT_DISC
10
7.6377953
20
6.2992126
41
0.0098425
42
0.0098425
43
0.0098425
50
0.0000000
0
POLYLINE
8
Bottom
6
CONTINUOUS
66
1
70
0
40
0.0098425
41
0.0098425
0
VERTEX
8
Bottom
10
7.6377953
20
6.3779528
42
0.0000000
0
VERTEX
8
Bottom
10
7.6377953
20
6.2992126
42
0.0000000
0
SEQEND
0
INSERT
8
Bottom
2
UNIT_DISC
10
7.6377953
20
6.2992126
41
0.0098425
42
0.0098425
43
0.0098425
50
0.0000000
0
INSERT
8
Bottom
2
UNIT_DISC
10
7.8346457
20
6.2992126
41
0.0098425
42
0.0098425
43
0.0098425
50
0.0000000
0
POLYLINE
8
Bottom
6
CONTINUOUS
66
1
70
0
40
0.0098425
41
0.0098425
0
VERTEX
8
Bottom
10
7.6377953
20
6.2992126
42
0.0000000
0
VERTEX
8
Bottom
10
7.8346457
20
6.2992126
42
0.0000000
0
SEQEND
0
INSERT
8
Bottom
2
UNIT_DISC
10
7.8346457
20
6.2992126
41
0.0098425
42
0.0098425
43
0.0098425
50
0.0000000
0
INSERT
8
Bottom
2
UNIT_DISC
10
7.8346457
20
6.3779528
41
0.0098425
42
0.0098425
43
0.0098425
50
0.0000000
0
POLYLINE
8
Bottom
6
CONTINUOUS
66
1
70
0
40
0.0098425
41
0.0098425
0
VERTEX
8
Bottom
10
7.8346457
20
6.2992126
42
0.0000000
0
VERTEX
8
Bottom
10
7.8346457
20
6.3779528
42
0.0000000
0
SEQEND
0
INSERT
8
Bottom
2
UNIT_DISC
10
7.8346457
20
6.3779528
41
0.0098425
42
0.0098425
43
0.0098425
50
0.0000000
0
INSERT
8
Bottom
2
UNIT_DISC
10
7.6377953
20
6.3779528
41
0.0098425
42
0.0098425
43
0.0098425
50
0.0000000
0
POLYLINE
8
Bottom
6
CONTINUOUS
66
1
70
0
40
0.0098425
41
0.0098425
0
VERTEX
8
Bottom
10
7.8346457
20
6.3779528
42
0.0000000
0
VERTEX
8
Bottom
10
7.6377953
20
6.3779528
42
0.0000000
0
SEQEND
0
INSERT
8
Bottom
2
UNIT_DISC
10
7.6377953
20
6.8503937
41
0.0098425
42
0.0098425
43
0.0098425
50
0.0000000
0
INSERT
8
Bottom
2
UNIT_DISC
10
7.6377953
20
6.7716535
41
0.0098425
42
0.0098425
43
0.0098425
50
0.0000000
0
POLYLINE
8
Bottom
6
CONTINUOUS
66
1
70
0
40
0.0098425
41
0.0098425
0
VERTEX
8
Bottom
10
7.6377953
20
6.8503937
42
0.0000000
0
VERTEX
8
Bottom
10
7.6377953
20
6.7716535
42
0.0000000
0
SEQEND
0
INSERT
8
Bottom
2
UNIT_DISC
10
7.6377953
20
6.7716535
41
0.0098425
42
0.0098425
43
0.0098425
50
0.0000000
0
INSERT
8
Bottom
2
UNIT_DISC
10
7.7952756
20
6.7716535
41
0.0098425
42
0.0098425
43
0.0098425
50
0.0000000
0
POLYLINE
8
Bottom
6
CONTINUOUS
66
1
70
0
40
0.0098425
41
0.0098425
0
VERTEX
8
Bottom
10
7.6377953
20
6.7716535
42
0.0000000
0
VERTEX
8
Bottom
10
7.7952756
20
6.7716535
42
0.0000000
0
SEQEND
0
INSERT
8
Bottom
2
UNIT_DISC
10
7.7952756
20
6.7716535
41
0.0098425
42
0.0098425
43
0.0098425
50
0.0000000
0
INSERT
8
Bottom
2
UNIT_DISC
10
7.8346457
20
6.7716535
41
0.0098425
42
0.0098425
43
0.0098425
50
0.0000000
0
POLYLINE
8
Bottom
6
CONTINUOUS
66
1
70
0
40
0.0098425
41
0.0098425
0
VERTEX
8
Bottom
10
7.7952756
20
6.7716535
42
0.0000000
0
VERTEX
8
Bottom
10
7.8346457
20
6.7716535
42
0.0000000
0
SEQEND
0
INSERT
8
Bottom
2
UNIT_DISC
10
7.8346457
20
6.7716535
41
0.0098425
42
0.0098425
43
0.0098425
50
0.0000000
0
INSERT
8
Bottom
2
UNIT_DISC
10
7.8346457
20
6.8503937
41
0.0098425
42
0.0098425
43
0.0098425
50
0.0000000
0
POLYLINE
8
Bottom
6
CONTINUOUS
66
1
70
0
40
0.0098425
41
0.0098425
0
VERTEX
8
Bottom
10
7.8346457
20
6.7716535
42
0.0000000
0
VERTEX
8
Bottom
10
7.8346457
20
6.8503937
42
0.0000000
0
SEQEND
0
INSERT
8
Bottom
2
UNIT_DISC
10
7.8346457
20
6.8503937
41
0.0098425
42
0.0098425
43
0.0098425
50
0.0000000
0
INSERT
8
Bottom
2
UNIT_DISC
10
7.6377953
20
6.8503937
41
0.0098425
42
0.0098425
43
0.0098425
50
0.0000000
0
POLYLINE
8
Bottom
6
CONTINUOUS
66
1
70
0
40
0.0098425
41
0.0098425
0
VERTEX
8
Bottom
10
7.8346457
20
6.8503937
42
0.0000000
0
VERTEX
8
Bottom
10
7.6377953
20
6.8503937
42
0.0000000
0
SEQEND
0
TEXT
8
Bottom
10
7.8740157
20
6.7716535
40
0.0629921
1
“/◊
50
0.0
7
STANDARD
71
0
72
0
0
TEXT
8
Bottom
10
7.8740157
20
6.6141732
40
0.0629921
1
%
50
0.0
7
STANDARD
71
0
72
0
0
TEXT
8
Bottom
10
7.8740157
20
6.4566929
40
0.0629921
1
„/Î
50
0.0
7
STANDARD
71
0
72
0
0
TEXT
8
Bottom
10
7.9330709
20
6.2952756
40
0.0629921
1
—
50
0.0
7
STANDARD
71
0
72
0
0
INSERT
8
Bottom
2
UNIT_DISC
10
7.9015748
20
6.3818898
41
0.0098425
42
0.0098425
43
0.0098425
50
0.0000000
0
INSERT
8
Bottom
2
UNIT_DISC
10
7.9015748
20
6.3582677
41
0.0098425
42
0.0098425
43
0.0098425
50
0.0000000
0
POLYLINE
8
Bottom
6
CONTINUOUS
66
1
70
0
40
0.0098425
41
0.0098425
0
VERTEX
8
Bottom
10
7.9015748
20
6.3818898
42
1.0000000
0
VERTEX
8
Bottom
10
7.9015748
20
6.3582677
42
1.0000000
0
SEQEND
0
INSERT
8
Bottom
2
UNIT_DISC
10
7.9015748
20
6.3582677
41
0.0098425
42
0.0098425
43
0.0098425
50
0.0000000
0
INSERT
8
Bottom
2
UNIT_DISC
10
7.9015748
20
6.3818898
41
0.0098425
42
0.0098425
43
0.0098425
50
0.0000000
0
POLYLINE
8
Bottom
6
CONTINUOUS
66
1
70
0
40
0.0098425
41
0.0098425
0
VERTEX
8
Bottom
10
7.9015748
20
6.3582677
42
1.0000000
0
VERTEX
8
Bottom
10
7.9015748
20
6.3818898
42
1.0000000
0
SEQEND
0
INSERT
8
Bottom
2
UNIT_DISC
10
8.2677165
20
5.3149606
41
0.0157480
42
0.0157480
43
0.0157480
50
0.0000000
0
INSERT
8
Bottom
2
UNIT_DISC
10
8.2677165
20
5.6299213
41
0.0157480
42
0.0157480
43
0.0157480
50
0.0000000
0
POLYLINE
8
Bottom
6
CONTINUOUS
66
1
70
0
40
0.0157480
41
0.0157480
0
VERTEX
8
Bottom
10
8.2677165
20
5.3149606
42
0.0000000
0
VERTEX
8
Bottom
10
8.2677165
20
5.6299213
42
0.0000000
0
SEQEND
0
INSERT
8
Bottom
2
UNIT_DISC
10
8.1496063
20
5.1181102
41
0.0098425
42
0.0098425
43
0.0098425
50
0.0000000
0
INSERT
8
Bottom
2
UNIT_DISC
10
7.9527559
20
5.1181102
41
0.0098425
42
0.0098425
43
0.0098425
50
0.0000000
0
POLYLINE
8
Bottom
6
CONTINUOUS
66
1
70
0
40
0.0098425
41
0.0098425
0
VERTEX
8
Bottom
10
8.1496063
20
5.1181102
42
0.0000000
0
VERTEX
8
Bottom
10
7.9527559
20
5.1181102
42
0.0000000
0
SEQEND
0
INSERT
8
Bottom
2
UNIT_DISC
10
7.9527559
20
5.1181102
41
0.0098425
42
0.0098425
43
0.0098425
50
0.0000000
0
INSERT
8
Bottom
2
UNIT_DISC
10
7.9527559
20
5.0393701
41
0.0098425
42
0.0098425
43
0.0098425
50
0.0000000
0
POLYLINE
8
Bottom
6
CONTINUOUS
66
1
70
0
40
0.0098425
41
0.0098425
0
VERTEX
8
Bottom
10
7.9527559
20
5.1181102
42
0.0000000
0
VERTEX
8
Bottom
10
7.9527559
20
5.0393701
42
0.0000000
0
SEQEND
0
INSERT
8
Bottom
2
UNIT_DISC
10
7.9527559
20
5.0393701
41
0.0098425
42
0.0098425
43
0.0098425
50
0.0000000
0
INSERT
8
Bottom
2
UNIT_DISC
10
8.1496063
20
5.0393701
41
0.0098425
42
0.0098425
43
0.0098425
50
0.0000000
0
POLYLINE
8
Bottom
6
CONTINUOUS
66
1
70
0
40
0.0098425
41
0.0098425
0
VERTEX
8
Bottom
10
7.9527559
20
5.0393701
42
0.0000000
0
VERTEX
8
Bottom
10
8.1496063
20
5.0393701
42
0.0000000
0
SEQEND
0
INSERT
8
Bottom
2
UNIT_DISC
10
8.1496063
20
5.0393701
41
0.0098425
42
0.0098425
43
0.0098425
50
0.0000000
0
INSERT
8
Bottom
2
UNIT_DISC
10
8.1496063
20
5.1181102
41
0.0098425
42
0.0098425
43
0.0098425
50
0.0000000
0
POLYLINE
8
Bottom
6
CONTINUOUS
66
1
70
0
40
0.0098425
41
0.0098425
0
VERTEX
8
Bottom
10
8.1496063
20
5.0393701
42
0.0000000
0
VERTEX
8
Bottom
10
8.1496063
20
5.1181102
42
0.0000000
0
SEQEND
0
TEXT
8
Bottom
10
8.1889764
20
5.0393701
40
0.0629921
1
%
50
0.0
7
STANDARD
71
0
72
0
0
INSERT
8
Bottom
2
UNIT_DISC
10
7.8346457
20
6.6141732
41
0.0098425
42
0.0098425
43
0.0098425
50
0.0000000
0
INSERT
8
Bottom
2
UNIT_DISC
10
7.8346457
20
6.6929134
41
0.0098425
42
0.0098425
43
0.0098425
50
0.0000000
0
POLYLINE
8
Bottom
6
CONTINUOUS
66
1
70
0
40
0.0098425
41
0.0098425
0
VERTEX
8
Bottom
10
7.8346457
20
6.6141732
42
0.0000000
0
VERTEX
8
Bottom
10
7.8346457
20
6.6929134
42
0.0000000
0
SEQEND
0
INSERT
8
Bottom
2
UNIT_DISC
10
7.6377953
20
6.6141732
41
0.0098425
42
0.0098425
43
0.0098425
50
0.0000000
0
INSERT
8
Bottom
2
UNIT_DISC
10
7.8346457
20
6.6141732
41
0.0098425
42
0.0098425
43
0.0098425
50
0.0000000
0
POLYLINE
8
Bottom
6
CONTINUOUS
66
1
70
0
40
0.0098425
41
0.0098425
0
VERTEX
8
Bottom
10
7.6377953
20
6.6141732
42
0.0000000
0
VERTEX
8
Bottom
10
7.8346457
20
6.6141732
42
0.0000000
0
SEQEND
0
INSERT
8
Bottom
2
UNIT_DISC
10
7.6377953
20
6.6929134
41
0.0098425
42
0.0098425
43
0.0098425
50
0.0000000
0
INSERT
8
Bottom
2
UNIT_DISC
10
7.6377953
20
6.6141732
41
0.0098425
42
0.0098425
43
0.0098425
50
0.0000000
0
POLYLINE
8
Bottom
6
CONTINUOUS
66
1
70
0
40
0.0098425
41
0.0098425
0
VERTEX
8
Bottom
10
7.6377953
20
6.6929134
42
0.0000000
0
VERTEX
8
Bottom
10
7.6377953
20
6.6141732
42
0.0000000
0
SEQEND
0
INSERT
8
Bottom
2
UNIT_DISC
10
7.5984252
20
6.2598425
41
0.0098425
42
0.0098425
43
0.0098425
50
0.0000000
0
INSERT
8
Bottom
2
UNIT_DISC
10
7.5984252
20
6.9685039
41
0.0098425
42
0.0098425
43
0.0098425
50
0.0000000
0
POLYLINE
8
Bottom
6
CONTINUOUS
66
1
70
0
40
0.0098425
41
0.0098425
0
VERTEX
8
Bottom
10
7.5984252
20
6.2598425
42
0.0000000
0
VERTEX
8
Bottom
10
7.5984252
20
6.9685039
42
0.0000000
0
SEQEND
0
INSERT
8
Bottom
2
UNIT_DISC
10
8.1889764
20
5.5708661
41
0.0393701
42
0.0393701
43
0.0393701
50
0.0000000
0
INSERT
8
Bottom
2
UNIT_DISC
10
8.1889764
20
5.5314961
41
0.0393701
42
0.0393701
43
0.0393701
50
0.0000000
0
POLYLINE
8
Bottom
6
CONTINUOUS
66
1
70
0
40
0.0393701
41
0.0393701
0
VERTEX
8
Bottom
10
8.1889764
20
5.5708661
42
1.0000000
0
VERTEX
8
Bottom
10
8.1889764
20
5.5314961
42
1.0000000
0
SEQEND
0
INSERT
8
Bottom
2
UNIT_DISC
10
8.1889764
20
5.5314961
41
0.0393701
42
0.0393701
43
0.0393701
50
0.0000000
0
INSERT
8
Bottom
2
UNIT_DISC
10
8.1889764
20
5.5708661
41
0.0393701
42
0.0393701
43
0.0393701
50
0.0000000
0
POLYLINE
8
Bottom
6
CONTINUOUS
66
1
70
0
40
0.0393701
41
0.0393701
0
VERTEX
8
Bottom
10
8.1889764
20
5.5314961
42
1.0000000
0
VERTEX
8
Bottom
10
8.1889764
20
5.5708661
42
1.0000000
0
SEQEND
0
INSERT
8
Board
2
UNIT_DISC
10
2.3425197
20
6.0629921
41
0.0196850
42
0.0196850
43
0.0196850
50
0.0000000
0
INSERT
8
Board
2
UNIT_DISC
10
2.5196850
20
6.0629921
41
0.0196850
42
0.0196850
43
0.0196850
50
0.0000000
0
POLYLINE
8
Board
6
CONTINUOUS
66
1
70
0
40
0.0196850
41
0.0196850
0
VERTEX
8
Board
10
2.3425197
20
6.0629921
42
0.0000000
0
VERTEX
8
Board
10
2.5196850
20
6.0629921
42
0.0000000
0
SEQEND
0
INSERT
8
Board
2
UNIT_DISC
10
2.5196850
20
6.0629921
41
0.0196850
42
0.0196850
43
0.0196850
50
0.0000000
0
INSERT
8
Board
2
UNIT_DISC
10
2.5196850
20
5.9251969
41
0.0196850
42
0.0196850
43
0.0196850
50
0.0000000
0
POLYLINE
8
Board
6
CONTINUOUS
66
1
70
0
40
0.0196850
41
0.0196850
0
VERTEX
8
Board
10
2.5196850
20
6.0629921
42
0.0000000
0
VERTEX
8
Board
10
2.5196850
20
5.9251969
42
0.0000000
0
SEQEND
0
INSERT
8
Board
2
UNIT_DISC
10
2.5196850
20
5.9251969
41
0.0196850
42
0.0196850
43
0.0196850
50
0.0000000
0
INSERT
8
Board
2
UNIT_DISC
10
2.2440945
20
5.9251969
41
0.0196850
42
0.0196850
43
0.0196850
50
0.0000000
0
POLYLINE
8
Board
6
CONTINUOUS
66
1
70
0
40
0.0196850
41
0.0196850
0
VERTEX
8
Board
10
2.5196850
20
5.9251969
42
0.0000000
0
VERTEX
8
Board
10
2.2440945
20
5.9251969
42
0.0000000
0
SEQEND
0
INSERT
8
Board
2
UNIT_DISC
10
2.2440945
20
5.9251969
41
0.0196850
42
0.0196850
43
0.0196850
50
0.0000000
0
INSERT
8
Board
2
UNIT_DISC
10
2.2440945
20
6.0629921
41
0.0196850
42
0.0196850
43
0.0196850
50
0.0000000
0
POLYLINE
8
Board
6
CONTINUOUS
66
1
70
0
40
0.0196850
41
0.0196850
0
VERTEX
8
Board
10
2.2440945
20
5.9251969
42
0.0000000
0
VERTEX
8
Board
10
2.2440945
20
6.0629921
42
0.0000000
0
SEQEND
0
INSERT
8
Board
2
UNIT_DISC
10
2.2440945
20
6.0629921
41
0.0196850
42
0.0196850
43
0.0196850
50
0.0000000
0
INSERT
8
Board
2
UNIT_DISC
10
2.3425197
20
6.0629921
41
0.0196850
42
0.0196850
43
0.0196850
50
0.0000000
0
POLYLINE
8
Board
6
CONTINUOUS
66
1
70
0
40
0.0196850
41
0.0196850
0
VERTEX
8
Board
10
2.2440945
20
6.0629921
42
0.0000000
0
VERTEX
8
Board
10
2.3425197
20
6.0629921
42
0.0000000
0
SEQEND
0
TEXT
8
Board
10
2.2637795
20
5.9448819
40
0.0629921
1
ƒÕ«
50
0.0
7
STANDARD
71
0
72
0
0
INSERT
8
Board
2
UNIT_DISC
10
3.9566929
20
6.0433071
41
0.0196850
42
0.0196850
43
0.0196850
50
0.0000000
0
INSERT
8
Board
2
UNIT_DISC
10
4.1338583
20
6.0433071
41
0.0196850
42
0.0196850
43
0.0196850
50
0.0000000
0
POLYLINE
8
Board
6
CONTINUOUS
66
1
70
0
40
0.0196850
41
0.0196850
0
VERTEX
8
Board
10
3.9566929
20
6.0433071
42
0.0000000
0
VERTEX
8
Board
10
4.1338583
20
6.0433071
42
0.0000000
0
SEQEND
0
INSERT
8
Board
2
UNIT_DISC
10
4.1338583
20
6.0433071
41
0.0196850
42
0.0196850
43
0.0196850
50
0.0000000
0
INSERT
8
Board
2
UNIT_DISC
10
4.1338583
20
5.9055118
41
0.0196850
42
0.0196850
43
0.0196850
50
0.0000000
0
POLYLINE
8
Board
6
CONTINUOUS
66
1
70
0
40
0.0196850
41
0.0196850
0
VERTEX
8
Board
10
4.1338583
20
6.0433071
42
0.0000000
0
VERTEX
8
Board
10
4.1338583
20
5.9055118
42
0.0000000
0
SEQEND
0
INSERT
8
Board
2
UNIT_DISC
10
4.1338583
20
5.9055118
41
0.0196850
42
0.0196850
43
0.0196850
50
0.0000000
0
INSERT
8
Board
2
UNIT_DISC
10
3.8582677
20
5.9055118
41
0.0196850
42
0.0196850
43
0.0196850
50
0.0000000
0
POLYLINE
8
Board
6
CONTINUOUS
66
1
70
0
40
0.0196850
41
0.0196850
0
VERTEX
8
Board
10
4.1338583
20
5.9055118
42
0.0000000
0
VERTEX
8
Board
10
3.8582677
20
5.9055118
42
0.0000000
0
SEQEND
0
INSERT
8
Board
2
UNIT_DISC
10
3.8582677
20
5.9055118
41
0.0196850
42
0.0196850
43
0.0196850
50
0.0000000
0
INSERT
8
Board
2
UNIT_DISC
10
3.8582677
20
6.0433071
41
0.0196850
42
0.0196850
43
0.0196850
50
0.0000000
0
POLYLINE
8
Board
6
CONTINUOUS
66
1
70
0
40
0.0196850
41
0.0196850
0
VERTEX
8
Board
10
3.8582677
20
5.9055118
42
0.0000000
0
VERTEX
8
Board
10
3.8582677
20
6.0433071
42
0.0000000
0
SEQEND
0
INSERT
8
Board
2
UNIT_DISC
10
3.8582677
20
6.0433071
41
0.0196850
42
0.0196850
43
0.0196850
50
0.0000000
0
INSERT
8
Board
2
UNIT_DISC
10
3.9566929
20
6.0433071
41
0.0196850
42
0.0196850
43
0.0196850
50
0.0000000
0
POLYLINE
8
Board
6
CONTINUOUS
66
1
70
0
40
0.0196850
41
0.0196850
0
VERTEX
8
Board
10
3.8582677
20
6.0433071
42
0.0000000
0
VERTEX
8
Board
10
3.9566929
20
6.0433071
42
0.0000000
0
SEQEND
0
TEXT
8
Board
10
3.8779528
20
5.9251969
40
0.0629921
1
ƒÕ«
50
0.0
7
STANDARD
71
0
72
0
0
INSERT
8
Board
2
UNIT_DISC
10
5.5314961
20
6.0433071
41
0.0196850
42
0.0196850
43
0.0196850
50
0.0000000
0
INSERT
8
Board
2
UNIT_DISC
10
5.7086614
20
6.0433071
41
0.0196850
42
0.0196850
43
0.0196850
50
0.0000000
0
POLYLINE
8
Board
6
CONTINUOUS
66
1
70
0
40
0.0196850
41
0.0196850
0
VERTEX
8
Board
10
5.5314961
20
6.0433071
42
0.0000000
0
VERTEX
8
Board
10
5.7086614
20
6.0433071
42
0.0000000
0
SEQEND
0
INSERT
8
Board
2
UNIT_DISC
10
5.7086614
20
6.0433071
41
0.0196850
42
0.0196850
43
0.0196850
50
0.0000000
0
INSERT
8
Board
2
UNIT_DISC
10
5.7086614
20
5.9055118
41
0.0196850
42
0.0196850
43
0.0196850
50
0.0000000
0
POLYLINE
8
Board
6
CONTINUOUS
66
1
70
0
40
0.0196850
41
0.0196850
0
VERTEX
8
Board
10
5.7086614
20
6.0433071
42
0.0000000
0
VERTEX
8
Board
10
5.7086614
20
5.9055118
42
0.0000000
0
SEQEND
0
INSERT
8
Board
2
UNIT_DISC
10
5.7086614
20
5.9055118
41
0.0196850
42
0.0196850
43
0.0196850
50
0.0000000
0
INSERT
8
Board
2
UNIT_DISC
10
5.4330709
20
5.9055118
41
0.0196850
42
0.0196850
43
0.0196850
50
0.0000000
0
POLYLINE
8
Board
6
CONTINUOUS
66
1
70
0
40
0.0196850
41
0.0196850
0
VERTEX
8
Board
10
5.7086614
20
5.9055118
42
0.0000000
0
VERTEX
8
Board
10
5.4330709
20
5.9055118
42
0.0000000
0
SEQEND
0
INSERT
8
Board
2
UNIT_DISC
10
5.4330709
20
5.9055118
41
0.0196850
42
0.0196850
43
0.0196850
50
0.0000000
0
INSERT
8
Board
2
UNIT_DISC
10
5.4330709
20
6.0433071
41
0.0196850
42
0.0196850
43
0.0196850
50
0.0000000
0
POLYLINE
8
Board
6
CONTINUOUS
66
1
70
0
40
0.0196850
41
0.0196850
0
VERTEX
8
Board
10
5.4330709
20
5.9055118
42
0.0000000
0
VERTEX
8
Board
10
5.4330709
20
6.0433071
42
0.0000000
0
SEQEND
0
INSERT
8
Board
2
UNIT_DISC
10
5.4330709
20
6.0433071
41
0.0196850
42
0.0196850
43
0.0196850
50
0.0000000
0
INSERT
8
Board
2
UNIT_DISC
10
5.5314961
20
6.0433071
41
0.0196850
42
0.0196850
43
0.0196850
50
0.0000000
0
POLYLINE
8
Board
6
CONTINUOUS
66
1
70
0
40
0.0196850
41
0.0196850
0
VERTEX
8
Board
10
5.4330709
20
6.0433071
42
0.0000000
0
VERTEX
8
Board
10
5.5314961
20
6.0433071
42
0.0000000
0
SEQEND
0
TEXT
8
Board
10
5.4527559
20
5.9251969
40
0.0629921
1
ƒÕ«
50
0.0
7
STANDARD
71
0
72
0
0
INSERT
8
Board
2
UNIT_DISC
10
7.0669291
20
6.0826772
41
0.0196850
42
0.0196850
43
0.0196850
50
0.0000000
0
INSERT
8
Board
2
UNIT_DISC
10
7.2440945
20
6.0826772
41
0.0196850
42
0.0196850
43
0.0196850
50
0.0000000
0
POLYLINE
8
Board
6
CONTINUOUS
66
1
70
0
40
0.0196850
41
0.0196850
0
VERTEX
8
Board
10
7.0669291
20
6.0826772
42
0.0000000
0
VERTEX
8
Board
10
7.2440945
20
6.0826772
42
0.0000000
0
SEQEND
0
INSERT
8
Board
2
UNIT_DISC
10
7.2440945
20
6.0826772
41
0.0196850
42
0.0196850
43
0.0196850
50
0.0000000
0
INSERT
8
Board
2
UNIT_DISC
10
7.2440945
20
5.9448819
41
0.0196850
42
0.0196850
43
0.0196850
50
0.0000000
0
POLYLINE
8
Board
6
CONTINUOUS
66
1
70
0
40
0.0196850
41
0.0196850
0
VERTEX
8
Board
10
7.2440945
20
6.0826772
42
0.0000000
0
VERTEX
8
Board
10
7.2440945
20
5.9448819
42
0.0000000
0
SEQEND
0
INSERT
8
Board
2
UNIT_DISC
10
7.2440945
20
5.9448819
41
0.0196850
42
0.0196850
43
0.0196850
50
0.0000000
0
INSERT
8
Board
2
UNIT_DISC
10
6.9685039
20
5.9448819
41
0.0196850
42
0.0196850
43
0.0196850
50
0.0000000
0
POLYLINE
8
Board
6
CONTINUOUS
66
1
70
0
40
0.0196850
41
0.0196850
0
VERTEX
8
Board
10
7.2440945
20
5.9448819
42
0.0000000
0
VERTEX
8
Board
10
6.9685039
20
5.9448819
42
0.0000000
0
SEQEND
0
INSERT
8
Board
2
UNIT_DISC
10
6.9685039
20
5.9448819
41
0.0196850
42
0.0196850
43
0.0196850
50
0.0000000
0
INSERT
8
Board
2
UNIT_DISC
10
6.9685039
20
6.0826772
41
0.0196850
42
0.0196850
43
0.0196850
50
0.0000000
0
POLYLINE
8
Board
6
CONTINUOUS
66
1
70
0
40
0.0196850
41
0.0196850
0
VERTEX
8
Board
10
6.9685039
20
5.9448819
42
0.0000000
0
VERTEX
8
Board
10
6.9685039
20
6.0826772
42
0.0000000
0
SEQEND
0
INSERT
8
Board
2
UNIT_DISC
10
6.9685039
20
6.0826772
41
0.0196850
42
0.0196850
43
0.0196850
50
0.0000000
0
INSERT
8
Board
2
UNIT_DISC
10
7.0669291
20
6.0826772
41
0.0196850
42
0.0196850
43
0.0196850
50
0.0000000
0
POLYLINE
8
Board
6
CONTINUOUS
66
1
70
0
40
0.0196850
41
0.0196850
0
VERTEX
8
Board
10
6.9685039
20
6.0826772
42
0.0000000
0
VERTEX
8
Board
10
7.0669291
20
6.0826772
42
0.0000000
0
SEQEND
0
TEXT
8
Board
10
6.9881890
20
5.9645669
40
0.0629921
1
ƒÕ«
50
0.0
7
STANDARD
71
0
72
0
0
INSERT
8
Bot_Mask
2
UNIT_DISC
10
2.9527559
20
5.8267717
41
0.0157480
42
0.0157480
43
0.0157480
50
0.0000000
0
INSERT
8
Bot_Mask
2
UNIT_DISC
10
3.3464567
20
5.8267717
41
0.0157480
42
0.0157480
43
0.0157480
50
0.0000000
0
POLYLINE
8
Bot_Mask
6
CONTINUOUS
66
1
70
0
40
0.0157480
41
0.0157480
0
VERTEX
8
Bot_Mask
10
2.9527559
20
5.8267717
42
0.0000000
0
VERTEX
8
Bot_Mask
10
3.3464567
20
5.8267717
42
0.0000000
0
SEQEND
0
INSERT
8
Bot_Mask
2
UNIT_DISC
10
3.3464567
20
5.8267717
41
0.0157480
42
0.0157480
43
0.0157480
50
0.0000000
0
INSERT
8
Bot_Mask
2
UNIT_DISC
10
3.5039370
20
5.8267717
41
0.0157480
42
0.0157480
43
0.0157480
50
0.0000000
0
POLYLINE
8
Bot_Mask
6
CONTINUOUS
66
1
70
0
40
0.0157480
41
0.0157480
0
VERTEX
8
Bot_Mask
10
3.3464567
20
5.8267717
42
0.0000000
0
VERTEX
8
Bot_Mask
10
3.5039370
20
5.8267717
42
0.0000000
0
SEQEND
0
INSERT
8
Bot_Mask
2
UNIT_DISC
10
3.5039370
20
6.2204724
41
0.0157480
42
0.0157480
43
0.0157480
50
0.0000000
0
INSERT
8
Bot_Mask
2
UNIT_DISC
10
2.9527559
20
6.2204724
41
0.0157480
42
0.0157480
43
0.0157480
50
0.0000000
0
POLYLINE
8
Bot_Mask
6
CONTINUOUS
66
1
70
0
40
0.0157480
41
0.0157480
0
VERTEX
8
Bot_Mask
10
3.5039370
20
6.2204724
42
0.0000000
0
VERTEX
8
Bot_Mask
10
2.9527559
20
6.2204724
42
0.0000000
0
SEQEND
0
INSERT
8
Bot_Mask
2
UNIT_DISC
10
2.9527559
20
6.2204724
41
0.0157480
42
0.0157480
43
0.0157480
50
0.0000000
0
INSERT
8
Bot_Mask
2
UNIT_DISC
10
2.9527559
20
5.8267717
41
0.0157480
42
0.0157480
43
0.0157480
50
0.0000000
0
POLYLINE
8
Bot_Mask
6
CONTINUOUS
66
1
70
0
40
0.0157480
41
0.0157480
0
VERTEX
8
Bot_Mask
10
2.9527559
20
6.2204724
42
0.0000000
0
VERTEX
8
Bot_Mask
10
2.9527559
20
5.8267717
42
0.0000000
0
SEQEND
0
INSERT
8
Bot_Mask
2
UNIT_DISC
10
3.5039370
20
5.8267717
41
0.0157480
42
0.0157480
43
0.0157480
50
0.0000000
0
INSERT
8
Bot_Mask
2
UNIT_DISC
10
3.5039370
20
6.2204724
41
0.0157480
42
0.0157480
43
0.0157480
50
0.0000000
0
POLYLINE
8
Bot_Mask
6
CONTINUOUS
66
1
70
0
40
0.0157480
41
0.0157480
0
VERTEX
8
Bot_Mask
10
3.5039370
20
5.8267717
42
0.0000000
0
VERTEX
8
Bot_Mask
10
3.5039370
20
6.2204724
42
0.0000000
0
SEQEND
0
INSERT
8
Bot_Mask
2
UNIT_DISC
10
4.5669291
20
5.8267717
41
0.0157480
42
0.0157480
43
0.0157480
50
0.0000000
0
INSERT
8
Bot_Mask
2
UNIT_DISC
10
4.9606299
20
5.8267717
41
0.0157480
42
0.0157480
43
0.0157480
50
0.0000000
0
POLYLINE
8
Bot_Mask
6
CONTINUOUS
66
1
70
0
40
0.0157480
41
0.0157480
0
VERTEX
8
Bot_Mask
10
4.5669291
20
5.8267717
42
0.0000000
0
VERTEX
8
Bot_Mask
10
4.9606299
20
5.8267717
42
0.0000000
0
SEQEND
0
INSERT
8
Bot_Mask
2
UNIT_DISC
10
4.9606299
20
5.8267717
41
0.0157480
42
0.0157480
43
0.0157480
50
0.0000000
0
INSERT
8
Bot_Mask
2
UNIT_DISC
10
5.1181102
20
5.8267717
41
0.0157480
42
0.0157480
43
0.0157480
50
0.0000000
0
POLYLINE
8
Bot_Mask
6
CONTINUOUS
66
1
70
0
40
0.0157480
41
0.0157480
0
VERTEX
8
Bot_Mask
10
4.9606299
20
5.8267717
42
0.0000000
0
VERTEX
8
Bot_Mask
10
5.1181102
20
5.8267717
42
0.0000000
0
SEQEND
0
INSERT
8
Bot_Mask
2
UNIT_DISC
10
5.1181102
20
6.2204724
41
0.0157480
42
0.0157480
43
0.0157480
50
0.0000000
0
INSERT
8
Bot_Mask
2
UNIT_DISC
10
4.5669291
20
6.2204724
41
0.0157480
42
0.0157480
43
0.0157480
50
0.0000000
0
POLYLINE
8
Bot_Mask
6
CONTINUOUS
66
1
70
0
40
0.0157480
41
0.0157480
0
VERTEX
8
Bot_Mask
10
5.1181102
20
6.2204724
42
0.0000000
0
VERTEX
8
Bot_Mask
10
4.5669291
20
6.2204724
42
0.0000000
0
SEQEND
0
INSERT
8
Bot_Mask
2
UNIT_DISC
10
4.5669291
20
6.2204724
41
0.0157480
42
0.0157480
43
0.0157480
50
0.0000000
0
INSERT
8
Bot_Mask
2
UNIT_DISC
10
4.5669291
20
5.8267717
41
0.0157480
42
0.0157480
43
0.0157480
50
0.0000000
0
POLYLINE
8
Bot_Mask
6
CONTINUOUS
66
1
70
0
40
0.0157480
41
0.0157480
0
VERTEX
8
Bot_Mask
10
4.5669291
20
6.2204724
42
0.0000000
0
VERTEX
8
Bot_Mask
10
4.5669291
20
5.8267717
42
0.0000000
0
SEQEND
0
INSERT
8
Bot_Mask
2
UNIT_DISC
10
5.1181102
20
5.8267717
41
0.0157480
42
0.0157480
43
0.0157480
50
0.0000000
0
INSERT
8
Bot_Mask
2
UNIT_DISC
10
5.1181102
20
6.2204724
41
0.0157480
42
0.0157480
43
0.0157480
50
0.0000000
0
POLYLINE
8
Bot_Mask
6
CONTINUOUS
66
1
70
0
40
0.0157480
41
0.0157480
0
VERTEX
8
Bot_Mask
10
5.1181102
20
5.8267717
42
0.0000000
0
VERTEX
8
Bot_Mask
10
5.1181102
20
6.2204724
42
0.0000000
0
SEQEND
0
INSERT
8
Bot_Mask
2
UNIT_DISC
10
6.1417323
20
5.8267717
41
0.0157480
42
0.0157480
43
0.0157480
50
0.0000000
0
INSERT
8
Bot_Mask
2
UNIT_DISC
10
6.5354331
20
5.8267717
41
0.0157480
42
0.0157480
43
0.0157480
50
0.0000000
0
POLYLINE
8
Bot_Mask
6
CONTINUOUS
66
1
70
0
40
0.0157480
41
0.0157480
0
VERTEX
8
Bot_Mask
10
6.1417323
20
5.8267717
42
0.0000000
0
VERTEX
8
Bot_Mask
10
6.5354331
20
5.8267717
42
0.0000000
0
SEQEND
0
INSERT
8
Bot_Mask
2
UNIT_DISC
10
6.5354331
20
5.8267717
41
0.0157480
42
0.0157480
43
0.0157480
50
0.0000000
0
INSERT
8
Bot_Mask
2
UNIT_DISC
10
6.6929134
20
5.8267717
41
0.0157480
42
0.0157480
43
0.0157480
50
0.0000000
0
POLYLINE
8
Bot_Mask
6
CONTINUOUS
66
1
70
0
40
0.0157480
41
0.0157480
0
VERTEX
8
Bot_Mask
10
6.5354331
20
5.8267717
42
0.0000000
0
VERTEX
8
Bot_Mask
10
6.6929134
20
5.8267717
42
0.0000000
0
SEQEND
0
INSERT
8
Bot_Mask
2
UNIT_DISC
10
6.6929134
20
6.2204724
41
0.0157480
42
0.0157480
43
0.0157480
50
0.0000000
0
INSERT
8
Bot_Mask
2
UNIT_DISC
10
6.1417323
20
6.2204724
41
0.0157480
42
0.0157480
43
0.0157480
50
0.0000000
0
POLYLINE
8
Bot_Mask
6
CONTINUOUS
66
1
70
0
40
0.0157480
41
0.0157480
0
VERTEX
8
Bot_Mask
10
6.6929134
20
6.2204724
42
0.0000000
0
VERTEX
8
Bot_Mask
10
6.1417323
20
6.2204724
42
0.0000000
0
SEQEND
0
INSERT
8
Bot_Mask
2
UNIT_DISC
10
6.1417323
20
6.2204724
41
0.0157480
42
0.0157480
43
0.0157480
50
0.0000000
0
INSERT
8
Bot_Mask
2
UNIT_DISC
10
6.1417323
20
5.8267717
41
0.0157480
42
0.0157480
43
0.0157480
50
0.0000000
0
POLYLINE
8
Bot_Mask
6
CONTINUOUS
66
1
70
0
40
0.0157480
41
0.0157480
0
VERTEX
8
Bot_Mask
10
6.1417323
20
6.2204724
42
0.0000000
0
VERTEX
8
Bot_Mask
10
6.1417323
20
5.8267717
42
0.0000000
0
SEQEND
0
INSERT
8
Bot_Mask
2
UNIT_DISC
10
6.6929134
20
5.8267717
41
0.0157480
42
0.0157480
43
0.0157480
50
0.0000000
0
INSERT
8
Bot_Mask
2
UNIT_DISC
10
6.6929134
20
6.2204724
41
0.0157480
42
0.0157480
43
0.0157480
50
0.0000000
0
POLYLINE
8
Bot_Mask
6
CONTINUOUS
66
1
70
0
40
0.0157480
41
0.0157480
0
VERTEX
8
Bot_Mask
10
6.6929134
20
5.8267717
42
0.0000000
0
VERTEX
8
Bot_Mask
10
6.6929134
20
6.2204724
42
0.0000000
0
SEQEND
0
INSERT
8
Bot_Mask
2
UNIT_DISC
10
7.6771654
20
5.8267717
41
0.0157480
42
0.0157480
43
0.0157480
50
0.0000000
0
INSERT
8
Bot_Mask
2
UNIT_DISC
10
8.0708661
20
5.8267717
41
0.0157480
42
0.0157480
43
0.0157480
50
0.0000000
0
POLYLINE
8
Bot_Mask
6
CONTINUOUS
66
1
70
0
40
0.0157480
41
0.0157480
0
VERTEX
8
Bot_Mask
10
7.6771654
20
5.8267717
42
0.0000000
0
VERTEX
8
Bot_Mask
10
8.0708661
20
5.8267717
42
0.0000000
0
SEQEND
0
INSERT
8
Bot_Mask
2
UNIT_DISC
10
8.0708661
20
5.8267717
41
0.0157480
42
0.0157480
43
0.0157480
50
0.0000000
0
INSERT
8
Bot_Mask
2
UNIT_DISC
10
8.2283465
20
5.8267717
41
0.0157480
42
0.0157480
43
0.0157480
50
0.0000000
0
POLYLINE
8
Bot_Mask
6
CONTINUOUS
66
1
70
0
40
0.0157480
41
0.0157480
0
VERTEX
8
Bot_Mask
10
8.0708661
20
5.8267717
42
0.0000000
0
VERTEX
8
Bot_Mask
10
8.2283465
20
5.8267717
42
0.0000000
0
SEQEND
0
INSERT
8
Bot_Mask
2
UNIT_DISC
10
8.2283465
20
6.2204724
41
0.0157480
42
0.0157480
43
0.0157480
50
0.0000000
0
INSERT
8
Bot_Mask
2
UNIT_DISC
10
7.6771654
20
6.2204724
41
0.0157480
42
0.0157480
43
0.0157480
50
0.0000000
0
POLYLINE
8
Bot_Mask
6
CONTINUOUS
66
1
70
0
40
0.0157480
41
0.0157480
0
VERTEX
8
Bot_Mask
10
8.2283465
20
6.2204724
42
0.0000000
0
VERTEX
8
Bot_Mask
10
7.6771654
20
6.2204724
42
0.0000000
0
SEQEND
0
INSERT
8
Bot_Mask
2
UNIT_DISC
10
7.6771654
20
6.2204724
41
0.0157480
42
0.0157480
43
0.0157480
50
0.0000000
0
INSERT
8
Bot_Mask
2
UNIT_DISC
10
7.6771654
20
5.8267717
41
0.0157480
42
0.0157480
43
0.0157480
50
0.0000000
0
POLYLINE
8
Bot_Mask
6
CONTINUOUS
66
1
70
0
40
0.0157480
41
0.0157480
0
VERTEX
8
Bot_Mask
10
7.6771654
20
6.2204724
42
0.0000000
0
VERTEX
8
Bot_Mask
10
7.6771654
20
5.8267717
42
0.0000000
0
SEQEND
0
INSERT
8
Bot_Mask
2
UNIT_DISC
10
8.2283465
20
5.8267717
41
0.0157480
42
0.0157480
43
0.0157480
50
0.0000000
0
INSERT
8
Bot_Mask
2
UNIT_DISC
10
8.2283465
20
6.2204724
41
0.0157480
42
0.0157480
43
0.0157480
50
0.0000000
0
POLYLINE
8
Bot_Mask
6
CONTINUOUS
66
1
70
0
40
0.0157480
41
0.0157480
0
VERTEX
8
Bot_Mask
10
8.2283465
20
5.8267717
42
0.0000000
0
VERTEX
8
Bot_Mask
10
8.2283465
20
6.2204724
42
0.0000000
0
SEQEND
0
INSERT
8
Top_Silk
2
UNIT_DISC
10
2.1259843
20
5.0787402
41
0.0393701
42
0.0393701
43
0.0393701
50
0.0000000
0
INSERT
8
Top_Silk
2
UNIT_DISC
10
2.1259843
20
7.5984252
41
0.0393701
42
0.0393701
43
0.0393701
50
0.0000000
0
POLYLINE
8
Top_Silk
6
CONTINUOUS
66
1
70
0
40
0.0393701
41
0.0393701
0
VERTEX
8
Top_Silk
10
2.1259843
20
5.0787402
42
0.0000000
0
VERTEX
8
Top_Silk
10
2.1259843
20
7.5984252
42
0.0000000
0
SEQEND
0
INSERT
8
Top_Silk
2
UNIT_DISC
10
2.1259843
20
7.5984252
41
0.0393701
42
0.0393701
43
0.0393701
50
0.0000000
0
INSERT
8
Top_Silk
2
UNIT_DISC
10
2.1653543
20
7.5984252
41
0.0393701
42
0.0393701
43
0.0393701
50
0.0000000
0
POLYLINE
8
Top_Silk
6
CONTINUOUS
66
1
70
0
40
0.0393701
41
0.0393701
0
VERTEX
8
Top_Silk
10
2.1259843
20
7.5984252
42
0.0000000
0
VERTEX
8
Top_Silk
10
2.1653543
20
7.5984252
42
0.0000000
0
SEQEND
0
INSERT
8
Top_Silk
2
UNIT_DISC
10
2.1653543
20
7.5984252
41
0.0393701
42
0.0393701
43
0.0393701
50
0.0000000
0
INSERT
8
Top_Silk
2
UNIT_DISC
10
5.7480315
20
7.5984252
41
0.0393701
42
0.0393701
43
0.0393701
50
0.0000000
0
POLYLINE
8
Top_Silk
6
CONTINUOUS
66
1
70
0
40
0.0393701
41
0.0393701
0
VERTEX
8
Top_Silk
10
2.1653543
20
7.5984252
42
0.0000000
0
VERTEX
8
Top_Silk
10
5.7480315
20
7.5984252
42
0.0000000
0
SEQEND
0
INSERT
8
Top_Silk
2
UNIT_DISC
10
5.7480315
20
7.5984252
41
0.0393701
42
0.0393701
43
0.0393701
50
0.0000000
0
INSERT
8
Top_Silk
2
UNIT_DISC
10
8.7204724
20
7.5984252
41
0.0393701
42
0.0393701
43
0.0393701
50
0.0000000
0
POLYLINE
8
Top_Silk
6
CONTINUOUS
66
1
70
0
40
0.0393701
41
0.0393701
0
VERTEX
8
Top_Silk
10
5.7480315
20
7.5984252
42
0.0000000
0
VERTEX
8
Top_Silk
10
8.7204724
20
7.5984252
42
0.0000000
0
SEQEND
0
INSERT
8
Top_Silk
2
UNIT_DISC
10
2.1850394
20
7.3818898
41
0.0157480
42
0.0157480
43
0.0157480
50
0.0000000
0
INSERT
8
Top_Silk
2
UNIT_DISC
10
8.7204724
20
7.3818898
41
0.0157480
42
0.0157480
43
0.0157480
50
0.0000000
0
POLYLINE
8
Top_Silk
6
CONTINUOUS
66
1
70
0
40
0.0157480
41
0.0157480
0
VERTEX
8
Top_Silk
10
2.1850394
20
7.3818898
42
0.0000000
0
VERTEX
8
Top_Silk
10
8.7204724
20
7.3818898
42
0.0000000
0
SEQEND
0
INSERT
8
Top_Silk
2
UNIT_DISC
10
4.2125984
20
4.9212598
41
0.0196850
42
0.0196850
43
0.0196850
50
0.0000000
0
INSERT
8
Top_Silk
2
UNIT_DISC
10
8.7204724
20
4.9212598
41
0.0196850
42
0.0196850
43
0.0196850
50
0.0000000
0
POLYLINE
8
Top_Silk
6
CONTINUOUS
66
1
70
0
40
0.0196850
41
0.0196850
0
VERTEX
8
Top_Silk
10
4.2125984
20
4.9212598
42
0.0000000
0
VERTEX
8
Top_Silk
10
8.7204724
20
4.9212598
42
0.0000000
0
SEQEND
0
INSERT
8
Top_Silk
2
UNIT_DISC
10
2.1259843
20
4.3110236
41
0.0393701
42
0.0393701
43
0.0393701
50
0.0000000
0
INSERT
8
Top_Silk
2
UNIT_DISC
10
2.1259843
20
5.0787402
41
0.0393701
42
0.0393701
43
0.0393701
50
0.0000000
0
POLYLINE
8
Top_Silk
6
CONTINUOUS
66
1
70
0
40
0.0393701
41
0.0393701
0
VERTEX
8
Top_Silk
10
2.1259843
20
4.3110236
42
0.0000000
0
VERTEX
8
Top_Silk
10
2.1259843
20
5.0787402
42
0.0000000
0
SEQEND
0
INSERT
8
Top_Silk
2
UNIT_DISC
10
4.2125984
20
4.9212598
41
0.0196850
42
0.0196850
43
0.0196850
50
0.0000000
0
INSERT
8
Top_Silk
2
UNIT_DISC
10
4.2125984
20
4.3110236
41
0.0196850
42
0.0196850
43
0.0196850
50
0.0000000
0
POLYLINE
8
Top_Silk
6
CONTINUOUS
66
1
70
0
40
0.0196850
41
0.0196850
0
VERTEX
8
Top_Silk
10
4.2125984
20
4.9212598
42
0.0000000
0
VERTEX
8
Top_Silk
10
4.2125984
20
4.3110236
42
0.0000000
0
SEQEND
0
INSERT
8
Top_Silk
2
UNIT_DISC
10
8.7204724
20
7.5984252
41
0.0393701
42
0.0393701
43
0.0393701
50
0.0000000
0
INSERT
8
Top_Silk
2
UNIT_DISC
10
8.7204724
20
4.3110236
41
0.0393701
42
0.0393701
43
0.0393701
50
0.0000000
0
POLYLINE
8
Top_Silk
6
CONTINUOUS
66
1
70
0
40
0.0393701
41
0.0393701
0
VERTEX
8
Top_Silk
10
8.7204724
20
7.5984252
42
0.0000000
0
VERTEX
8
Top_Silk
10
8.7204724
20
4.3110236
42
0.0000000
0
SEQEND
0
INSERT
8
Top_Silk
2
UNIT_DISC
10
2.1259843
20
4.3110236
41
0.0393701
42
0.0393701
43
0.0393701
50
0.0000000
0
INSERT
8
Top_Silk
2
UNIT_DISC
10
8.7204724
20
4.3110236
41
0.0393701
42
0.0393701
43
0.0393701
50
0.0000000
0
POLYLINE
8
Top_Silk
6
CONTINUOUS
66
1
70
0
40
0.0393701
41
0.0393701
0
VERTEX
8
Top_Silk
10
2.1259843
20
4.3110236
42
0.0000000
0
VERTEX
8
Top_Silk
10
8.7204724
20
4.3110236
42
0.0000000
0
SEQEND
0
TEXT
8
Top_Silk
10
7.8543307
20
7.4212598
40
0.0944882
1
‰‡Ú‡ Ë ‚ÂÏˇ
50
0.0
7
STANDARD
71
0
72
0
0
INSERT
8
Top_Silk
2
UNIT_DISC
10
7.7952756
20
7.3818898
41
0.0196850
42
0.0196850
43
0.0196850
50
0.0000000
0
INSERT
8
Top_Silk
2
UNIT_DISC
10
7.7952756
20
7.5984252
41
0.0196850
42
0.0196850
43
0.0196850
50
0.0000000
0
POLYLINE
8
Top_Silk
6
CONTINUOUS
66
1
70
0
40
0.0196850
41
0.0196850
0
VERTEX
8
Top_Silk
10
7.7952756
20
7.3818898
42
0.0000000
0
VERTEX
8
Top_Silk
10
7.7952756
20
7.5984252
42
0.0000000
0
SEQEND
0
TEXT
8
Top_Silk
10
7.4015748
20
7.4409449
40
0.0629921
1
¿–’»¬
50
0.0
7
STANDARD
71
0
72
0
0
TEXT
8
Top_Silk
10
6.8307087
20
7.4409449
40
0.0629921
1
œ–ŒÃ€¬ ¿
50
0.0
7
STANDARD
71
0
72
0
0
TEXT
8
Top_Silk
10
5.2755906
20
7.4212598
40
0.0944882
1
œ”— 
50
0.0
7
STANDARD
71
0
72
0
0
TEXT
8
Top_Silk
10
5.7283465
20
7.4212598
40
0.0944882
1
—“Œœ
50
0.0
7
STANDARD
71
0
72
0
0
INSERT
8
Top_Silk
2
UNIT_DISC
10
5.6692913
20
7.5984252
41
0.0196850
42
0.0196850
43
0.0196850
50
0.0000000
0
INSERT
8
Top_Silk
2
UNIT_DISC
10
5.6692913
20
7.3818898
41
0.0196850
42
0.0196850
43
0.0196850
50
0.0000000
0
POLYLINE
8
Top_Silk
6
CONTINUOUS
66
1
70
0
40
0.0196850
41
0.0196850
0
VERTEX
8
Top_Silk
10
5.6692913
20
7.5984252
42
0.0000000
0
VERTEX
8
Top_Silk
10
5.6692913
20
7.3818898
42
0.0000000
0
SEQEND
0
INSERT
8
Top_Silk
2
UNIT_DISC
10
6.1220472
20
7.5984252
41
0.0196850
42
0.0196850
43
0.0196850
50
0.0000000
0
INSERT
8
Top_Silk
2
UNIT_DISC
10
6.1220472
20
7.3818898
41
0.0196850
42
0.0196850
43
0.0196850
50
0.0000000
0
POLYLINE
8
Top_Silk
6
CONTINUOUS
66
1
70
0
40
0.0196850
41
0.0196850
0
VERTEX
8
Top_Silk
10
6.1220472
20
7.5984252
42
0.0000000
0
VERTEX
8
Top_Silk
10
6.1220472
20
7.3818898
42
0.0000000
0
SEQEND
0
TEXT
8
Top_Silk
10
6.2007874
20
7.4212598
40
0.0944882
1
œ¿”«¿
50
0.0
7
STANDARD
71
0
72
0
0
INSERT
8
Top_Silk
2
UNIT_DISC
10
6.6535433
20
7.5984252
41
0.0196850
42
0.0196850
43
0.0196850
50
0.0000000
0
INSERT
8
Top_Silk
2
UNIT_DISC
10
6.6535433
20
7.3818898
41
0.0196850
42
0.0196850
43
0.0196850
50
0.0000000
0
POLYLINE
8
Top_Silk
6
CONTINUOUS
66
1
70
0
40
0.0196850
41
0.0196850
0
VERTEX
8
Top_Silk
10
6.6535433
20
7.5984252
42
0.0000000
0
VERTEX
8
Top_Silk
10
6.6535433
20
7.3818898
42
0.0000000
0
SEQEND
0
TEXT
8
Top_Silk
10
4.7244094
20
7.4409449
40
0.0629921
1
ƒ¿“◊» »
50
0.0
7
STANDARD
71
0
72
0
0
TEXT
8
Top_Silk
10
2.2047244
20
7.4212598
40
0.0944882
1
 ŒÕ“¿ “
50
0.0
7
STANDARD
71
0
72
0
0
TEXT
8
Top_Silk
10
4.1732283
20
7.4409449
40
0.0629921
1
œ¿–¿Ã≈“–€
50
0.0
7
STANDARD
71
0
72
0
0
TEXT
8
Top_Silk
10
3.6614173
20
7.4409449
40
0.0629921
1
 ŒÕ“–ŒÀ‹
50
0.0
7
STANDARD
71
0
72
0
0
TEXT
8
Top_Silk
10
2.8740157
20
7.4409449
40
0.0629921
1
 ŒÕ‘»√”–¿÷»ﬂ
50
0.0
7
STANDARD
71
0
72
0
0
INSERT
8
Top_Silk
2
UNIT_DISC
10
2.7952756
20
7.3818898
41
0.0196850
42
0.0196850
43
0.0196850
50
0.0000000
0
INSERT
8
Top_Silk
2
UNIT_DISC
10
2.7952756
20
7.5984252
41
0.0196850
42
0.0196850
43
0.0196850
50
0.0000000
0
POLYLINE
8
Top_Silk
6
CONTINUOUS
66
1
70
0
40
0.0196850
41
0.0196850
0
VERTEX
8
Top_Silk
10
2.7952756
20
7.3818898
42
0.0000000
0
VERTEX
8
Top_Silk
10
2.7952756
20
7.5984252
42
0.0000000
0
SEQEND
0
INSERT
8
Top_Silk
2
UNIT_DISC
10
2.1850394
20
7.3818898
41
0.0196850
42
0.0196850
43
0.0196850
50
0.0000000
0
INSERT
8
Top_Silk
2
UNIT_DISC
10
2.1259843
20
7.3818898
41
0.0196850
42
0.0196850
43
0.0196850
50
0.0000000
0
POLYLINE
8
Top_Silk
6
CONTINUOUS
66
1
70
0
40
0.0196850
41
0.0196850
0
VERTEX
8
Top_Silk
10
2.1850394
20
7.3818898
42
0.0000000
0
VERTEX
8
Top_Silk
10
2.1259843
20
7.3818898
42
0.0000000
0
SEQEND
0
INSERT
8
Top_Silk
2
UNIT_DISC
10
5.2165354
20
7.5984252
41
0.0196850
42
0.0196850
43
0.0196850
50
0.0000000
0
INSERT
8
Top_Silk
2
UNIT_DISC
10
5.2165354
20
7.3818898
41
0.0196850
42
0.0196850
43
0.0196850
50
0.0000000
0
POLYLINE
8
Top_Silk
6
CONTINUOUS
66
1
70
0
40
0.0196850
41
0.0196850
0
VERTEX
8
Top_Silk
10
5.2165354
20
7.5984252
42
0.0000000
0
VERTEX
8
Top_Silk
10
5.2165354
20
7.3818898
42
0.0000000
0
SEQEND
0
TEXT
8
Top_Silk
10
4.2519685
20
4.7244094
40
0.0944882
1
—ŒŒ¡Ÿ≈Õ»≈ Œ —Œ¡€“»ﬂ’:
50
0.0
7
STANDARD
71
0
72
0
0
TEXT
8
Bot_Paste
10
2.5590551
20
4.7047244
40
0.0944882
1
¡ÀŒ  ‘»À‹“–¿
50
0.0
7
STANDARD
71
0
72
0
0
INSERT
8
Bot_Paste
2
UNIT_DISC
10
3.6220472
20
4.9409449
41
0.0157480
42
0.0157480
43
0.0157480
50
0.0000000
0
INSERT
8
Bot_Paste
2
UNIT_DISC
10
2.4409449
20
4.9409449
41
0.0157480
42
0.0157480
43
0.0157480
50
0.0000000
0
POLYLINE
8
Bot_Paste
6
CONTINUOUS
66
1
70
0
40
0.0157480
41
0.0157480
0
VERTEX
8
Bot_Paste
10
3.6220472
20
4.9409449
42
0.0000000
0
VERTEX
8
Bot_Paste
10
2.4409449
20
4.9409449
42
0.0000000
0
SEQEND
0
INSERT
8
Bot_Paste
2
UNIT_DISC
10
2.4409449
20
4.4094488
41
0.0157480
42
0.0157480
43
0.0157480
50
0.0000000
0
INSERT
8
Bot_Paste
2
UNIT_DISC
10
3.6220472
20
4.4094488
41
0.0157480
42
0.0157480
43
0.0157480
50
0.0000000
0
POLYLINE
8
Bot_Paste
6
CONTINUOUS
66
1
70
0
40
0.0157480
41
0.0157480
0
VERTEX
8
Bot_Paste
10
2.4409449
20
4.4094488
42
0.0000000
0
VERTEX
8
Bot_Paste
10
3.6220472
20
4.4094488
42
0.0000000
0
SEQEND
0
INSERT
8
Bot_Paste
2
UNIT_DISC
10
3.6220472
20
4.4094488
41
0.0157480
42
0.0157480
43
0.0157480
50
0.0000000
0
INSERT
8
Bot_Paste
2
UNIT_DISC
10
3.6220472
20
4.9409449
41
0.0157480
42
0.0157480
43
0.0157480
50
0.0000000
0
POLYLINE
8
Bot_Paste
6
CONTINUOUS
66
1
70
0
40
0.0157480
41
0.0157480
0
VERTEX
8
Bot_Paste
10
3.6220472
20
4.4094488
42
0.0000000
0
VERTEX
8
Bot_Paste
10
3.6220472
20
4.9409449
42
0.0000000
0
SEQEND
0
INSERT
8
Bot_Paste
2
UNIT_DISC
10
2.4409449
20
4.9409449
41
0.0157480
42
0.0157480
43
0.0157480
50
0.0000000
0
INSERT
8
Bot_Paste
2
UNIT_DISC
10
2.4409449
20
4.4094488
41
0.0157480
42
0.0157480
43
0.0157480
50
0.0000000
0
POLYLINE
8
Bot_Paste
6
CONTINUOUS
66
1
70
0
40
0.0157480
41
0.0157480
0
VERTEX
8
Bot_Paste
10
2.4409449
20
4.9409449
42
0.0000000
0
VERTEX
8
Bot_Paste
10
2.4409449
20
4.4094488
42
0.0000000
0
SEQEND
0
INSERT
8
Top_Assy
2
UNIT_DISC
10
2.6771654
20
6.9685039
41
0.0098425
42
0.0098425
43
0.0098425
50
0.0000000
0
INSERT
8
Top_Assy
2
UNIT_DISC
10
2.6771654
20
7.0866142
41
0.0098425
42
0.0098425
43
0.0098425
50
0.0000000
0
POLYLINE
8
Top_Assy
6
CONTINUOUS
66
1
70
0
40
0.0098425
41
0.0098425
0
VERTEX
8
Top_Assy
10
2.6771654
20
6.9685039
42
0.0000000
0
VERTEX
8
Top_Assy
10
2.6771654
20
7.0866142
42
0.0000000
0
SEQEND
0
INSERT
8
Top_Assy
2
UNIT_DISC
10
2.5196850
20
6.9685039
41
0.0098425
42
0.0098425
43
0.0098425
50
0.0000000
0
INSERT
8
Top_Assy
2
UNIT_DISC
10
2.5196850
20
7.0866142
41
0.0098425
42
0.0098425
43
0.0098425
50
0.0000000
0
POLYLINE
8
Top_Assy
6
CONTINUOUS
66
1
70
0
40
0.0098425
41
0.0098425
0
VERTEX
8
Top_Assy
10
2.5196850
20
6.9685039
42
0.0000000
0
VERTEX
8
Top_Assy
10
2.5196850
20
7.0866142
42
0.0000000
0
SEQEND
0
INSERT
8
Top_Assy
2
UNIT_DISC
10
2.6771654
20
6.2598425
41
0.0098425
42
0.0098425
43
0.0098425
50
0.0000000
0
INSERT
8
Top_Assy
2
UNIT_DISC
10
2.6771654
20
6.1023622
41
0.0098425
42
0.0098425
43
0.0098425
50
0.0000000
0
POLYLINE
8
Top_Assy
6
CONTINUOUS
66
1
70
0
40
0.0098425
41
0.0098425
0
VERTEX
8
Top_Assy
10
2.6771654
20
6.2598425
42
0.0000000
0
VERTEX
8
Top_Assy
10
2.6771654
20
6.1023622
42
0.0000000
0
SEQEND
0
INSERT
8
Top_Assy
2
UNIT_DISC
10
2.5196850
20
6.2598425
41
0.0098425
42
0.0098425
43
0.0098425
50
0.0000000
0
INSERT
8
Top_Assy
2
UNIT_DISC
10
2.5196850
20
6.1023622
41
0.0098425
42
0.0098425
43
0.0098425
50
0.0000000
0
POLYLINE
8
Top_Assy
6
CONTINUOUS
66
1
70
0
40
0.0098425
41
0.0098425
0
VERTEX
8
Top_Assy
10
2.5196850
20
6.2598425
42
0.0000000
0
VERTEX
8
Top_Assy
10
2.5196850
20
6.1023622
42
0.0000000
0
SEQEND
0
INSERT
8
Top_Assy
2
UNIT_DISC
10
2.5196850
20
6.1023622
41
0.0098425
42
0.0098425
43
0.0098425
50
0.0000000
0
INSERT
8
Top_Assy
2
UNIT_DISC
10
2.5196850
20
5.6299213
41
0.0098425
42
0.0098425
43
0.0098425
50
0.0000000
0
POLYLINE
8
Top_Assy
6
CONTINUOUS
66
1
70
0
40
0.0098425
41
0.0098425
0
VERTEX
8
Top_Assy
10
2.5196850
20
6.1023622
42
0.0000000
0
VERTEX
8
Top_Assy
10
2.5196850
20
5.6299213
42
0.0000000
0
SEQEND
0
INSERT
8
Top_Assy
2
UNIT_DISC
10
2.6771654
20
6.1023622
41
0.0098425
42
0.0098425
43
0.0098425
50
0.0000000
0
INSERT
8
Top_Assy
2
UNIT_DISC
10
2.6771654
20
5.6299213
41
0.0098425
42
0.0098425
43
0.0098425
50
0.0000000
0
POLYLINE
8
Top_Assy
6
CONTINUOUS
66
1
70
0
40
0.0098425
41
0.0098425
0
VERTEX
8
Top_Assy
10
2.6771654
20
6.1023622
42
0.0000000
0
VERTEX
8
Top_Assy
10
2.6771654
20
5.6299213
42
0.0000000
0
SEQEND
0
INSERT
8
Top_Assy
2
UNIT_DISC
10
4.2913386
20
6.9685039
41
0.0098425
42
0.0098425
43
0.0098425
50
0.0000000
0
INSERT
8
Top_Assy
2
UNIT_DISC
10
4.2913386
20
7.0866142
41
0.0098425
42
0.0098425
43
0.0098425
50
0.0000000
0
POLYLINE
8
Top_Assy
6
CONTINUOUS
66
1
70
0
40
0.0098425
41
0.0098425
0
VERTEX
8
Top_Assy
10
4.2913386
20
6.9685039
42
0.0000000
0
VERTEX
8
Top_Assy
10
4.2913386
20
7.0866142
42
0.0000000
0
SEQEND
0
INSERT
8
Top_Assy
2
UNIT_DISC
10
4.1338583
20
6.9685039
41
0.0098425
42
0.0098425
43
0.0098425
50
0.0000000
0
INSERT
8
Top_Assy
2
UNIT_DISC
10
4.1338583
20
7.0866142
41
0.0098425
42
0.0098425
43
0.0098425
50
0.0000000
0
POLYLINE
8
Top_Assy
6
CONTINUOUS
66
1
70
0
40
0.0098425
41
0.0098425
0
VERTEX
8
Top_Assy
10
4.1338583
20
6.9685039
42
0.0000000
0
VERTEX
8
Top_Assy
10
4.1338583
20
7.0866142
42
0.0000000
0
SEQEND
0
INSERT
8
Top_Assy
2
UNIT_DISC
10
4.2913386
20
6.2598425
41
0.0098425
42
0.0098425
43
0.0098425
50
0.0000000
0
INSERT
8
Top_Assy
2
UNIT_DISC
10
4.2913386
20
6.1023622
41
0.0098425
42
0.0098425
43
0.0098425
50
0.0000000
0
POLYLINE
8
Top_Assy
6
CONTINUOUS
66
1
70
0
40
0.0098425
41
0.0098425
0
VERTEX
8
Top_Assy
10
4.2913386
20
6.2598425
42
0.0000000
0
VERTEX
8
Top_Assy
10
4.2913386
20
6.1023622
42
0.0000000
0
SEQEND
0
INSERT
8
Top_Assy
2
UNIT_DISC
10
4.1338583
20
6.2598425
41
0.0098425
42
0.0098425
43
0.0098425
50
0.0000000
0
INSERT
8
Top_Assy
2
UNIT_DISC
10
4.1338583
20
6.1023622
41
0.0098425
42
0.0098425
43
0.0098425
50
0.0000000
0
POLYLINE
8
Top_Assy
6
CONTINUOUS
66
1
70
0
40
0.0098425
41
0.0098425
0
VERTEX
8
Top_Assy
10
4.1338583
20
6.2598425
42
0.0000000
0
VERTEX
8
Top_Assy
10
4.1338583
20
6.1023622
42
0.0000000
0
SEQEND
0
INSERT
8
Top_Assy
2
UNIT_DISC
10
4.1338583
20
6.1023622
41
0.0098425
42
0.0098425
43
0.0098425
50
0.0000000
0
INSERT
8
Top_Assy
2
UNIT_DISC
10
4.1338583
20
5.6299213
41
0.0098425
42
0.0098425
43
0.0098425
50
0.0000000
0
POLYLINE
8
Top_Assy
6
CONTINUOUS
66
1
70
0
40
0.0098425
41
0.0098425
0
VERTEX
8
Top_Assy
10
4.1338583
20
6.1023622
42
0.0000000
0
VERTEX
8
Top_Assy
10
4.1338583
20
5.6299213
42
0.0000000
0
SEQEND
0
INSERT
8
Top_Assy
2
UNIT_DISC
10
4.2913386
20
6.1023622
41
0.0098425
42
0.0098425
43
0.0098425
50
0.0000000
0
INSERT
8
Top_Assy
2
UNIT_DISC
10
4.2913386
20
5.6299213
41
0.0098425
42
0.0098425
43
0.0098425
50
0.0000000
0
POLYLINE
8
Top_Assy
6
CONTINUOUS
66
1
70
0
40
0.0098425
41
0.0098425
0
VERTEX
8
Top_Assy
10
4.2913386
20
6.1023622
42
0.0000000
0
VERTEX
8
Top_Assy
10
4.2913386
20
5.6299213
42
0.0000000
0
SEQEND
0
INSERT
8
Top_Assy
2
UNIT_DISC
10
5.8661417
20
6.9685039
41
0.0098425
42
0.0098425
43
0.0098425
50
0.0000000
0
INSERT
8
Top_Assy
2
UNIT_DISC
10
5.8661417
20
7.0866142
41
0.0098425
42
0.0098425
43
0.0098425
50
0.0000000
0
POLYLINE
8
Top_Assy
6
CONTINUOUS
66
1
70
0
40
0.0098425
41
0.0098425
0
VERTEX
8
Top_Assy
10
5.8661417
20
6.9685039
42
0.0000000
0
VERTEX
8
Top_Assy
10
5.8661417
20
7.0866142
42
0.0000000
0
SEQEND
0
INSERT
8
Top_Assy
2
UNIT_DISC
10
5.7086614
20
6.9685039
41
0.0098425
42
0.0098425
43
0.0098425
50
0.0000000
0
INSERT
8
Top_Assy
2
UNIT_DISC
10
5.7086614
20
7.0866142
41
0.0098425
42
0.0098425
43
0.0098425
50
0.0000000
0
POLYLINE
8
Top_Assy
6
CONTINUOUS
66
1
70
0
40
0.0098425
41
0.0098425
0
VERTEX
8
Top_Assy
10
5.7086614
20
6.9685039
42
0.0000000
0
VERTEX
8
Top_Assy
10
5.7086614
20
7.0866142
42
0.0000000
0
SEQEND
0
INSERT
8
Top_Assy
2
UNIT_DISC
10
5.8661417
20
6.2598425
41
0.0098425
42
0.0098425
43
0.0098425
50
0.0000000
0
INSERT
8
Top_Assy
2
UNIT_DISC
10
5.8661417
20
6.1023622
41
0.0098425
42
0.0098425
43
0.0098425
50
0.0000000
0
POLYLINE
8
Top_Assy
6
CONTINUOUS
66
1
70
0
40
0.0098425
41
0.0098425
0
VERTEX
8
Top_Assy
10
5.8661417
20
6.2598425
42
0.0000000
0
VERTEX
8
Top_Assy
10
5.8661417
20
6.1023622
42
0.0000000
0
SEQEND
0
INSERT
8
Top_Assy
2
UNIT_DISC
10
5.7086614
20
6.2598425
41
0.0098425
42
0.0098425
43
0.0098425
50
0.0000000
0
INSERT
8
Top_Assy
2
UNIT_DISC
10
5.7086614
20
6.1023622
41
0.0098425
42
0.0098425
43
0.0098425
50
0.0000000
0
POLYLINE
8
Top_Assy
6
CONTINUOUS
66
1
70
0
40
0.0098425
41
0.0098425
0
VERTEX
8
Top_Assy
10
5.7086614
20
6.2598425
42
0.0000000
0
VERTEX
8
Top_Assy
10
5.7086614
20
6.1023622
42
0.0000000
0
SEQEND
0
INSERT
8
Top_Assy
2
UNIT_DISC
10
5.7086614
20
6.1023622
41
0.0098425
42
0.0098425
43
0.0098425
50
0.0000000
0
INSERT
8
Top_Assy
2
UNIT_DISC
10
5.7086614
20
5.6299213
41
0.0098425
42
0.0098425
43
0.0098425
50
0.0000000
0
POLYLINE
8
Top_Assy
6
CONTINUOUS
66
1
70
0
40
0.0098425
41
0.0098425
0
VERTEX
8
Top_Assy
10
5.7086614
20
6.1023622
42
0.0000000
0
VERTEX
8
Top_Assy
10
5.7086614
20
5.6299213
42
0.0000000
0
SEQEND
0
INSERT
8
Top_Assy
2
UNIT_DISC
10
5.8661417
20
6.1023622
41
0.0098425
42
0.0098425
43
0.0098425
50
0.0000000
0
INSERT
8
Top_Assy
2
UNIT_DISC
10
5.8661417
20
5.6299213
41
0.0098425
42
0.0098425
43
0.0098425
50
0.0000000
0
POLYLINE
8
Top_Assy
6
CONTINUOUS
66
1
70
0
40
0.0098425
41
0.0098425
0
VERTEX
8
Top_Assy
10
5.8661417
20
6.1023622
42
0.0000000
0
VERTEX
8
Top_Assy
10
5.8661417
20
5.6299213
42
0.0000000
0
SEQEND
0
INSERT
8
Top_Assy
2
UNIT_DISC
10
7.4015748
20
6.9685039
41
0.0098425
42
0.0098425
43
0.0098425
50
0.0000000
0
INSERT
8
Top_Assy
2
UNIT_DISC
10
7.4015748
20
7.0866142
41
0.0098425
42
0.0098425
43
0.0098425
50
0.0000000
0
POLYLINE
8
Top_Assy
6
CONTINUOUS
66
1
70
0
40
0.0098425
41
0.0098425
0
VERTEX
8
Top_Assy
10
7.4015748
20
6.9685039
42
0.0000000
0
VERTEX
8
Top_Assy
10
7.4015748
20
7.0866142
42
0.0000000
0
SEQEND
0
INSERT
8
Top_Assy
2
UNIT_DISC
10
7.2440945
20
6.9685039
41
0.0098425
42
0.0098425
43
0.0098425
50
0.0000000
0
INSERT
8
Top_Assy
2
UNIT_DISC
10
7.2440945
20
7.0866142
41
0.0098425
42
0.0098425
43
0.0098425
50
0.0000000
0
POLYLINE
8
Top_Assy
6
CONTINUOUS
66
1
70
0
40
0.0098425
41
0.0098425
0
VERTEX
8
Top_Assy
10
7.2440945
20
6.9685039
42
0.0000000
0
VERTEX
8
Top_Assy
10
7.2440945
20
7.0866142
42
0.0000000
0
SEQEND
0
INSERT
8
Top_Assy
2
UNIT_DISC
10
7.4015748
20
6.2598425
41
0.0098425
42
0.0098425
43
0.0098425
50
0.0000000
0
INSERT
8
Top_Assy
2
UNIT_DISC
10
7.4015748
20
6.1023622
41
0.0098425
42
0.0098425
43
0.0098425
50
0.0000000
0
POLYLINE
8
Top_Assy
6
CONTINUOUS
66
1
70
0
40
0.0098425
41
0.0098425
0
VERTEX
8
Top_Assy
10
7.4015748
20
6.2598425
42
0.0000000
0
VERTEX
8
Top_Assy
10
7.4015748
20
6.1023622
42
0.0000000
0
SEQEND
0
INSERT
8
Top_Assy
2
UNIT_DISC
10
7.2440945
20
6.2598425
41
0.0098425
42
0.0098425
43
0.0098425
50
0.0000000
0
INSERT
8
Top_Assy
2
UNIT_DISC
10
7.2440945
20
6.1023622
41
0.0098425
42
0.0098425
43
0.0098425
50
0.0000000
0
POLYLINE
8
Top_Assy
6
CONTINUOUS
66
1
70
0
40
0.0098425
41
0.0098425
0
VERTEX
8
Top_Assy
10
7.2440945
20
6.2598425
42
0.0000000
0
VERTEX
8
Top_Assy
10
7.2440945
20
6.1023622
42
0.0000000
0
SEQEND
0
INSERT
8
Top_Assy
2
UNIT_DISC
10
7.2440945
20
6.1023622
41
0.0098425
42
0.0098425
43
0.0098425
50
0.0000000
0
INSERT
8
Top_Assy
2
UNIT_DISC
10
7.2440945
20
5.6299213
41
0.0098425
42
0.0098425
43
0.0098425
50
0.0000000
0
POLYLINE
8
Top_Assy
6
CONTINUOUS
66
1
70
0
40
0.0098425
41
0.0098425
0
VERTEX
8
Top_Assy
10
7.2440945
20
6.1023622
42
0.0000000
0
VERTEX
8
Top_Assy
10
7.2440945
20
5.6299213
42
0.0000000
0
SEQEND
0
INSERT
8
Top_Assy
2
UNIT_DISC
10
7.4015748
20
6.1023622
41
0.0098425
42
0.0098425
43
0.0098425
50
0.0000000
0
INSERT
8
Top_Assy
2
UNIT_DISC
10
7.4015748
20
5.6299213
41
0.0098425
42
0.0098425
43
0.0098425
50
0.0000000
0
POLYLINE
8
Top_Assy
6
CONTINUOUS
66
1
70
0
40
0.0098425
41
0.0098425
0
VERTEX
8
Top_Assy
10
7.4015748
20
6.1023622
42
0.0000000
0
VERTEX
8
Top_Assy
10
7.4015748
20
5.6299213
42
0.0000000
0
SEQEND
0
INSERT
8
Bot_Assy
2
UNIT_DISC
10
3.0314961
20
5.8267717
41
0.0098425
42
0.0098425
43
0.0098425
50
0.0000000
0
INSERT
8
Bot_Assy
2
UNIT_DISC
10
3.0314961
20
5.6299213
41
0.0098425
42
0.0098425
43
0.0098425
50
0.0000000
0
POLYLINE
8
Bot_Assy
6
CONTINUOUS
66
1
70
0
40
0.0098425
41
0.0098425
0
VERTEX
8
Bot_Assy
10
3.0314961
20
5.8267717
42
0.0000000
0
VERTEX
8
Bot_Assy
10
3.0314961
20
5.6299213
42
0.0000000
0
SEQEND
0
INSERT
8
Bot_Assy
2
UNIT_DISC
10
3.1102362
20
5.8267717
41
0.0098425
42
0.0098425
43
0.0098425
50
0.0000000
0
INSERT
8
Bot_Assy
2
UNIT_DISC
10
3.1102362
20
5.6299213
41
0.0098425
42
0.0098425
43
0.0098425
50
0.0000000
0
POLYLINE
8
Bot_Assy
6
CONTINUOUS
66
1
70
0
40
0.0098425
41
0.0098425
0
VERTEX
8
Bot_Assy
10
3.1102362
20
5.8267717
42
0.0000000
0
VERTEX
8
Bot_Assy
10
3.1102362
20
5.6299213
42
0.0000000
0
SEQEND
0
TEXT
8
Bot_Assy
10
2.9921260
20
6.0939260
40
0.0629921
1
–≈√”Àﬂ“Œ–
50
0.0
7
STANDARD
71
0
72
0
0
TEXT
8
Bot_Assy
10
2.9921260
20
5.9955008
40
0.0629921
1
¬Œƒ€
50
0.0
7
STANDARD
71
0
72
0
0
TEXT
8
Bot_Assy
10
2.9921260
20
5.8661417
40
0.0472441
1
–¿—’Œƒ ¬Œƒ€
50
0.0
7
STANDARD
71
0
72
0
0
INSERT
8
Bot_Assy
2
UNIT_DISC
10
3.3464567
20
6.2204724
41
0.0098425
42
0.0098425
43
0.0098425
50
0.0000000
0
INSERT
8
Bot_Assy
2
UNIT_DISC
10
3.3464567
20
6.3779528
41
0.0098425
42
0.0098425
43
0.0098425
50
0.0000000
0
POLYLINE
8
Bot_Assy
6
CONTINUOUS
66
1
70
0
40
0.0098425
41
0.0098425
0
VERTEX
8
Bot_Assy
10
3.3464567
20
6.2204724
42
0.0000000
0
VERTEX
8
Bot_Assy
10
3.3464567
20
6.3779528
42
0.0000000
0
SEQEND
0
INSERT
8
Bot_Assy
2
UNIT_DISC
10
3.4251969
20
6.2204724
41
0.0098425
42
0.0098425
43
0.0098425
50
0.0000000
0
INSERT
8
Bot_Assy
2
UNIT_DISC
10
3.4251969
20
6.3779528
41
0.0098425
42
0.0098425
43
0.0098425
50
0.0000000
0
POLYLINE
8
Bot_Assy
6
CONTINUOUS
66
1
70
0
40
0.0098425
41
0.0098425
0
VERTEX
8
Bot_Assy
10
3.4251969
20
6.2204724
42
0.0000000
0
VERTEX
8
Bot_Assy
10
3.4251969
20
6.3779528
42
0.0000000
0
SEQEND
0
INSERT
8
Bot_Assy
2
UNIT_DISC
10
4.6456693
20
5.8267717
41
0.0098425
42
0.0098425
43
0.0098425
50
0.0000000
0
INSERT
8
Bot_Assy
2
UNIT_DISC
10
4.6456693
20
5.6299213
41
0.0098425
42
0.0098425
43
0.0098425
50
0.0000000
0
POLYLINE
8
Bot_Assy
6
CONTINUOUS
66
1
70
0
40
0.0098425
41
0.0098425
0
VERTEX
8
Bot_Assy
10
4.6456693
20
5.8267717
42
0.0000000
0
VERTEX
8
Bot_Assy
10
4.6456693
20
5.6299213
42
0.0000000
0
SEQEND
0
INSERT
8
Bot_Assy
2
UNIT_DISC
10
4.7244094
20
5.8267717
41
0.0098425
42
0.0098425
43
0.0098425
50
0.0000000
0
INSERT
8
Bot_Assy
2
UNIT_DISC
10
4.7244094
20
5.6299213
41
0.0098425
42
0.0098425
43
0.0098425
50
0.0000000
0
POLYLINE
8
Bot_Assy
6
CONTINUOUS
66
1
70
0
40
0.0098425
41
0.0098425
0
VERTEX
8
Bot_Assy
10
4.7244094
20
5.8267717
42
0.0000000
0
VERTEX
8
Bot_Assy
10
4.7244094
20
5.6299213
42
0.0000000
0
SEQEND
0
TEXT
8
Bot_Assy
10
4.6062992
20
6.0939260
40
0.0629921
1
–≈√”Àﬂ“Œ–
50
0.0
7
STANDARD
71
0
72
0
0
TEXT
8
Bot_Assy
10
4.6062992
20
5.9955008
40
0.0629921
1
¬Œƒ€
50
0.0
7
STANDARD
71
0
72
0
0
TEXT
8
Bot_Assy
10
4.6062992
20
5.8661417
40
0.0472441
1
–¿—’Œƒ ¬Œƒ€
50
0.0
7
STANDARD
71
0
72
0
0
INSERT
8
Bot_Assy
2
UNIT_DISC
10
4.9606299
20
6.2204724
41
0.0098425
42
0.0098425
43
0.0098425
50
0.0000000
0
INSERT
8
Bot_Assy
2
UNIT_DISC
10
4.9606299
20
6.3779528
41
0.0098425
42
0.0098425
43
0.0098425
50
0.0000000
0
POLYLINE
8
Bot_Assy
6
CONTINUOUS
66
1
70
0
40
0.0098425
41
0.0098425
0
VERTEX
8
Bot_Assy
10
4.9606299
20
6.2204724
42
0.0000000
0
VERTEX
8
Bot_Assy
10
4.9606299
20
6.3779528
42
0.0000000
0
SEQEND
0
INSERT
8
Bot_Assy
2
UNIT_DISC
10
5.0393701
20
6.2204724
41
0.0098425
42
0.0098425
43
0.0098425
50
0.0000000
0
INSERT
8
Bot_Assy
2
UNIT_DISC
10
5.0393701
20
6.3779528
41
0.0098425
42
0.0098425
43
0.0098425
50
0.0000000
0
POLYLINE
8
Bot_Assy
6
CONTINUOUS
66
1
70
0
40
0.0098425
41
0.0098425
0
VERTEX
8
Bot_Assy
10
5.0393701
20
6.2204724
42
0.0000000
0
VERTEX
8
Bot_Assy
10
5.0393701
20
6.3779528
42
0.0000000
0
SEQEND
0
TEXT
8
Bot_Assy
10
3.3070866
20
4.4685039
40
0.0472441
1
·‡
50
0.0
7
STANDARD
71
0
72
0
0
INSERT
8
Bot_Assy
2
UNIT_DISC
10
3.1102362
20
4.5472441
41
0.0098425
42
0.0098425
43
0.0098425
50
0.0000000
0
INSERT
8
Bot_Assy
2
UNIT_DISC
10
3.1102362
20
4.4685039
41
0.0098425
42
0.0098425
43
0.0098425
50
0.0000000
0
POLYLINE
8
Bot_Assy
6
CONTINUOUS
66
1
70
0
40
0.0098425
41
0.0098425
0
VERTEX
8
Bot_Assy
10
3.1102362
20
4.5472441
42
0.0000000
0
VERTEX
8
Bot_Assy
10
3.1102362
20
4.4685039
42
0.0000000
0
SEQEND
0
INSERT
8
Bot_Assy
2
UNIT_DISC
10
3.1102362
20
4.4685039
41
0.0098425
42
0.0098425
43
0.0098425
50
0.0000000
0
INSERT
8
Bot_Assy
2
UNIT_DISC
10
3.2677165
20
4.4685039
41
0.0098425
42
0.0098425
43
0.0098425
50
0.0000000
0
POLYLINE
8
Bot_Assy
6
CONTINUOUS
66
1
70
0
40
0.0098425
41
0.0098425
0
VERTEX
8
Bot_Assy
10
3.1102362
20
4.4685039
42
0.0000000
0
VERTEX
8
Bot_Assy
10
3.2677165
20
4.4685039
42
0.0000000
0
SEQEND
0
INSERT
8
Bot_Assy
2
UNIT_DISC
10
3.2677165
20
4.4685039
41
0.0098425
42
0.0098425
43
0.0098425
50
0.0000000
0
INSERT
8
Bot_Assy
2
UNIT_DISC
10
3.2677165
20
4.5472441
41
0.0098425
42
0.0098425
43
0.0098425
50
0.0000000
0
POLYLINE
8
Bot_Assy
6
CONTINUOUS
66
1
70
0
40
0.0098425
41
0.0098425
0
VERTEX
8
Bot_Assy
10
3.2677165
20
4.4685039
42
0.0000000
0
VERTEX
8
Bot_Assy
10
3.2677165
20
4.5472441
42
0.0000000
0
SEQEND
0
INSERT
8
Bot_Assy
2
UNIT_DISC
10
3.2677165
20
4.5472441
41
0.0098425
42
0.0098425
43
0.0098425
50
0.0000000
0
INSERT
8
Bot_Assy
2
UNIT_DISC
10
3.1102362
20
4.5472441
41
0.0098425
42
0.0098425
43
0.0098425
50
0.0000000
0
POLYLINE
8
Bot_Assy
6
CONTINUOUS
66
1
70
0
40
0.0098425
41
0.0098425
0
VERTEX
8
Bot_Assy
10
3.2677165
20
4.5472441
42
0.0000000
0
VERTEX
8
Bot_Assy
10
3.1102362
20
4.5472441
42
0.0000000
0
SEQEND
0
INSERT
8
Bot_Assy
2
UNIT_DISC
10
3.6220472
20
4.7244094
41
0.0098425
42
0.0098425
43
0.0098425
50
0.0000000
0
INSERT
8
Bot_Assy
2
UNIT_DISC
10
3.7204724
20
4.7244094
41
0.0098425
42
0.0098425
43
0.0098425
50
0.0000000
0
POLYLINE
8
Bot_Assy
6
CONTINUOUS
66
1
70
0
40
0.0098425
41
0.0098425
0
VERTEX
8
Bot_Assy
10
3.6220472
20
4.7244094
42
0.0000000
0
VERTEX
8
Bot_Assy
10
3.7204724
20
4.7244094
42
0.0000000
0
SEQEND
0
INSERT
8
Bot_Assy
2
UNIT_DISC
10
3.7204724
20
4.7244094
41
0.0098425
42
0.0098425
43
0.0098425
50
0.0000000
0
INSERT
8
Bot_Assy
2
UNIT_DISC
10
3.7992126
20
4.7244094
41
0.0098425
42
0.0098425
43
0.0098425
50
0.0000000
0
POLYLINE
8
Bot_Assy
6
CONTINUOUS
66
1
70
0
40
0.0098425
41
0.0098425
0
VERTEX
8
Bot_Assy
10
3.7204724
20
4.7244094
42
0.0000000
0
VERTEX
8
Bot_Assy
10
3.7992126
20
4.7244094
42
0.0000000
0
SEQEND
0
INSERT
8
Bot_Assy
2
UNIT_DISC
10
3.6220472
20
4.6456693
41
0.0098425
42
0.0098425
43
0.0098425
50
0.0000000
0
INSERT
8
Bot_Assy
2
UNIT_DISC
10
3.7992126
20
4.6456693
41
0.0098425
42
0.0098425
43
0.0098425
50
0.0000000
0
POLYLINE
8
Bot_Assy
6
CONTINUOUS
66
1
70
0
40
0.0098425
41
0.0098425
0
VERTEX
8
Bot_Assy
10
3.6220472
20
4.6456693
42
0.0000000
0
VERTEX
8
Bot_Assy
10
3.7992126
20
4.6456693
42
0.0000000
0
SEQEND
0
INSERT
8
Bot_Assy
2
UNIT_DISC
10
2.4409449
20
4.7440945
41
0.0098425
42
0.0098425
43
0.0098425
50
0.0000000
0
INSERT
8
Bot_Assy
2
UNIT_DISC
10
2.3228346
20
4.7440945
41
0.0098425
42
0.0098425
43
0.0098425
50
0.0000000
0
POLYLINE
8
Bot_Assy
6
CONTINUOUS
66
1
70
0
40
0.0098425
41
0.0098425
0
VERTEX
8
Bot_Assy
10
2.4409449
20
4.7440945
42
0.0000000
0
VERTEX
8
Bot_Assy
10
2.3228346
20
4.7440945
42
0.0000000
0
SEQEND
0
INSERT
8
Bot_Assy
2
UNIT_DISC
10
2.4409449
20
4.6456693
41
0.0098425
42
0.0098425
43
0.0098425
50
0.0000000
0
INSERT
8
Bot_Assy
2
UNIT_DISC
10
2.3228346
20
4.6456693
41
0.0098425
42
0.0098425
43
0.0098425
50
0.0000000
0
POLYLINE
8
Bot_Assy
6
CONTINUOUS
66
1
70
0
40
0.0098425
41
0.0098425
0
VERTEX
8
Bot_Assy
10
2.4409449
20
4.6456693
42
0.0000000
0
VERTEX
8
Bot_Assy
10
2.3228346
20
4.6456693
42
0.0000000
0
SEQEND
0
INSERT
8
Bot_Assy
2
UNIT_DISC
10
4.7834646
20
5.7874016
41
0.0098425
42
0.0098425
43
0.0098425
50
0.0000000
0
INSERT
8
Bot_Assy
2
UNIT_DISC
10
4.7834646
20
5.7086614
41
0.0098425
42
0.0098425
43
0.0098425
50
0.0000000
0
POLYLINE
8
Bot_Assy
6
CONTINUOUS
66
1
70
0
40
0.0098425
41
0.0098425
0
VERTEX
8
Bot_Assy
10
4.7834646
20
5.7874016
42
0.0000000
0
VERTEX
8
Bot_Assy
10
4.7834646
20
5.7086614
42
0.0000000
0
SEQEND
0
INSERT
8
Bot_Assy
2
UNIT_DISC
10
4.7834646
20
5.7086614
41
0.0098425
42
0.0098425
43
0.0098425
50
0.0000000
0
INSERT
8
Bot_Assy
2
UNIT_DISC
10
4.9803150
20
5.7086614
41
0.0098425
42
0.0098425
43
0.0098425
50
0.0000000
0
POLYLINE
8
Bot_Assy
6
CONTINUOUS
66
1
70
0
40
0.0098425
41
0.0098425
0
VERTEX
8
Bot_Assy
10
4.7834646
20
5.7086614
42
0.0000000
0
VERTEX
8
Bot_Assy
10
4.9803150
20
5.7086614
42
0.0000000
0
SEQEND
0
INSERT
8
Bot_Assy
2
UNIT_DISC
10
4.9803150
20
5.7086614
41
0.0098425
42
0.0098425
43
0.0098425
50
0.0000000
0
INSERT
8
Bot_Assy
2
UNIT_DISC
10
4.9803150
20
5.7874016
41
0.0098425
42
0.0098425
43
0.0098425
50
0.0000000
0
POLYLINE
8
Bot_Assy
6
CONTINUOUS
66
1
70
0
40
0.0098425
41
0.0098425
0
VERTEX
8
Bot_Assy
10
4.9803150
20
5.7086614
42
0.0000000
0
VERTEX
8
Bot_Assy
10
4.9803150
20
5.7874016
42
0.0000000
0
SEQEND
0
INSERT
8
Bot_Assy
2
UNIT_DISC
10
4.9803150
20
5.7874016
41
0.0098425
42
0.0098425
43
0.0098425
50
0.0000000
0
INSERT
8
Bot_Assy
2
UNIT_DISC
10
4.7834646
20
5.7874016
41
0.0098425
42
0.0098425
43
0.0098425
50
0.0000000
0
POLYLINE
8
Bot_Assy
6
CONTINUOUS
66
1
70
0
40
0.0098425
41
0.0098425
0
VERTEX
8
Bot_Assy
10
4.9803150
20
5.7874016
42
0.0000000
0
VERTEX
8
Bot_Assy
10
4.7834646
20
5.7874016
42
0.0000000
0
SEQEND
0
TEXT
8
Bot_Assy
10
5.0590551
20
5.7086614
40
0.0472441
1
À/◊
50
0.0
7
STANDARD
71
0
72
0
0
INSERT
8
Bot_Assy
2
UNIT_DISC
10
6.2204724
20
5.8267717
41
0.0098425
42
0.0098425
43
0.0098425
50
0.0000000
0
INSERT
8
Bot_Assy
2
UNIT_DISC
10
6.2204724
20
5.6299213
41
0.0098425
42
0.0098425
43
0.0098425
50
0.0000000
0
POLYLINE
8
Bot_Assy
6
CONTINUOUS
66
1
70
0
40
0.0098425
41
0.0098425
0
VERTEX
8
Bot_Assy
10
6.2204724
20
5.8267717
42
0.0000000
0
VERTEX
8
Bot_Assy
10
6.2204724
20
5.6299213
42
0.0000000
0
SEQEND
0
INSERT
8
Bot_Assy
2
UNIT_DISC
10
6.2992126
20
5.8267717
41
0.0098425
42
0.0098425
43
0.0098425
50
0.0000000
0
INSERT
8
Bot_Assy
2
UNIT_DISC
10
6.2992126
20
5.6299213
41
0.0098425
42
0.0098425
43
0.0098425
50
0.0000000
0
POLYLINE
8
Bot_Assy
6
CONTINUOUS
66
1
70
0
40
0.0098425
41
0.0098425
0
VERTEX
8
Bot_Assy
10
6.2992126
20
5.8267717
42
0.0000000
0
VERTEX
8
Bot_Assy
10
6.2992126
20
5.6299213
42
0.0000000
0
SEQEND
0
TEXT
8
Bot_Assy
10
6.1811024
20
6.0939260
40
0.0629921
1
–≈√”Àﬂ“Œ–
50
0.0
7
STANDARD
71
0
72
0
0
TEXT
8
Bot_Assy
10
6.1811024
20
5.9955008
40
0.0629921
1
¬Œƒ€
50
0.0
7
STANDARD
71
0
72
0
0
TEXT
8
Bot_Assy
10
6.1811024
20
5.8661417
40
0.0472441
1
–¿—’Œƒ ¬Œƒ€
50
0.0
7
STANDARD
71
0
72
0
0
INSERT
8
Bot_Assy
2
UNIT_DISC
10
6.5354331
20
6.2204724
41
0.0098425
42
0.0098425
43
0.0098425
50
0.0000000
0
INSERT
8
Bot_Assy
2
UNIT_DISC
10
6.5354331
20
6.3779528
41
0.0098425
42
0.0098425
43
0.0098425
50
0.0000000
0
POLYLINE
8
Bot_Assy
6
CONTINUOUS
66
1
70
0
40
0.0098425
41
0.0098425
0
VERTEX
8
Bot_Assy
10
6.5354331
20
6.2204724
42
0.0000000
0
VERTEX
8
Bot_Assy
10
6.5354331
20
6.3779528
42
0.0000000
0
SEQEND
0
INSERT
8
Bot_Assy
2
UNIT_DISC
10
6.6141732
20
6.2204724
41
0.0098425
42
0.0098425
43
0.0098425
50
0.0000000
0
INSERT
8
Bot_Assy
2
UNIT_DISC
10
6.6141732
20
6.3779528
41
0.0098425
42
0.0098425
43
0.0098425
50
0.0000000
0
POLYLINE
8
Bot_Assy
6
CONTINUOUS
66
1
70
0
40
0.0098425
41
0.0098425
0
VERTEX
8
Bot_Assy
10
6.6141732
20
6.2204724
42
0.0000000
0
VERTEX
8
Bot_Assy
10
6.6141732
20
6.3779528
42
0.0000000
0
SEQEND
0
INSERT
8
Bot_Assy
2
UNIT_DISC
10
6.3582677
20
5.7874016
41
0.0098425
42
0.0098425
43
0.0098425
50
0.0000000
0
INSERT
8
Bot_Assy
2
UNIT_DISC
10
6.3582677
20
5.7086614
41
0.0098425
42
0.0098425
43
0.0098425
50
0.0000000
0
POLYLINE
8
Bot_Assy
6
CONTINUOUS
66
1
70
0
40
0.0098425
41
0.0098425
0
VERTEX
8
Bot_Assy
10
6.3582677
20
5.7874016
42
0.0000000
0
VERTEX
8
Bot_Assy
10
6.3582677
20
5.7086614
42
0.0000000
0
SEQEND
0
INSERT
8
Bot_Assy
2
UNIT_DISC
10
6.3582677
20
5.7086614
41
0.0098425
42
0.0098425
43
0.0098425
50
0.0000000
0
INSERT
8
Bot_Assy
2
UNIT_DISC
10
6.5551181
20
5.7086614
41
0.0098425
42
0.0098425
43
0.0098425
50
0.0000000
0
POLYLINE
8
Bot_Assy
6
CONTINUOUS
66
1
70
0
40
0.0098425
41
0.0098425
0
VERTEX
8
Bot_Assy
10
6.3582677
20
5.7086614
42
0.0000000
0
VERTEX
8
Bot_Assy
10
6.5551181
20
5.7086614
42
0.0000000
0
SEQEND
0
INSERT
8
Bot_Assy
2
UNIT_DISC
10
6.5551181
20
5.7874016
41
0.0098425
42
0.0098425
43
0.0098425
50
0.0000000
0
INSERT
8
Bot_Assy
2
UNIT_DISC
10
6.3582677
20
5.7874016
41
0.0098425
42
0.0098425
43
0.0098425
50
0.0000000
0
POLYLINE
8
Bot_Assy
6
CONTINUOUS
66
1
70
0
40
0.0098425
41
0.0098425
0
VERTEX
8
Bot_Assy
10
6.5551181
20
5.7874016
42
0.0000000
0
VERTEX
8
Bot_Assy
10
6.3582677
20
5.7874016
42
0.0000000
0
SEQEND
0
INSERT
8
Bot_Assy
2
UNIT_DISC
10
6.5551181
20
5.7086614
41
0.0098425
42
0.0098425
43
0.0098425
50
0.0000000
0
INSERT
8
Bot_Assy
2
UNIT_DISC
10
6.5551181
20
5.7874016
41
0.0098425
42
0.0098425
43
0.0098425
50
0.0000000
0
POLYLINE
8
Bot_Assy
6
CONTINUOUS
66
1
70
0
40
0.0098425
41
0.0098425
0
VERTEX
8
Bot_Assy
10
6.5551181
20
5.7086614
42
0.0000000
0
VERTEX
8
Bot_Assy
10
6.5551181
20
5.7874016
42
0.0000000
0
SEQEND
0
TEXT
8
Bot_Assy
10
6.5944882
20
5.7086614
40
0.0472441
1
À/◊
50
0.0
7
STANDARD
71
0
72
0
0
INSERT
8
Bot_Assy
2
UNIT_DISC
10
7.7559055
20
5.8267717
41
0.0098425
42
0.0098425
43
0.0098425
50
0.0000000
0
INSERT
8
Bot_Assy
2
UNIT_DISC
10
7.7559055
20
5.6299213
41
0.0098425
42
0.0098425
43
0.0098425
50
0.0000000
0
POLYLINE
8
Bot_Assy
6
CONTINUOUS
66
1
70
0
40
0.0098425
41
0.0098425
0
VERTEX
8
Bot_Assy
10
7.7559055
20
5.8267717
42
0.0000000
0
VERTEX
8
Bot_Assy
10
7.7559055
20
5.6299213
42
0.0000000
0
SEQEND
0
INSERT
8
Bot_Assy
2
UNIT_DISC
10
7.8346457
20
5.8267717
41
0.0098425
42
0.0098425
43
0.0098425
50
0.0000000
0
INSERT
8
Bot_Assy
2
UNIT_DISC
10
7.8346457
20
5.6299213
41
0.0098425
42
0.0098425
43
0.0098425
50
0.0000000
0
POLYLINE
8
Bot_Assy
6
CONTINUOUS
66
1
70
0
40
0.0098425
41
0.0098425
0
VERTEX
8
Bot_Assy
10
7.8346457
20
5.8267717
42
0.0000000
0
VERTEX
8
Bot_Assy
10
7.8346457
20
5.6299213
42
0.0000000
0
SEQEND
0
TEXT
8
Bot_Assy
10
7.7165354
20
6.0939260
40
0.0629921
1
–≈√”Àﬂ“Œ–
50
0.0
7
STANDARD
71
0
72
0
0
TEXT
8
Bot_Assy
10
7.7165354
20
5.9955008
40
0.0629921
1
¬Œƒ€
50
0.0
7
STANDARD
71
0
72
0
0
TEXT
8
Bot_Assy
10
7.7165354
20
5.8661417
40
0.0472441
1
–¿—’Œƒ ¬Œƒ€
50
0.0
7
STANDARD
71
0
72
0
0
INSERT
8
Bot_Assy
2
UNIT_DISC
10
8.0708661
20
6.2204724
41
0.0098425
42
0.0098425
43
0.0098425
50
0.0000000
0
INSERT
8
Bot_Assy
2
UNIT_DISC
10
8.0708661
20
6.3779528
41
0.0098425
42
0.0098425
43
0.0098425
50
0.0000000
0
POLYLINE
8
Bot_Assy
6
CONTINUOUS
66
1
70
0
40
0.0098425
41
0.0098425
0
VERTEX
8
Bot_Assy
10
8.0708661
20
6.2204724
42
0.0000000
0
VERTEX
8
Bot_Assy
10
8.0708661
20
6.3779528
42
0.0000000
0
SEQEND
0
INSERT
8
Bot_Assy
2
UNIT_DISC
10
8.1496063
20
6.2204724
41
0.0098425
42
0.0098425
43
0.0098425
50
0.0000000
0
INSERT
8
Bot_Assy
2
UNIT_DISC
10
8.1496063
20
6.3779528
41
0.0098425
42
0.0098425
43
0.0098425
50
0.0000000
0
POLYLINE
8
Bot_Assy
6
CONTINUOUS
66
1
70
0
40
0.0098425
41
0.0098425
0
VERTEX
8
Bot_Assy
10
8.1496063
20
6.2204724
42
0.0000000
0
VERTEX
8
Bot_Assy
10
8.1496063
20
6.3779528
42
0.0000000
0
SEQEND
0
INSERT
8
Bot_Assy
2
UNIT_DISC
10
7.8937008
20
5.7874016
41
0.0098425
42
0.0098425
43
0.0098425
50
0.0000000
0
INSERT
8
Bot_Assy
2
UNIT_DISC
10
7.8937008
20
5.7086614
41
0.0098425
42
0.0098425
43
0.0098425
50
0.0000000
0
POLYLINE
8
Bot_Assy
6
CONTINUOUS
66
1
70
0
40
0.0098425
41
0.0098425
0
VERTEX
8
Bot_Assy
10
7.8937008
20
5.7874016
42
0.0000000
0
VERTEX
8
Bot_Assy
10
7.8937008
20
5.7086614
42
0.0000000
0
SEQEND
0
INSERT
8
Bot_Assy
2
UNIT_DISC
10
7.8937008
20
5.7086614
41
0.0098425
42
0.0098425
43
0.0098425
50
0.0000000
0
INSERT
8
Bot_Assy
2
UNIT_DISC
10
8.0905512
20
5.7086614
41
0.0098425
42
0.0098425
43
0.0098425
50
0.0000000
0
POLYLINE
8
Bot_Assy
6
CONTINUOUS
66
1
70
0
40
0.0098425
41
0.0098425
0
VERTEX
8
Bot_Assy
10
7.8937008
20
5.7086614
42
0.0000000
0
VERTEX
8
Bot_Assy
10
8.0905512
20
5.7086614
42
0.0000000
0
SEQEND
0
INSERT
8
Bot_Assy
2
UNIT_DISC
10
8.0905512
20
5.7086614
41
0.0098425
42
0.0098425
43
0.0098425
50
0.0000000
0
INSERT
8
Bot_Assy
2
UNIT_DISC
10
8.0905512
20
5.7874016
41
0.0098425
42
0.0098425
43
0.0098425
50
0.0000000
0
POLYLINE
8
Bot_Assy
6
CONTINUOUS
66
1
70
0
40
0.0098425
41
0.0098425
0
VERTEX
8
Bot_Assy
10
8.0905512
20
5.7086614
42
0.0000000
0
VERTEX
8
Bot_Assy
10
8.0905512
20
5.7874016
42
0.0000000
0
SEQEND
0
INSERT
8
Bot_Assy
2
UNIT_DISC
10
8.0905512
20
5.7874016
41
0.0098425
42
0.0098425
43
0.0098425
50
0.0000000
0
INSERT
8
Bot_Assy
2
UNIT_DISC
10
7.8937008
20
5.7874016
41
0.0098425
42
0.0098425
43
0.0098425
50
0.0000000
0
POLYLINE
8
Bot_Assy
6
CONTINUOUS
66
1
70
0
40
0.0098425
41
0.0098425
0
VERTEX
8
Bot_Assy
10
8.0905512
20
5.7874016
42
0.0000000
0
VERTEX
8
Bot_Assy
10
7.8937008
20
5.7874016
42
0.0000000
0
SEQEND
0
TEXT
8
Bot_Assy
10
8.1299213
20
5.7086614
40
0.0472441
1
À/◊
50
0.0
7
STANDARD
71
0
72
0
0
INSERT
8
Bot_Assy
2
UNIT_DISC
10
3.1692913
20
5.7874016
41
0.0098425
42
0.0098425
43
0.0098425
50
0.0000000
0
INSERT
8
Bot_Assy
2
UNIT_DISC
10
3.1692913
20
5.7086614
41
0.0098425
42
0.0098425
43
0.0098425
50
0.0000000
0
POLYLINE
8
Bot_Assy
6
CONTINUOUS
66
1
70
0
40
0.0098425
41
0.0098425
0
VERTEX
8
Bot_Assy
10
3.1692913
20
5.7874016
42
0.0000000
0
VERTEX
8
Bot_Assy
10
3.1692913
20
5.7086614
42
0.0000000
0
SEQEND
0
INSERT
8
Bot_Assy
2
UNIT_DISC
10
3.1692913
20
5.7086614
41
0.0098425
42
0.0098425
43
0.0098425
50
0.0000000
0
INSERT
8
Bot_Assy
2
UNIT_DISC
10
3.3661417
20
5.7086614
41
0.0098425
42
0.0098425
43
0.0098425
50
0.0000000
0
POLYLINE
8
Bot_Assy
6
CONTINUOUS
66
1
70
0
40
0.0098425
41
0.0098425
0
VERTEX
8
Bot_Assy
10
3.1692913
20
5.7086614
42
0.0000000
0
VERTEX
8
Bot_Assy
10
3.3661417
20
5.7086614
42
0.0000000
0
SEQEND
0
INSERT
8
Bot_Assy
2
UNIT_DISC
10
3.3661417
20
5.7086614
41
0.0098425
42
0.0098425
43
0.0098425
50
0.0000000
0
INSERT
8
Bot_Assy
2
UNIT_DISC
10
3.3661417
20
5.7874016
41
0.0098425
42
0.0098425
43
0.0098425
50
0.0000000
0
POLYLINE
8
Bot_Assy
6
CONTINUOUS
66
1
70
0
40
0.0098425
41
0.0098425
0
VERTEX
8
Bot_Assy
10
3.3661417
20
5.7086614
42
0.0000000
0
VERTEX
8
Bot_Assy
10
3.3661417
20
5.7874016
42
0.0000000
0
SEQEND
0
INSERT
8
Bot_Assy
2
UNIT_DISC
10
3.3661417
20
5.7874016
41
0.0098425
42
0.0098425
43
0.0098425
50
0.0000000
0
INSERT
8
Bot_Assy
2
UNIT_DISC
10
3.1692913
20
5.7874016
41
0.0098425
42
0.0098425
43
0.0098425
50
0.0000000
0
POLYLINE
8
Bot_Assy
6
CONTINUOUS
66
1
70
0
40
0.0098425
41
0.0098425
0
VERTEX
8
Bot_Assy
10
3.3661417
20
5.7874016
42
0.0000000
0
VERTEX
8
Bot_Assy
10
3.1692913
20
5.7874016
42
0.0000000
0
SEQEND
0
TEXT
8
Bot_Assy
10
3.4055118
20
5.7086614
40
0.0472441
1
À/◊
50
0.0
7
STANDARD
71
0
72
0
0
TEXT
8
Bot_Assy
10
2.5196850
20
4.5704449
40
0.0472441
1
¬’ŒƒÕŒ≈ 
50
0.0
7
STANDARD
71
0
72
0
0
TEXT
8
Bot_Assy
10
2.5196850
20
4.4966260
40
0.0472441
1
ƒ¿¬À≈Õ»≈ ¬Œƒ€
50
0.0
7
STANDARD
71
0
72
0
0
ENDSEC
0
EOF
